<?xml version="1.0" encoding="UTF-8" standalone="no"?>
<!-- Created with Inkscape (http://www.inkscape.org/) -->

<svg
   width="5.7984395mm"
   height="7.8038206mm"
   viewBox="0 0 5.7984395 7.8038206"
   version="1.1"
   id="svg1"
   xmlns="http://www.w3.org/2000/svg"
   xmlns:svg="http://www.w3.org/2000/svg">
  <defs
     id="defs1" />
  <g
     id="layer15"
     transform="translate(-410.92279,43.401645)">
    <g
       style="fill:#ffffff;fill-opacity:1"
       id="g304"
       transform="translate(-77.642641,343.2481)">
      <path
         style="opacity:1;fill:#ffffff;fill-opacity:1;fill-rule:evenodd;stroke:none;stroke-width:0.304337;stroke-linecap:square;stroke-dasharray:none;stroke-opacity:1"
         d="m -696.713,-192.9 c -8.355,-0.848 -15.733,-5.878 -19.655,-13.4 -1.455,-2.79 -2.49,-6.49 -2.727,-9.754 -0.2,-2.744 0.458,-7.652 1.27,-9.473 0.158,-0.356 0.358,-0.889 0.444,-1.185 0.222,-0.766 1.597,-3.427 2.19,-4.237 0.275,-0.377 0.5,-0.777 0.5,-0.89 0,-0.11 0.146,-0.323 0.323,-0.47 0.193,-0.16 0.323,-0.628 0.322,-1.157 -0.002,-0.798 -0.264,-1.24 -2.574,-4.334 a 1005.476,1005.476 0 0 1 -3.065,-4.12 c -0.388,-0.532 -0.7,-0.703 -1.463,-0.8 -2.566,-0.329 -3.802,-1.17 -4.512,-3.067 -0.396,-1.059 -0.441,-1.668 -0.441,-5.961 0,-5.932 0.254,-6.823 2.374,-8.328 0.684,-0.486 1.002,-0.54 3.762,-0.646 l 3.014,-0.115 0.06,-2.284 0.061,-2.284 -1.905,-0.109 c -2.215,-0.126 -3.246,-0.65 -4.281,-2.176 l -0.61,-0.898 v -33.586 l 0.579,-1.723 c 0.752,-2.24 1.325,-3.407 2.35,-4.779 2.637,-3.53 6.193,-5.722 10.21,-6.294 2.948,-0.419 2.625,-0.015 2.723,-3.404 0.083,-2.839 0.113,-3 0.708,-3.89 0.341,-0.51 1.064,-1.188 1.607,-1.507 l 0.985,-0.58 h 10.227 c 9.74,0 10.258,0.02 10.873,0.417 2.106,1.356 2.691,2.696 2.691,6.165 0,1.708 0.075,2.389 0.27,2.445 0.147,0.043 1.258,0.231 2.467,0.417 1.209,0.186 2.372,0.432 2.583,0.546 0.212,0.113 0.832,0.41 1.379,0.658 3.243,1.472 6.466,4.73 7.641,7.722 0.171,0.436 0.408,0.964 0.526,1.173 0.117,0.21 0.406,1.503 0.64,2.874 0.397,2.32 0.426,3.527 0.426,17.32 0,14.306 -0.015,14.867 -0.431,15.979 -0.766,2.046 -2.131,2.96 -4.66,3.118 l -1.798,0.112 v 4.676 h 13.779 v -29.272 l -0.85,-1.122 c -1.124,-1.486 -1.39,-2.978 -1.266,-7.102 0.082,-2.713 0.158,-3.242 0.586,-4.072 1.011,-1.964 2.666,-3.253 4.674,-3.642 0.879,-0.17 4.66,-0.225 12.285,-0.178 l 11.016,0.067 0.934,0.646 c 0.627,0.434 1.125,1.034 1.518,1.83 0.576,1.166 0.585,1.249 0.585,5.383 0,4.136 -0.009,4.215 -0.585,5.373 -0.322,0.645 -0.924,1.44 -1.339,1.766 -0.79,0.62 -1.796,0.85 -7.047,1.615 l -2.418,0.351 -0.058,21.445 -0.058,21.445 -0.474,0.888 c -0.594,1.109 -1.56,1.935 -2.6,2.224 -0.507,0.141 -5.278,0.223 -13.017,0.224 h -12.216 l -2.687,3.607 c -1.478,1.983 -2.883,3.849 -3.121,4.145 -0.735,0.91 -0.595,2.26 0.391,3.778 1.378,2.122 2.66,4.797 2.937,6.125 0.086,0.415 0.231,0.85 0.323,0.97 0.407,0.528 0.74,3.67 0.721,6.781 -0.027,4.381 -0.547,6.864 -2.167,10.348 -2.328,5.005 -6.49,9.278 -11.365,11.67 -2.13,1.044 -3.69,1.624 -5.06,1.88 -0.65,0.122 -1.474,0.31 -1.83,0.418 -0.913,0.278 -4.885,0.42 -6.674,0.238 z m 6.927,-4.545 c 4.737,-1.108 8.102,-3.147 11.373,-6.89 1.553,-1.776 3.047,-4.545 3.92,-7.26 0.572,-1.783 0.602,-2.077 0.602,-5.966 0,-3.887 -0.03,-4.184 -0.6,-5.96 -0.648,-2.014 -1.662,-4.103 -2.907,-5.985 -1.211,-1.832 -1.583,-3.74 -1.118,-5.752 0.213,-0.923 0.575,-1.542 2,-3.414 2.204,-2.896 2.733,-3.63 2.733,-3.794 0,-0.098 -9.26,-0.178 -20.576,-0.178 h -20.576 l 0.492,0.7 c 0.27,0.385 1.178,1.62 2.018,2.745 2.483,3.329 2.556,3.49 2.559,5.598 0.002,1.983 -0.043,2.104 -2.038,5.382 -3.757,6.174 -3.984,13.73 -0.608,20.239 0.46,0.888 1.03,1.857 1.266,2.153 1.962,2.466 2.586,3.142 3.841,4.161 1.492,1.212 3.751,2.564 5.417,3.241 3.525,1.433 8.543,1.836 12.202,0.98 z m 45.714,-54.35 v -4.63 l -38.808,0.055 -38.808,0.055 -0.058,4.3 c -0.032,2.364 -0.011,4.423 0.047,4.575 0.085,0.222 7.6,0.275 38.866,0.275 h 38.761 z m -31.864,-11.302 v -2.369 h -36.602 v 4.737 h 36.601 z m 31.812,-11.358 -0.056,-13.725 h -9.258 l -0.055,13.456 c -0.03,7.401 -0.01,13.578 0.047,13.726 0.078,0.204 1.229,0.269 4.74,0.269 h 4.637 z m -24.967,-9.85 c 0.04,-9.055 -0.02,-15.186 -0.162,-16.47 -0.444,-4.026 -2.673,-7.186 -6.403,-9.077 l -1.843,-0.934 h -33.424 l -1.327,0.587 c -3.441,1.522 -5.598,3.862 -6.669,7.236 l -0.508,1.602 v 31.591 l 25.136,-0.055 25.137,-0.054 z m 26.85,-8.518 a 184.13,184.13 0 0 1 3.767,-0.632 c 1.48,-0.235 3.37,-0.552 4.198,-0.703 l 1.507,-0.275 v -7.311 l -10.824,-0.056 -10.824,-0.055 -0.64,0.655 -0.641,0.655 v 6.627 l 0.662,0.662 0.663,0.662 5.527,-0.012 c 3.04,-0.007 6.012,-0.105 6.604,-0.217 z m -42.785,-24.907 -0.06,-2.314 -9.205,-0.057 -9.204,-0.056 v 4.741 h 18.531 z"
         transform="matrix(0.05933,0,0,0.05933,531.645,-367.406)"
         id="path303" />
      <path
         style="opacity:1;fill:#ffffff;fill-opacity:1;fill-rule:evenodd;stroke:none;stroke-width:0.304337;stroke-linecap:square;stroke-dasharray:none;stroke-opacity:1"
         d="m -695.313,-201.88 c -2.743,-0.435 -4.21,-0.86 -6.029,-1.743 -1.737,-0.845 -2.338,-1.289 -3.988,-2.945 -1.64,-1.647 -2.097,-2.27 -2.936,-3.996 -1.006,-2.07 -1.287,-3.01 -1.693,-5.672 -0.189,-1.237 -0.153,-1.872 0.223,-3.972 0.246,-1.375 0.524,-2.601 0.619,-2.725 0.094,-0.124 0.34,-0.662 0.547,-1.195 0.771,-1.986 2.809,-4.506 4.95,-6.121 1.128,-0.85 3.375,-2.06 3.833,-2.062 0.151,0 0.555,-0.147 0.896,-0.325 0.342,-0.178 1.537,-0.426 2.655,-0.55 4.182,-0.467 8.187,0.58 11.257,2.94 4.72,3.63 6.91,8.744 6.256,14.61 -0.127,1.138 -0.318,2.236 -0.425,2.44 -0.107,0.204 -0.348,0.808 -0.535,1.34 -0.55,1.572 -1.867,3.619 -3.25,5.054 -2.508,2.602 -5.114,3.976 -8.798,4.64 -2.364,0.425 -2.572,0.441 -3.582,0.281 z m 3.569,-4.497 c 1.348,-0.313 3.181,-1.098 3.91,-1.675 2.411,-1.911 3.749,-3.728 4.58,-6.22 0.419,-1.257 0.47,-1.774 0.388,-3.913 -0.052,-1.355 -0.192,-2.593 -0.311,-2.75 -0.12,-0.158 -0.342,-0.683 -0.495,-1.169 -0.682,-2.167 -3.963,-5.448 -6.13,-6.13 -0.486,-0.153 -1.012,-0.376 -1.171,-0.497 -0.16,-0.12 -1.419,-0.258 -2.8,-0.307 -2.264,-0.078 -2.661,-0.034 -4.065,0.459 -3.976,1.395 -6.876,4.615 -7.705,8.555 -0.408,1.939 -0.404,3.044 0.018,4.863 0.686,2.957 2.105,5.102 4.62,6.986 2.415,1.807 6.047,2.52 9.16,1.798 z"
         transform="matrix(0.05933,0,0,0.05933,531.645,-367.406)"
         id="path304" />
    </g>
  </g>
</svg>
