<?xml version="1.0" encoding="UTF-8" standalone="no"?>
<!-- Created with Inkscape (http://www.inkscape.org/) -->

<svg
   width="9.7243805mm"
   height="5.8095098mm"
   viewBox="0 0 9.7243805 5.8095097"
   version="1.1"
   id="svg1"
   xmlns="http://www.w3.org/2000/svg"
   xmlns:svg="http://www.w3.org/2000/svg">
  <defs
     id="defs1" />
  <g
     id="layer13"
     transform="translate(-386.73863,45.170368)">
    <path
       style="fill:#ffffff;fill-opacity:1;fill-rule:evenodd;stroke:none;stroke-width:0.0291519;stroke-linecap:square;stroke-dasharray:none;stroke-opacity:1"
       d="m 388.31101,-39.386368 c -0.66,-0.148 -1.19,-0.588 -1.424,-1.183 a 1.765,1.765 0 0 1 -0.148,-0.745 c 0,-0.932 0.666,-1.736 1.597,-1.927 0.202,-0.04 0.531,-0.041 0.729,0 0.231,0.047 0.541,0.173 0.693,0.28 a 0.19,0.19 0 0 0 0.083,0.037 c 0.036,-0.002 0.43,-0.482 0.43,-0.524 0,-0.053 -0.227,-0.967 -0.244,-0.985 a 0.491,0.491 0 0 0 -0.178,0.017 c -0.25,0.052 -0.406,0.008 -0.553,-0.154 -0.13,-0.143 -0.156,-0.381 -0.054,-0.49 0.102,-0.11 0.11,-0.11 0.837,-0.11 0.639,0 0.68,0.002 0.744,0.04 0.133,0.082 0.185,0.243 0.119,0.37 -0.06,0.117 -0.136,0.157 -0.393,0.21 -0.133,0.027 -0.245,0.06 -0.25,0.07 -0.003,0.012 0.028,0.151 0.07,0.31 l 0.078,0.289 1.442,0.005 c 0.805,0.003 1.45,-0.003 1.46,-0.013 0.01,-0.01 0,-0.081 -0.027,-0.165 -0.039,-0.129 -0.041,-0.16 -0.02,-0.248 a 0.477,0.477 0 0 1 0.234,-0.297 c 0.08,-0.043 0.113,-0.046 0.468,-0.046 0.376,0 0.383,10e-4 0.499,0.058 0.14,0.068 0.229,0.18 0.265,0.327 0.08,0.335 -0.167,0.636 -0.52,0.636 -0.154,0 -0.226,-0.094 -0.152,-0.199 0.022,-0.032 0.062,-0.047 0.157,-0.057 0.101,-0.012 0.14,-0.027 0.186,-0.073 0.11,-0.11 0.105,-0.266 -0.014,-0.37 l -0.072,-0.064 h -0.33 c -0.334,0 -0.393,0.01 -0.447,0.08 -0.043,0.056 -0.03,0.125 0.074,0.393 l 0.19,0.492 c 0.08,0.21 0.093,0.233 0.131,0.221 0.187,-0.054 0.392,-0.076 0.62,-0.067 a 1.96,1.96 0 0 1 1.872,1.943 c 0,0.282 -0.028,0.437 -0.13,0.709 a 2.012,2.012 0 0 1 -0.998,1.085 2.55,2.55 0 0 1 -0.29,0.107 c -0.169,0.051 -0.217,0.056 -0.526,0.057 -0.293,10e-4 -0.364,-0.005 -0.515,-0.046 a 1.963,1.963 0 0 1 -1.138,-2.974 c 0.17,-0.261 0.463,-0.529 0.72,-0.658 0.048,-0.024 0.087,-0.055 0.087,-0.069 -0.002,-0.047 -0.133,-0.352 -0.154,-0.36 -0.011,-0.003 -0.47,0.444 -1.02,0.994 l -0.999,0.999 0.035,0.11 c 0.076,0.24 0.021,0.483 -0.141,0.633 -0.05,0.046 -0.092,0.096 -0.092,0.11 0,0.014 0.029,0.111 0.064,0.216 l 0.063,0.19 h 0.108 c 0.087,0 0.118,0.01 0.153,0.048 0.078,0.083 0.045,0.184 -0.068,0.212 a 2.144,2.144 0 0 1 -0.3,0.005 c -0.22,-0.006 -0.254,-0.012 -0.28,-0.047 -0.056,-0.077 -0.017,-0.19 0.077,-0.222 0.023,-0.008 0.018,-0.041 -0.024,-0.173 l -0.053,-0.163 -0.117,-0.014 c -0.113,-0.015 -0.267,-0.077 -0.293,-0.12 -0.03,-0.049 -0.066,-0.01 -0.119,0.131 -0.197,0.527 -0.726,0.993 -1.304,1.15 -0.217,0.058 -0.698,0.073 -0.898,0.029 z m 0.784,-0.266 a 1.763,1.763 0 0 0 1.236,-1.174 c 0.07,-0.232 0.07,-0.234 -0.113,-0.251 a 0.46,0.46 0 0 0 -0.173,0.003 0.477,0.477 0 0 0 -0.041,0.12 1.567,1.567 0 0 1 -0.317,0.56 1.577,1.577 0 0 1 -0.523,0.356 c -0.26,0.102 -0.676,0.1 -0.936,-0.005 -0.548,-0.221 -0.874,-0.697 -0.872,-1.271 0,-0.327 0.093,-0.593 0.29,-0.835 a 1.324,1.324 0 0 1 1.046,-0.506 c 0.194,0 0.259,0.03 0.259,0.122 0,0.094 -0.051,0.12 -0.268,0.132 a 1.113,1.113 0 0 0 -0.778,0.35 1.083,1.083 0 0 0 0.035,1.516 c 0.157,0.152 0.313,0.236 0.53,0.284 0.267,0.06 0.59,0.004 0.816,-0.14 0.16,-0.1 0.334,-0.307 0.406,-0.48 0.053,-0.127 0.08,-0.236 0.058,-0.237 l -0.545,-0.04 a 4.97,4.97 0 0 1 -0.582,-0.062 c -0.066,-0.036 -0.056,-0.138 0.024,-0.24 0.037,-0.048 0.215,-0.265 0.397,-0.483 a 50.919,50.919 0 0 0 0.541,-0.656 l 0.089,-0.103 -0.051,-0.04 a 1.843,1.843 0 0 0 -0.485,-0.222 2.098,2.098 0 0 0 -0.763,-0.022 c -0.56,0.098 -1.045,0.506 -1.266,1.065 -0.082,0.208 -0.101,0.318 -0.101,0.597 0,0.325 0.038,0.494 0.17,0.755 0.137,0.267 0.293,0.455 0.518,0.621 0.189,0.14 0.469,0.26 0.708,0.307 0.175,0.033 0.53,0.022 0.691,-0.022 z m 5.806,-0.002 c 0.297,-0.08 0.608,-0.255 0.799,-0.451 0.223,-0.23 0.4,-0.54 0.461,-0.813 a 2.41,2.41 0 0 0 0.01,-0.756 1.852,1.852 0 0 0 -0.423,-0.79 1.673,1.673 0 0 0 -1.23,-0.542 c -0.163,0 -0.455,0.037 -0.48,0.061 -0.009,0.009 0.022,0.113 0.069,0.23 0.047,0.118 0.141,0.363 0.21,0.545 0.33,0.87 0.343,0.916 0.265,0.958 -0.06,0.032 -0.135,0.026 -0.17,-0.015 a 2.611,2.611 0 0 1 -0.15,-0.345 c -0.21,-0.557 -0.264,-0.691 -0.279,-0.691 -0.075,0 -0.368,0.285 -0.44,0.429 a 1.904,1.904 0 0 0 -0.126,0.417 c -0.019,0.14 0.022,0.376 0.096,0.552 a 0.808,0.808 0 0 0 0.221,0.314 c 0.221,0.221 0.474,0.328 0.777,0.33 0.137,0 0.398,-0.068 0.524,-0.137 0.408,-0.222 0.643,-0.762 0.526,-1.21 a 1.116,1.116 0 0 0 -0.79,-0.799 c -0.147,-0.044 -0.19,-0.08 -0.19,-0.156 0,-0.06 0.063,-0.111 0.135,-0.111 0.092,0 0.33,0.075 0.442,0.14 0.436,0.249 0.685,0.677 0.688,1.18 a 1.34,1.34 0 0 1 -1.519,1.343 1.382,1.382 0 0 1 -1.11,-0.917 1.641,1.641 0 0 1 -0.032,-0.708 c 0.066,-0.346 0.31,-0.689 0.623,-0.873 a 5.74,5.74 0 0 0 0.088,-0.053 1.738,1.738 0 0 0 -0.121,-0.306 c -0.026,-0.03 -0.326,0.17 -0.464,0.308 a 1.751,1.751 0 0 0 -0.348,0.494 c -0.112,0.242 -0.138,0.356 -0.15,0.65 -0.009,0.242 -0.005,0.304 0.033,0.454 a 1.758,1.758 0 0 0 1.39,1.298 c 0.147,0.026 0.514,0.01 0.665,-0.03 z m -3.75,-1.218 a 0.413,0.413 0 0 0 0.161,-0.247 c 0.016,-0.106 -0.053,-0.248 -0.154,-0.316 -0.061,-0.04 -0.092,-0.047 -0.194,-0.04 -0.11,0.008 -0.129,0.016 -0.2,0.093 -0.13,0.14 -0.13,0.325 0.003,0.458 a 0.315,0.315 0 0 0 0.384,0.052 z m -0.763,-0.623 a 1.394,1.394 0 0 0 -0.169,-0.567 c -0.09,-0.184 -0.286,-0.449 -0.331,-0.449 -0.023,0 -0.163,0.154 -0.202,0.221 -0.01,0.014 0.027,0.08 0.082,0.155 0.147,0.198 0.226,0.38 0.257,0.589 a 0.62,0.62 0 0 0 0.048,0.195 c 0.013,0.008 0.091,0.015 0.175,0.016 h 0.153 z m -0.618,0.02 a 1.142,1.142 0 0 0 -0.2,-0.486 l -0.08,-0.097 -0.092,0.109 c -0.263,0.31 -0.406,0.488 -0.406,0.507 0,0.011 0.09,0.026 0.201,0.034 0.11,0.007 0.224,0.016 0.253,0.02 0.028,0.003 0.115,0.007 0.193,0.008 l 0.142,0.003 z m 0.93,-0.233 a 7.314,7.314 0 0 0 -0.147,-0.658 l -0.166,-0.665 c -0.008,-0.032 -0.022,-0.057 -0.031,-0.057 -0.021,0 -0.292,0.318 -0.291,0.343 0,0.01 0.053,0.08 0.118,0.155 0.21,0.243 0.331,0.49 0.451,0.921 0.012,0.044 0.059,0.016 0.065,-0.04 z m 1.581,-0.925 c 0.528,-0.526 0.96,-0.965 0.96,-0.974 0,-0.01 -0.614,-0.017 -1.364,-0.017 h -1.363 l 0.014,0.077 c 0.008,0.042 0.06,0.249 0.115,0.459 0.055,0.21 0.11,0.428 0.122,0.484 0.011,0.057 0.064,0.272 0.118,0.478 l 0.096,0.374 0.095,0.013 a 0.512,0.512 0 0 1 0.145,0.041 0.173,0.173 0 0 0 0.077,0.026 c 0.014,-0.002 0.457,-0.434 0.985,-0.96 z m -2.093,-2.113 c 0.199,-0.04 0.394,-0.081 0.433,-0.09 0.044,-0.009 0.072,-0.028 0.072,-0.046 0,-0.027 -0.082,-0.031 -0.618,-0.031 h -0.619 l 0.003,0.072 c 0.003,0.052 0.022,0.088 0.07,0.13 0.06,0.055 0.076,0.06 0.182,0.05 0.064,-0.006 0.278,-0.044 0.477,-0.085 z"
       id="path302" />
  </g>
</svg>
