<?xml version="1.0" encoding="UTF-8" standalone="no"?>
<!-- Created with Inkscape (http://www.inkscape.org/) -->

<svg
   width="8.4340439mm"
   height="7.4116673mm"
   viewBox="0 0 8.4340443 7.4116672"
   version="1.1"
   id="svg1"
   inkscape:export-filename="buscador.svg"
   inkscape:export-xdpi="96"
   inkscape:export-ydpi="96"
   sodipodi:docname="carrito.svg"
   xmlns:inkscape="http://www.inkscape.org/namespaces/inkscape"
   xmlns:sodipodi="http://sodipodi.sourceforge.net/DTD/sodipodi-0.dtd"
   xmlns="http://www.w3.org/2000/svg"
   xmlns:svg="http://www.w3.org/2000/svg">
  <sodipodi:namedview
     id="namedview1"
     pagecolor="#ffffff"
     bordercolor="#000000"
     borderopacity="0.25"
     inkscape:showpageshadow="2"
     inkscape:pageopacity="0.0"
     inkscape:pagecheckerboard="0"
     inkscape:deskcolor="#d1d1d1"
     inkscape:document-units="mm"
     showgrid="false" />
  <defs
     id="defs1" />
  <g
     inkscape:label="Capa 1"
     inkscape:groupmode="layer"
     id="layer1"
     transform="translate(-115.93952,-142.67881)">
    <path
       style="fill:#00ae00;fill-opacity:1;fill-rule:evenodd;stroke:none;stroke-width:0.0146719;stroke-linecap:round;stroke-linejoin:round;stroke-opacity:1"
       d="m 118.99556,150.07381 a 0.74,0.74 0 0 1 -0.032,-1.437 l 0.099,-0.025 -0.283,-0.007 c -0.219,-0.006 -0.3,-0.013 -0.357,-0.034 a 0.744,0.744 0 0 1 -0.497,-0.81 0.753,0.753 0 0 1 0.34,-0.52 c 0.048,-0.032 0.086,-0.066 0.086,-0.075 0,-0.021 -0.255,-1.186 -0.413,-1.881 l -0.138,-0.62 a 75.179,75.179 0 0 0 -0.33,-1.47 c -0.006,-0.024 -0.06,-0.027 -0.693,-0.03 -0.665,-0.005 -0.687,-0.006 -0.728,-0.036 -0.15,-0.113 -0.146,-0.33 0.008,-0.417 0.06,-0.033 0.065,-0.033 0.864,-0.033 0.772,0 0.808,0 0.864,0.03 0.09,0.046 0.124,0.136 0.218,0.57 l 0.081,0.378 h 6.084 l 0.068,0.034 c 0.088,0.044 0.137,0.118 0.137,0.204 0,0.072 -0.082,0.376 -0.397,1.466 a 433.71,433.71 0 0 0 -0.514,1.802 c -0.09,0.32 -0.113,0.368 -0.19,0.413 -0.052,0.031 -0.074,0.032 -2.368,0.04 l -2.315,0.007 -0.058,0.036 a 0.265,0.265 0 0 0 -0.118,0.209 c 0,0.077 0.05,0.166 0.118,0.208 l 0.058,0.036 2.325,0.008 c 2.318,0.008 2.326,0.008 2.37,0.04 a 0.35,0.35 0 0 1 0.111,0.205 0.29,0.29 0 0 1 -0.13,0.21 c -0.055,0.03 -0.083,0.034 -0.29,0.035 -0.23,10e-4 -0.23,10e-4 -0.147,0.023 a 0.753,0.753 0 0 1 0.553,0.822 0.75,0.75 0 0 1 -0.553,0.613 0.734,0.734 0 0 1 -0.915,-0.713 c 0,-0.345 0.255,-0.665 0.582,-0.73 0.04,-0.007 -0.618,-0.013 -1.591,-0.013 -1.625,0 -1.656,0 -1.559,0.027 a 0.74,0.74 0 0 1 0.456,1.068 0.906,0.906 0 0 1 -0.303,0.3 0.814,0.814 0 0 1 -0.503,0.068 z m 0.289,-0.516 c 0.145,-0.107 0.144,-0.325 -0.004,-0.415 a 0.29,0.29 0 0 0 -0.24,-0.008 0.25,0.25 0 0 0 -0.125,0.288 0.336,0.336 0 0 0 0.154,0.163 0.287,0.287 0 0 0 0.214,-0.028 z m 3.463,0.015 a 0.23,0.23 0 0 0 0.14,-0.207 c 0.017,-0.248 -0.293,-0.349 -0.444,-0.144 -0.079,0.106 -0.031,0.28 0.094,0.345 0.082,0.042 0.127,0.043 0.21,0.006 z m 0.633,-3.933 0.422,-1.479 h -5.604 l 0.008,0.034 0.32,1.443 0.323,1.449 0.01,0.04 2.05,-0.005 2.049,-0.004 z"
       id="path291"
       inkscape:export-filename="carrito-verde.svg"
       inkscape:export-xdpi="96"
       inkscape:export-ydpi="96" />
  </g>
</svg>
