<?xml version="1.0" encoding="UTF-8" standalone="no"?>
<!-- Created with Inkscape (http://www.inkscape.org/) -->

<svg
   width="7.8406124mm"
   height="7.8542147mm"
   viewBox="0 0 7.8406124 7.8542147"
   version="1.1"
   id="svg1"
   xmlns="http://www.w3.org/2000/svg"
   xmlns:svg="http://www.w3.org/2000/svg">
  <defs
     id="defs1" />
  <g
     id="layer16"
     transform="translate(-420.70511,43.401642)">
    <g
       style="fill:#ffffff;fill-opacity:1"
       id="g307"
       transform="translate(-109.12736,343.27294)">
      <path
         style="opacity:1;fill:#ffffff;fill-opacity:1;fill-rule:evenodd;stroke:none;stroke-width:0.304337;stroke-linecap:square;stroke-dasharray:none;stroke-opacity:1"
         d="m -773.36,-186.256 c -5.062,-0.937 -9.381,-3.916 -12.078,-8.33 -0.486,-0.795 -1.007,-1.833 -1.159,-2.306 -0.151,-0.474 -0.36,-0.968 -0.462,-1.098 -0.103,-0.13 -0.407,-1.553 -0.676,-3.162 l -0.49,-2.926 -1.182,-1.036 c -0.65,-0.57 -1.381,-1.23 -1.625,-1.467 a 45.148,45.148 0 0 0 -1.182,-1.085 c -0.406,-0.36 -1.804,-1.607 -3.107,-2.773 a 881.778,881.778 0 0 0 -3.014,-2.689 c -0.927,-0.817 -5.147,-4.618 -5.275,-4.751 -0.059,-0.062 -0.546,-0.5 -1.082,-0.974 a 408.238,408.238 0 0 1 -3.015,-2.712 c -6.049,-5.49 -7.44,-6.67 -7.743,-6.574 -0.178,0.056 -1.05,0.406 -1.939,0.779 -7.973,3.343 -17.543,4.089 -26.02,2.028 -17.477,-4.247 -30.298,-18.611 -32.558,-36.474 -0.238,-1.88 -0.224,-8.327 0.022,-10.334 0.216,-1.761 0.828,-4.747 1.39,-6.782 0.32,-1.158 2.054,-5.723 2.492,-6.56 2.057,-3.929 3.209,-5.693 5.695,-8.726 4.903,-5.982 11.994,-10.871 19.052,-13.135 1.007,-0.323 2.024,-0.673 2.261,-0.777 0.237,-0.105 1.206,-0.345 2.153,-0.534 l 2.907,-0.581 c 1.632,-0.328 11.61,-0.314 13.133,0.018 0.651,0.142 1.862,0.395 2.691,0.562 1.473,0.296 4.094,1.05 4.952,1.425 0.237,0.104 1.206,0.49 2.153,0.86 7.703,3 15.76,9.94 20.175,17.378 2.884,4.858 4.678,9.718 5.464,14.807 0.165,1.065 0.397,2.476 0.517,3.134 0.285,1.563 0.28,6.471 -0.008,8.326 -0.778,5.016 -1.264,7.391 -1.707,8.347 -0.11,0.237 -0.318,0.867 -0.463,1.4 -0.144,0.533 -0.341,1.074 -0.437,1.202 -0.096,0.13 -0.31,0.614 -0.473,1.077 a 24.84,24.84 0 0 1 -0.864,2.013 c -0.311,0.644 -0.566,1.235 -0.566,1.314 0,0.08 0.75,1.016 1.669,2.083 a 644.283,644.283 0 0 1 4.252,5.02 370.44,370.44 0 0 0 3.014,3.565 c 0.237,0.267 0.576,0.665 0.753,0.884 0.83,1.027 3.566,4.276 3.682,4.372 0.071,0.059 1.08,1.27 2.242,2.691 1.162,1.421 2.172,2.632 2.244,2.691 0.071,0.06 1.026,1.19 2.12,2.512 l 1.991,2.404 2.419,-0.112 c 5.09,-0.236 9.64,1.477 13.158,4.954 1.588,1.569 2.445,2.782 3.606,5.102 1.118,2.233 1.536,4.064 1.637,7.168 0.13,3.951 -0.718,6.859 -3,10.287 -1.815,2.729 -4.326,4.871 -7.179,6.125 l -1.712,0.755 c -0.665,0.295 -5.075,1.07 -5.921,1.04 -0.415,-0.015 -1.723,-0.206 -2.907,-0.425 z m 7.105,-4.758 c 1.197,-0.388 3.17,-1.375 3.933,-1.967 1.481,-1.147 3.101,-3.11 3.89,-4.713 1.113,-2.258 1.317,-3.183 1.317,-5.98 0,-2.782 -0.2,-3.681 -1.327,-5.99 -0.81,-1.656 -2.401,-3.588 -3.902,-4.735 -0.827,-0.633 -3.7,-1.967 -4.698,-2.18 -1.343,-0.289 -5.149,-0.288 -6.426,0 -3.705,0.838 -7.989,4.556 -9.039,7.845 -0.15,0.473 -0.352,0.96 -0.447,1.08 -0.426,0.543 -0.674,3.975 -0.423,5.859 0.138,1.033 0.328,1.978 0.423,2.099 0.095,0.12 0.29,0.586 0.435,1.034 0.954,2.963 4.094,6.04 7.603,7.45 2.263,0.91 6.194,1 8.661,0.198 z m -20.638,-18.635 c 0.27,-0.815 1.41,-3.11 1.923,-3.876 1.492,-2.223 3.37,-3.908 6.398,-5.74 l 0.602,-0.364 -0.888,-1.12 a 47.143,47.143 0 0 0 -1.47,-1.764 133.21,133.21 0 0 1 -2.276,-2.691 c -0.931,-1.125 -1.754,-2.094 -1.827,-2.153 -0.073,-0.06 -1.05,-1.222 -2.17,-2.584 -1.12,-1.362 -2.102,-2.524 -2.181,-2.584 -0.08,-0.059 -0.615,-0.695 -1.189,-1.412 a 158.935,158.935 0 0 0 -2.69,-3.23 951.509,951.509 0 0 1 -3.734,-4.4 945.882,945.882 0 0 0 -3.007,-3.553 290.838,290.838 0 0 1 -2.604,-3.122 c -0.926,-1.125 -1.74,-2.093 -1.807,-2.153 -0.068,-0.059 -1.086,-1.27 -2.263,-2.69 -1.177,-1.422 -2.195,-2.633 -2.26,-2.692 -0.113,-0.1 -1.813,-2.121 -6.254,-7.435 a 1791.703,1791.703 0 0 0 -4.521,-5.379 545.174,545.174 0 0 1 -3.408,-4.066 c -0.394,-0.483 -0.783,-0.927 -0.864,-0.988 -0.081,-0.06 -0.553,-0.601 -1.048,-1.202 -0.983,-1.193 -2.887,-2.596 -4.474,-3.298 -2.509,-1.11 -6.826,-1.089 -9.368,0.045 -2.567,1.145 -5.308,3.793 -6.17,5.96 -0.165,0.414 -0.39,0.915 -0.5,1.112 -0.405,0.725 -0.706,3.308 -0.584,5.01 0.266,3.726 1.636,6.025 5.767,9.68 0.522,0.463 2.402,2.151 4.178,3.753 a 100821.78,100821.78 0 0 0 7.083,6.389 c 0.13,0.118 1.11,0.99 2.175,1.937 1.066,0.948 1.986,1.78 2.045,1.849 0.06,0.07 2.482,2.241 5.383,4.826 2.901,2.584 5.323,4.765 5.383,4.845 0.086,0.116 5.387,4.877 9.457,8.494 0.406,0.36 0.894,0.8 1.085,0.978 0.19,0.178 1.21,1.098 2.265,2.046 1.055,0.947 2.075,1.867 2.268,2.045 0.192,0.178 0.682,0.616 1.088,0.975 0.405,0.359 2.24,2.004 4.075,3.656 l 4.18,3.762 c 0.464,0.416 0.994,0.927 1.179,1.134 0.184,0.207 0.461,0.377 0.616,0.377 0.155,0 0.338,-0.17 0.407,-0.377 z m -44.06,-25.987 c 0,-5.675 -0.055,-7.019 -0.294,-7.159 -0.348,-0.204 -3.498,-3.02 -3.985,-3.563 -0.186,-0.207 -0.413,-0.377 -0.505,-0.377 -0.092,0 -0.168,4.07 -0.168,9.043 v 9.043 h 4.952 z m -9.525,-3.835 c 0.044,-7.955 0,-10.062 -0.214,-10.062 -0.28,0 -14.375,13.979 -14.375,14.256 0,0.087 0.267,0.308 0.593,0.493 0.325,0.184 0.882,0.524 1.238,0.755 0.781,0.51 4.916,2.58 5.15,2.58 0.092,0 0.472,0.141 0.845,0.313 1.659,0.762 5.642,1.866 6.384,1.77 0.281,-0.037 0.33,-1.351 0.38,-10.105 z m 15.363,9.96 c 1.464,-0.274 4.753,-1.275 5.024,-1.53 0.113,-0.105 0.379,-0.192 0.592,-0.192 0.774,0 0.348,-0.633 -1.614,-2.398 -4.332,-3.897 -4.906,-4.384 -5.161,-4.384 -0.199,0 -0.28,1.028 -0.324,4.084 -0.054,3.724 -0.007,4.636 0.238,4.636 0.047,0 0.607,-0.098 1.245,-0.217 z m -25.808,-16.307 c 4.115,-4.115 7.483,-7.555 7.483,-7.646 0,-0.09 -0.779,-0.959 -1.73,-1.93 l -1.73,-1.765 -7.636,7.633 c -4.2,4.198 -7.635,7.73 -7.634,7.85 0.002,0.33 3.126,3.338 3.466,3.338 0.164,0 3.665,-3.366 7.78,-7.48 z m -6.89,-6.675 c 3.879,-3.877 7.052,-7.124 7.052,-7.214 0,-0.09 -4.577,-0.14 -10.172,-0.11 l -10.173,0.057 0.073,0.646 c 0.132,1.164 1.518,5.673 2.183,7.105 0.11,0.236 0.346,0.77 0.524,1.184 0.819,1.902 2.896,5.382 3.213,5.382 0.137,0 3.421,-3.172 7.3,-7.05 z m 59.756,0.312 c 0.13,-0.38 0.489,-1.416 0.798,-2.304 0.655,-1.878 1.407,-5.09 1.233,-5.263 -0.192,-0.192 -9.737,-0.138 -9.737,0.055 0,0.096 0.173,0.362 0.385,0.592 0.212,0.23 1.148,1.336 2.081,2.46 0.933,1.123 1.805,2.15 1.937,2.283 0.132,0.132 0.757,0.877 1.388,1.655 0.631,0.778 1.267,1.369 1.413,1.313 0.146,-0.056 0.372,-0.412 0.502,-0.791 z m -51.93,-14.738 -0.03,-2.53 -10.437,-0.06 c -5.74,-0.032 -10.655,-0.006 -10.922,0.058 -0.465,0.113 -0.484,0.21 -0.484,2.446 0,1.28 0.065,2.393 0.144,2.472 0.078,0.08 5.007,0.144 10.952,0.144 h 10.809 z m 54.727,0 -0.06,-2.53 h -9.15 c -6.997,0 -9.151,0.061 -9.151,0.26 0,0.142 0.857,1.28 1.904,2.53 l 1.904,2.27 h 14.614 z m -55.5,-7.167 c 0,-0.225 -14.091,-14.417 -14.315,-14.417 -0.437,0 -3.972,6.615 -4.327,8.097 -0.082,0.342 -0.22,0.72 -0.307,0.838 -0.148,0.201 -1.116,3.618 -1.38,4.866 -0.064,0.308 -0.054,0.623 0.022,0.7 0.247,0.247 20.306,0.164 20.306,-0.084 z m 54.901,0.139 c 0,-0.341 -0.707,-3.555 -0.858,-3.898 a 13.24,13.24 0 0 1 -0.434,-1.292 13.472,13.472 0 0 0 -0.433,-1.292 c -0.103,-0.237 -0.496,-1.157 -0.874,-2.045 -0.704,-1.655 -2.455,-4.85 -2.917,-5.325 a 1.926,1.926 0 0 1 -0.362,-0.539 c -0.098,-0.259 -14.575,13.958 -14.575,14.313 0,0.09 4.602,0.163 10.226,0.163 5.625,0 10.227,-0.039 10.227,-0.085 z m -49.272,-4.671 1.758,-1.741 -7.622,-7.625 c -4.192,-4.193 -7.677,-7.624 -7.745,-7.624 -0.21,0 -3.431,3.264 -3.431,3.476 0,0.224 14.871,15.207 15.123,15.237 0.088,0.01 0.95,-0.765 1.917,-1.723 z m 32.773,-5.765 c 6.033,-6.035 7.478,-7.589 7.37,-7.926 -0.144,-0.455 -2.969,-3.299 -3.276,-3.299 -0.29,0 -15.153,14.928 -15.153,15.22 0,0.306 3.023,3.471 3.338,3.495 0.119,0.009 3.593,-3.362 7.72,-7.49 z m -18.595,-9.854 v -10.794 l -0.484,-0.13 c -0.633,-0.17 -3.689,-0.173 -4.127,-0.005 -0.304,0.117 -0.34,1.281 -0.34,10.927 v 10.796 h 4.95 v -10.794 z m -9.473,-0.079 v -10.12 h -0.717 c -1.341,0 -5.993,1.556 -9.08,3.036 -2.104,1.01 -4.844,2.661 -4.844,2.92 0,0.264 14.1,14.283 14.366,14.283 0.22,0 0.275,-2.055 0.275,-10.119 z m 21.367,3.07 c 3.88,-3.878 7.053,-7.165 7.053,-7.305 0,-0.442 -5.294,-3.287 -7.967,-4.28 a 39.015,39.015 0 0 0 -2.26,-0.733 c -0.71,-0.205 -1.463,-0.447 -1.673,-0.539 -0.209,-0.091 -0.887,-0.179 -1.507,-0.195 l -1.126,-0.03 -0.056,10.066 c -0.044,7.957 0,10.065 0.214,10.065 0.148,0 3.443,-3.172 7.322,-7.05 z"
         transform="matrix(0.05495,0,0,0.05495,579.03,-368.609)"
         id="path305" />
      <path
         style="opacity:1;fill:#ffffff;fill-opacity:1;fill-rule:evenodd;stroke:none;stroke-width:0.304337;stroke-linecap:square;stroke-dasharray:none;stroke-opacity:1"
         d="m -838.434,-205.18 c -1.874,-0.398 -2.532,-1.26 -4.577,-6.005 -0.377,-0.874 -0.852,-1.889 -1.057,-2.255 -0.386,-0.691 -0.432,-0.71 -3.2,-1.328 l -1.566,-0.35 -1.338,1.147 c -0.736,0.63 -1.66,1.435 -2.055,1.787 -2.488,2.222 -4.087,2.97 -5.557,2.601 -0.812,-0.203 -6.315,-2.88 -6.951,-3.38 -0.293,-0.23 -0.753,-0.777 -1.023,-1.216 -0.468,-0.761 -0.491,-1.004 -0.497,-5.142 l -0.007,-4.344 -0.639,-0.5 a 43.576,43.576 0 0 1 -1.56,-1.317 c -0.772,-0.681 -1.047,-0.801 -1.677,-0.73 -0.842,0.097 -3.067,0.638 -5.136,1.25 -2.55,0.753 -3.988,0.518 -5.38,-0.879 -1.702,-1.707 -4.288,-5.261 -4.558,-6.265 -0.393,-1.458 -0.102,-2.48 1.737,-6.094 l 1.718,-3.377 -1.026,-2.094 -1.026,-2.095 -1.292,-0.25 c -0.71,-0.138 -2.164,-0.416 -3.23,-0.619 -4.748,-0.902 -5.165,-1.35 -6.401,-6.882 -1.138,-5.093 -1.09,-5.193 4.649,-9.537 l 2.075,-1.571 v -2.353 c 0,-2.332 -0.005,-2.357 -0.592,-2.73 -0.326,-0.206 -1.331,-0.96 -2.235,-1.673 a 91.495,91.495 0 0 0 -2.245,-1.728 c -2.064,-1.478 -2.602,-3.09 -1.952,-5.85 0.162,-0.69 0.52,-2.222 0.794,-3.403 0.796,-3.429 1.68,-4.129 6.23,-4.935 4.068,-0.721 4.264,-0.79 4.657,-1.626 0.197,-0.42 0.638,-1.345 0.98,-2.055 l 0.622,-1.292 -1.748,-3.479 c -1.857,-3.698 -2.116,-4.603 -1.726,-6.05 0.349,-1.294 4.47,-6.453 5.677,-7.104 0.98,-0.528 2.195,-0.619 3.381,-0.25 0.414,0.128 1.479,0.414 2.367,0.635 0.888,0.222 2.173,0.544 2.855,0.717 l 1.24,0.314 1.667,-1.333 1.666,-1.333 0.108,-4.407 c 0.12,-4.918 0.2,-5.232 1.659,-6.434 0.444,-0.366 0.87,-0.665 0.949,-0.665 0.078,0 1.388,-0.602 2.911,-1.338 2.986,-1.442 4.139,-1.664 5.374,-1.036 0.568,0.289 4.56,3.48 5.89,4.707 0.599,0.554 0.873,0.547 3.705,-0.096 l 1.435,-0.325 1.232,-2.733 c 0.678,-1.502 1.408,-3.12 1.623,-3.593 0.499,-1.096 0.961,-1.612 1.985,-2.211 0.768,-0.45 1.07,-0.48 4.825,-0.48 3.86,0 4.039,0.02 4.903,0.526 0.752,0.44 2.047,1.952 2.047,2.39 0,0.068 0.253,0.676 0.563,1.35 0.309,0.673 0.75,1.66 0.982,2.193 0.776,1.791 1.12,2.397 1.47,2.584 0.19,0.102 1.195,0.344 2.232,0.539 l 1.885,0.353 0.786,-0.6 c 0.433,-0.33 0.938,-0.749 1.123,-0.93 0.623,-0.614 3.765,-3.145 4.416,-3.558 0.85,-0.54 2.537,-0.555 3.66,-0.034 3.374,1.566 5.76,2.834 6.256,3.328 0.32,0.318 0.771,1.015 1.002,1.547 0.385,0.89 0.406,1.284 0.267,4.853 l -0.151,3.884 1.739,1.42 1.738,1.42 1.249,-0.287 c 2.36,-0.544 4.049,-0.982 4.97,-1.291 1.308,-0.44 2.54,-0.385 3.633,0.16 1.015,0.507 1.328,0.843 3.941,4.218 2.601,3.36 2.605,4.096 0.043,9.091 l -1.71,3.337 0.998,2.031 1,2.031 1.076,0.275 c 0.592,0.152 1.949,0.43 3.014,0.62 3.107,0.552 4.083,0.902 5.007,1.8 0.754,0.73 0.895,1.048 1.403,3.164 1.143,4.765 1.244,5.807 0.692,7.128 -0.41,0.982 -0.88,1.418 -4.25,3.943 l -2.73,2.046 -0.006,2.296 -0.007,2.296 1.13,0.822 c 0.622,0.453 1.227,0.898 1.346,0.99 0.118,0.09 0.845,0.65 1.614,1.244 3.784,2.917 3.83,3.15 2.087,10.704 -0.367,1.591 -1.144,2.695 -2.321,3.295 -0.47,0.24 -1.894,0.634 -3.163,0.876 -1.27,0.242 -3.035,0.577 -3.923,0.744 -2.544,0.48 -3.66,-0.117 -3.66,-1.96 0,-0.683 0.133,-1.006 0.592,-1.435 0.601,-0.563 1.55,-0.821 5.867,-1.594 1.007,-0.18 1.938,-0.443 2.07,-0.584 0.228,-0.24 0.335,-0.652 1.038,-3.97 l 0.285,-1.346 -3.308,-2.488 c -1.82,-1.369 -3.455,-2.698 -3.634,-2.954 -0.264,-0.377 -0.326,-1.26 -0.326,-4.644 v -4.18 l 0.918,-0.886 c 0.505,-0.488 1.821,-1.565 2.926,-2.394 1.865,-1.399 2.56,-1.937 3.183,-2.458 0.183,-0.153 0.166,-0.553 -0.066,-1.565 a 119.15,119.15 0 0 1 -0.569,-2.642 c -0.292,-1.461 -0.026,-1.316 -3.809,-2.068 -4.399,-0.874 -4.986,-1.027 -5.407,-1.409 -0.645,-0.583 -3.456,-6.508 -3.58,-7.544 -0.11,-0.925 0.146,-1.52 2.918,-6.781 1.001,-1.9 1.107,-1.52 -1.207,-4.329 -1.105,-1.342 -1.464,-1.647 -1.839,-1.56 a 153.11,153.11 0 0 0 -4.88,1.223 c -2.406,0.651 -3.555,0.723 -4.257,0.268 -1.388,-0.9 -5.797,-4.63 -6.065,-5.131 -0.233,-0.435 -0.268,-1.44 -0.167,-4.85 l 0.126,-4.3 -2.267,-1.105 c -2.528,-1.232 -2.79,-1.242 -3.947,-0.155 -1.119,1.05 -4.551,3.906 -5.233,4.352 -0.518,0.34 -0.747,0.36 -1.825,0.152 -2.03,-0.39 -4.853,-1.04 -6.146,-1.415 l -1.214,-0.353 -0.884,-1.88 a 239.124,239.124 0 0 1 -1.272,-2.74 c -1.232,-2.74 -1.594,-3.46 -1.81,-3.602 -0.132,-0.087 -1.306,-0.158 -2.608,-0.158 -1.303,0 -2.47,0.07 -2.595,0.158 -0.22,0.153 -0.39,0.487 -1.39,2.741 -2.476,5.577 -2.288,5.303 -4.015,5.845 -1.934,0.605 -6.145,1.583 -6.82,1.583 -0.45,0 -3.495,-2.192 -4.342,-3.126 -0.678,-0.748 -2.909,-2.471 -3.198,-2.471 -0.188,0 -0.95,0.298 -1.694,0.664 -0.743,0.365 -1.69,0.825 -2.105,1.023 -0.415,0.197 -0.83,0.455 -0.922,0.573 -0.092,0.119 -0.103,2.126 -0.024,4.46 0.126,3.748 0.101,4.31 -0.214,4.791 -0.196,0.3 -1.3,1.286 -2.451,2.192 -1.152,0.906 -2.193,1.754 -2.312,1.884 -0.12,0.13 -0.528,0.455 -0.907,0.722 -0.735,0.517 -2.324,0.663 -3.023,0.278 -0.206,-0.114 -1.004,-0.352 -1.773,-0.53 -0.77,-0.177 -2.175,-0.517 -3.122,-0.755 -0.948,-0.237 -1.785,-0.435 -1.86,-0.44 -0.198,-0.01 -3.415,4.024 -3.415,4.282 0,0.118 0.823,1.819 1.83,3.779 1.424,2.773 1.83,3.76 1.83,4.45 0,0.653 -0.371,1.654 -1.4,3.778 -0.77,1.59 -1.399,2.963 -1.399,3.053 0,0.09 -0.282,0.434 -0.628,0.764 -0.445,0.427 -1.054,0.69 -2.099,0.908 a 831.852,831.852 0 0 1 -6.357,1.305 c -0.481,0.092 -0.62,0.28 -0.822,1.11 -0.427,1.759 -0.843,3.789 -0.851,4.15 -0.005,0.205 1.273,1.315 3.06,2.66 1.687,1.271 3.286,2.567 3.551,2.88 0.466,0.548 0.484,0.724 0.485,4.906 v 4.338 l -0.704,0.614 c -0.387,0.338 -1.986,1.573 -3.552,2.743 -3.147,2.352 -3.038,2.16 -2.506,4.438 0.18,0.77 0.407,1.77 0.505,2.224 0.098,0.454 0.262,0.903 0.365,1 0.103,0.095 1.06,0.326 2.125,0.512 3.85,0.673 6.252,1.254 6.653,1.608 0.695,0.614 3.627,6.934 3.63,7.825 0.003,0.755 -0.628,2.15 -2.935,6.495 -0.43,0.81 -0.781,1.567 -0.781,1.683 0,0.206 0.855,1.42 1.507,2.14 0.177,0.197 0.565,0.668 0.861,1.048 l 0.778,0.998 c 0.208,0.265 0.383,0.263 1.292,-0.013 1.412,-0.428 3.236,-0.898 5.56,-1.434 1.8,-0.415 1.971,-0.421 2.653,-0.096 1.192,0.568 6.085,4.631 6.33,5.256 0.147,0.377 0.173,2.03 0.076,4.816 l -0.148,4.243 2.424,1.193 c 1.334,0.657 2.48,1.194 2.549,1.194 0.068,0 0.48,-0.315 0.917,-0.7 0.436,-0.385 0.97,-0.845 1.186,-1.022 0.216,-0.178 1.3,-1.082 2.41,-2.01 2.636,-2.201 2.71,-2.232 4.38,-1.79 0.743,0.196 1.98,0.496 2.75,0.667 4.385,0.974 4.142,0.798 5.576,4.048 0.89,2.015 1.273,2.871 1.833,4.09 l 0.57,1.238 h 2.792 c 1.764,0 2.792,-0.08 2.792,-0.22 0,-0.122 0.42,-1.115 0.931,-2.207 a 142.642,142.642 0 0 0 1.558,-3.446 c 1.088,-2.535 1.382,-2.727 5.37,-3.512 a 32.391,32.391 0 0 0 2.632,-0.641 c 1.5,-0.46 2.099,-0.288 3.63,1.045 0.71,0.618 2.11,1.8 3.112,2.626 1.002,0.827 1.886,1.594 1.964,1.705 0.081,0.115 0.758,-0.092 1.57,-0.48 1.78,-0.85 2.489,-0.866 3.373,-0.076 0.547,0.488 0.679,0.773 0.679,1.466 0,1.31 -0.355,1.732 -2.275,2.706 -1.514,0.767 -1.968,0.898 -3.167,0.91 -1.231,0.014 -1.515,-0.066 -2.368,-0.66 -0.533,-0.37 -1.216,-0.903 -1.52,-1.183 -0.302,-0.28 -1.382,-1.214 -2.4,-2.075 l -1.852,-1.567 -1.474,0.338 c -0.81,0.185 -1.812,0.407 -2.226,0.493 -0.73,0.152 -0.795,0.253 -2.26,3.508 -1.787,3.97 -2.006,4.324 -3.144,5.077 -0.843,0.558 -0.985,0.579 -4.355,0.636 -1.916,0.032 -3.895,-0.029 -4.398,-0.135 z"
         transform="matrix(0.05495,0,0,0.05495,579.03,-368.609)"
         id="path306" />
      <path
         style="opacity:1;fill:#ffffff;fill-opacity:1;fill-rule:evenodd;stroke:none;stroke-width:0.304337;stroke-linecap:square;stroke-dasharray:none;stroke-opacity:1"
         d="m -835.582,-260.268 c -1.844,-0.606 -3.306,-1.93 -4.2,-3.803 -1.26,-2.637 -0.725,-5.63 1.38,-7.735 3.32,-3.321 8.568,-2.56 11.066,1.604 0.533,0.888 0.582,1.156 0.582,3.23 0,2.088 -0.046,2.338 -0.604,3.287 -0.836,1.421 -1.953,2.482 -3.25,3.086 -0.886,0.413 -1.432,0.508 -2.82,0.492 -0.948,-0.01 -1.917,-0.083 -2.154,-0.16 z m 3.329,-4.473 c 0.8,-0.473 1.3,-1.373 1.3,-2.34 0,-0.615 -0.163,-0.96 -0.72,-1.515 -1.21,-1.211 -2.47,-1.247 -3.613,-0.105 -0.523,0.523 -0.619,0.792 -0.619,1.74 0,1.007 0.079,1.196 0.77,1.847 0.878,0.829 1.888,0.96 2.882,0.373 z m 59.446,68.823 c -6.164,-2.274 -7.55,-9.973 -2.536,-14.082 1.632,-1.338 2.789,-1.73 5.105,-1.733 1.768,-0.002 2.214,0.075 3.287,0.573 1.61,0.746 3.423,2.563 4.173,4.182 0.505,1.09 0.583,1.533 0.583,3.304 0,1.775 -0.077,2.213 -0.59,3.318 -0.801,1.732 -2.719,3.589 -4.368,4.232 -1.763,0.688 -4.114,0.773 -5.654,0.206 z m 3.67,-4.212 c 1.262,-0.446 2.045,-1.245 2.468,-2.52 0.329,-0.988 0.327,-1.125 -0.022,-2.064 -0.505,-1.358 -1.235,-2.088 -2.5,-2.502 -0.972,-0.318 -1.144,-0.318 -2.076,-0.002 -1.748,0.591 -2.631,1.781 -2.631,3.544 0,1.69 0.883,2.946 2.485,3.533 1.1,0.403 1.163,0.403 2.275,0.01 z"
         transform="matrix(0.05495,0,0,0.05495,579.03,-368.609)"
         id="path307" />
    </g>
  </g>
</svg>
