<?xml version="1.0" encoding="UTF-8" standalone="no"?>
<!-- Created with Inkscape (http://www.inkscape.org/) -->

<svg
   width="9.2033386mm"
   height="6.8839998mm"
   viewBox="0 0 9.2033386 6.8839998"
   version="1.1"
   id="svg1"
   xmlns="http://www.w3.org/2000/svg"
   xmlns:svg="http://www.w3.org/2000/svg">
  <defs
     id="defs1" />
  <g
     id="layer7"
     transform="translate(-331.31694,43.78448)">
    <g
       id="g313"
       transform="translate(-343.47349,389.31852)">
      <path
         style="fill:#ffffff;fill-opacity:1;fill-rule:evenodd;stroke:none;stroke-width:0.0342662;stroke-linecap:square;stroke-dasharray:none;stroke-opacity:1"
         d="m 675.683,-426.23 0.434,-0.442 c 0.554,-0.563 2.242,-2.293 2.587,-2.65 0.253,-0.262 0.272,-0.276 0.314,-0.24 0.024,0.021 0.238,0.2 0.476,0.396 l 0.431,0.357 0.078,-0.06 c 0.043,-0.033 0.1,-0.08 0.126,-0.105 0.174,-0.161 0.717,-0.615 0.735,-0.615 0.013,0 0.064,0.047 0.115,0.104 0.081,0.09 0.338,0.36 1.429,1.496 a 541.388,541.388 0 0 1 1.055,1.1 c 0.153,0.159 0.289,0.301 0.302,0.317 0.013,0.016 0.095,0.102 0.181,0.191 l 0.157,0.162 h -4.215 c -2.319,0 -4.21,-0.005 -4.205,-0.01 z m 8.59,-0.722 c -0.12,-0.123 -0.474,-0.491 -0.787,-0.818 -0.78,-0.811 -1.173,-1.221 -1.505,-1.564 -0.398,-0.413 -0.59,-0.618 -0.598,-0.64 -0.007,-0.02 0.148,-0.147 1.982,-1.637 l 1.152,-0.935 0.006,2.874 c 0.003,1.582 -0.003,2.89 -0.014,2.91 -0.014,0.026 -0.072,-0.02 -0.236,-0.19 z m -4.461,-2.814 c -0.052,-0.045 -1.006,-0.81 -2.12,-1.7 l -2.034,-1.629 c -0.006,-0.005 1.915,-0.008 4.267,-0.008 h 4.276 l -0.105,0.089 c -0.327,0.274 -4.153,3.329 -4.169,3.329 a 0.478,0.478 0 0 1 -0.115,-0.081 z m -4.482,2.886 c -0.008,-0.083 -0.012,-1.398 -0.008,-2.923 l 0.007,-2.772 1.563,1.278 c 0.86,0.702 1.577,1.29 1.593,1.305 0.023,0.021 -0.05,0.109 -0.315,0.38 -0.19,0.193 -0.66,0.678 -1.047,1.078 -0.386,0.4 -0.872,0.902 -1.08,1.115 -0.207,0.213 -0.44,0.456 -0.52,0.54 -0.078,0.083 -0.15,0.151 -0.16,0.151 -0.01,0 -0.025,-0.068 -0.033,-0.152 z"
         transform="translate(-0.53)"
         id="path313" />
    </g>
  </g>
</svg>
