<?xml version="1.0" encoding="UTF-8" standalone="no"?>
<svg
   width="14.360306"
   height="13.69805"
   viewBox="0 0 3.7994948 3.6242746"
   xml:space="preserve"
   version="1.1"
   id="svg334"
   sodipodi:docname="corazon-vacio.svg"
   inkscape:version="1.4 (86a8ad7, 2024-10-11)"
   xmlns:inkscape="http://www.inkscape.org/namespaces/inkscape"
   xmlns:sodipodi="http://sodipodi.sourceforge.net/DTD/sodipodi-0.dtd"
   xmlns="http://www.w3.org/2000/svg"
   xmlns:svg="http://www.w3.org/2000/svg"><sodipodi:namedview
     id="namedview334"
     pagecolor="#ffffff"
     bordercolor="#000000"
     borderopacity="0.25"
     inkscape:showpageshadow="2"
     inkscape:pageopacity="0.0"
     inkscape:pagecheckerboard="0"
     inkscape:deskcolor="#d1d1d1"
     showgrid="false"
     inkscape:zoom="17.418891"
     inkscape:cx="6.200165"
     inkscape:cy="7.0900035"
     inkscape:window-width="1920"
     inkscape:window-height="1017"
     inkscape:window-x="-8"
     inkscape:window-y="-8"
     inkscape:window-maximized="1"
     inkscape:current-layer="svg334" /><defs
     id="defs1" /><path
     id="path1-2"
     style="fill:none;fill-opacity:1;stroke:#662239;stroke-width:0.141817;stroke-linecap:round;stroke-linejoin:round;stroke-dasharray:none;stroke-opacity:1"
     d="M 2.6814111,0.07108863 C 2.557865,0.07337063 2.4343031,0.09734253 2.3176092,0.14395233 2.195804,0.19260363 2.0839734,0.26538799 1.9837796,0.36151 L 1.8969636,0.444709 1.8282336,0.3744291 C 1.700704,0.24490376 1.5318963,0.14832637 1.3491934,0.10002742 1.2677864,0.07851042 1.2300386,0.07494002 1.0877109,0.07573952 c -0.14754018,8.29e-4 -0.17736408,0.004012 -0.26303298,0.0294556 -0.2466981,0.0732696 -0.4563469,0.22776857 -0.5901445,0.43459856 -0.4054,0.62668412 -0.058575,1.48124442 1.00097188,2.46806492 0.1496022,0.1393337 0.3766359,0.3321569 0.553971,0.4702553 0.059825,0.046589 0.1106856,0.079057 0.1178222,0.074931 C 1.9322265,3.5386339 2.1050976,3.4030436 2.226142,3.3029309 2.5312071,3.0506194 2.8844937,2.7063058 3.0875875,2.4631893 3.7344333,1.6888744 3.8928994,1.0418986 3.5593931,0.53565951 3.4907421,0.43145212 3.3639063,0.30316215 3.2653544,0.23800342 3.0927269,0.12386903 2.8873211,0.06728502 2.6814111,0.07108863 Z" /></svg>
