<?xml version="1.0" encoding="UTF-8" standalone="no"?>
<svg
   width="14.360307"
   height="13.69805"
   viewBox="0 0 3.7994951 3.6242746"
   xml:space="preserve"
   version="1.1"
   id="svg334"
   sodipodi:docname="corazon-relleno.svg"
   inkscape:version="1.4 (86a8ad7, 2024-10-11)"
   xmlns:inkscape="http://www.inkscape.org/namespaces/inkscape"
   xmlns:sodipodi="http://sodipodi.sourceforge.net/DTD/sodipodi-0.dtd"
   xmlns="http://www.w3.org/2000/svg"
   xmlns:svg="http://www.w3.org/2000/svg"><sodipodi:namedview
     id="namedview334"
     pagecolor="#ffffff"
     bordercolor="#000000"
     borderopacity="0.25"
     inkscape:showpageshadow="2"
     inkscape:pageopacity="0.0"
     inkscape:pagecheckerboard="0"
     inkscape:deskcolor="#d1d1d1"
     showgrid="false"
     inkscape:zoom="8.7094456"
     inkscape:cx="9.5298832"
     inkscape:cy="8.3242956"
     inkscape:window-width="1920"
     inkscape:window-height="1017"
     inkscape:window-x="-8"
     inkscape:window-y="-8"
     inkscape:window-maximized="1"
     inkscape:current-layer="svg334" /><defs
     id="defs1" /><path
     id="path1"
     style="fill:#ea4474;fill-opacity:1;stroke:#ea4474;stroke-width:0.141817;stroke-linecap:round;stroke-linejoin:round;stroke-dasharray:none;stroke-opacity:1"
     d="M 2.6814111,0.07108863 C 2.557865,0.0733708 2.4343031,0.0973425 2.3176092,0.14395236 2.195804,0.19260371 2.0839734,0.26538802 1.9837796,0.36151003 l -0.086816,0.083199 -0.06873,-0.0702799 C 1.700704,0.24490376 1.5318963,0.14832637 1.3491934,0.10002742 1.267786,0.07851044 1.2300386,0.07494001 1.0877108,0.07573951 0.94017075,0.07656851 0.91034685,0.07975108 0.82467791,0.10519506 0.57797976,0.17846469 0.36833104,0.33296363 0.23453337,0.53979362 -0.17086662,1.1664779 0.17595827,2.0210382 1.2355053,3.0078587 1.3851075,3.1471924 1.6121412,3.3400156 1.7894763,3.478114 1.8493017,3.5247029 1.9001619,3.5571707 1.9072985,3.5530448 1.9322261,3.5386337 2.1050976,3.4030437 2.226142,3.302931 2.5312071,3.0506195 2.8844938,2.7063059 3.0875876,2.4631894 3.7344334,1.6888745 3.8928995,1.0418987 3.5593932,0.53565951 3.4907422,0.43145212 3.3639064,0.30316215 3.2653545,0.23800342 3.092727,0.12386903 2.8873212,0.06728502 2.6814111,0.07108863 Z" /></svg>
