<?xml version="1.0" encoding="UTF-8" standalone="no"?>
<svg
   width="29.546768"
   height="29.52232"
   viewBox="0 0 7.8175767 7.8111111"
   xml:space="preserve"
   version="1.1"
   id="svg334"
   sodipodi:docname="1 Diseño Pagina a e.svg"
   inkscape:version="1.4 (86a8ad7, 2024-10-11)"
   inkscape:export-batch-path="D:\Tercer Trimestre\Programacion\BikeStore\imgs"
   inkscape:export-batch-name="Iconos Footer BikeStore"
   xmlns:inkscape="http://www.inkscape.org/namespaces/inkscape"
   xmlns:sodipodi="http://sodipodi.sourceforge.net/DTD/sodipodi-0.dtd"
   xmlns="http://www.w3.org/2000/svg"
   xmlns:svg="http://www.w3.org/2000/svg"><sodipodi:namedview
     id="namedview334"
     pagecolor="#ffffff"
     bordercolor="#000000"
     borderopacity="0.25"
     inkscape:showpageshadow="2"
     inkscape:pageopacity="0.0"
     inkscape:pagecheckerboard="0"
     inkscape:deskcolor="#d1d1d1"
     showgrid="false"
     inkscape:zoom="0.54434034"
     inkscape:cx="891.90524"
     inkscape:cy="542.85891"
     inkscape:window-width="1920"
     inkscape:window-height="1017"
     inkscape:window-x="-8"
     inkscape:window-y="-8"
     inkscape:window-maximized="1"
     inkscape:current-layer="svg334"><inkscape:page
       x="0"
       y="0"
       width="7.8175769"
       height="7.811111"
       id="page1"
       margin="0"
       bleed="0" /></sodipodi:namedview><defs
     id="defs1" /><g
     id="g1"
     transform="translate(-83.292015,-1048.8258)"
     inkscape:label="icono correo electronico"><path
       style="fill:#ffffff;fill-opacity:1;fill-rule:evenodd;stroke:none;stroke-width:0.0804477;stroke-linecap:round;stroke-linejoin:round;stroke-dasharray:none;stroke-opacity:1"
       d="m 86.811,1056.626 c -0.661,-0.079 -1.266,-0.29 -1.747,-0.608 a 3.314,3.314 0 0 1 -0.586,-0.476 3.951,3.951 0 0 1 -1.162,-2.345 4.536,4.536 0 0 1 0.02,-1.096 c 0.253,-1.423 1.182,-2.547 2.52,-3.045 a 4.56,4.56 0 0 1 0.737,-0.195 c 0.252,-0.047 0.954,-0.047 1.224,0 a 4.01,4.01 0 0 1 1.547,0.61 3.83,3.83 0 0 1 1.693,2.592 c 0.05,0.275 0.068,0.813 0.038,1.075 -0.141,1.224 -0.764,2.231 -1.792,2.902 -0.449,0.293 -1.067,0.508 -1.666,0.58 -0.149,0.018 -0.696,0.022 -0.826,0.01 z m 0.765,-0.33 c 1.266,-0.138 2.315,-0.873 2.852,-1.997 a 3.608,3.608 0 0 0 -0.452,-3.851 3.64,3.64 0 0 0 -1.876,-1.194 3.643,3.643 0 0 0 -2.466,0.246 3.456,3.456 0 0 0 -1.007,0.743 3.33,3.33 0 0 0 -0.652,0.914 3.605,3.605 0 0 0 0.057,3.26 c 0.255,0.478 0.65,0.93 1.089,1.245 0.326,0.234 0.865,0.471 1.294,0.569 0.35,0.08 0.799,0.105 1.16,0.066 z"
       id="path235" /><path
       style="fill:#ffffff;fill-opacity:1;fill-rule:evenodd;stroke:none;stroke-width:0.0804477;stroke-linecap:round;stroke-linejoin:round;stroke-dasharray:none;stroke-opacity:1"
       d="m 85.007,1054.462 a 0.409,0.409 0 0 1 -0.182,-0.181 c -0.035,-0.068 -0.036,-0.133 -0.036,-1.553 0,-1.42 0.002,-1.486 0.036,-1.553 a 0.368,0.368 0 0 1 0.196,-0.183 c 0.062,-0.026 0.32,-0.03 2.189,-0.03 2.045,0 2.12,0 2.189,0.036 a 0.4,0.4 0 0 1 0.182,0.186 c 0.027,0.055 0.03,0.216 0.03,1.544 0,1.42 -0.001,1.485 -0.036,1.553 a 0.4,0.4 0 0 1 -0.186,0.182 c -0.055,0.028 -0.265,0.03 -2.193,0.03 -1.906,0 -2.138,0 -2.189,-0.03 z m 4.035,-0.31 c 0,-0.01 -0.212,-0.247 -0.47,-0.526 -0.259,-0.28 -0.567,-0.616 -0.686,-0.746 a 4.037,4.037 0 0 0 -0.233,-0.244 0.616,0.616 0 0 0 -0.151,0.092 c -0.164,0.119 -0.22,0.14 -0.34,0.129 -0.075,-0.01 -0.12,-0.03 -0.24,-0.117 a 0.974,0.974 0 0 0 -0.17,-0.107 c -0.01,0 -0.114,0.105 -0.23,0.233 -0.114,0.128 -0.424,0.467 -0.686,0.754 -0.263,0.287 -0.478,0.528 -0.478,0.536 0,0.01 0.83,0.015 1.842,0.015 1.187,0 1.842,-0.01 1.842,-0.019 z m -3.558,-0.627 c 0.165,-0.182 0.458,-0.502 0.65,-0.71 0.197,-0.213 0.34,-0.384 0.331,-0.393 a 34.326,34.326 0 0 0 -1.34,-0.916 c -0.017,0.011 -0.018,2.37 0,2.387 0.007,0.01 0.023,0 0.035,-0.011 z m 3.805,-0.825 c 0,-0.664 -0.005,-1.206 -0.012,-1.206 -0.026,0 -1.336,0.922 -1.336,0.94 0,0.01 0.117,0.148 0.26,0.306 l 0.66,0.726 c 0.22,0.242 0.406,0.44 0.414,0.44 0.008,0 0.014,-0.543 0.014,-1.206 z m -1.205,-0.773 c 0.485,-0.336 0.882,-0.618 0.882,-0.627 0,-0.02 -3.507,-0.02 -3.52,0 a 58.37,58.37 0 0 0 1.75,1.237 c 0.004,0 0.404,-0.273 0.888,-0.61 z"
       id="path236" /></g></svg>
