<?xml version="1.0" encoding="UTF-8" standalone="no"?>
<!-- Created with Inkscape (http://www.inkscape.org/) -->

<svg
   width="6.5515933mm"
   height="6.4361849mm"
   viewBox="0 0 6.5515933 6.4361849"
   version="1.1"
   id="svg1"
   xmlns="http://www.w3.org/2000/svg"
   xmlns:svg="http://www.w3.org/2000/svg">
  <defs
     id="defs1" />
  <g
     id="layer19"
     transform="translate(-342.39886,27.256031)">
    <g
       id="g329"
       transform="translate(-198.45867,405.69526)">
      <path
         style="opacity:1;fill:#ff0000;fill-opacity:1;fill-rule:evenodd;stroke:#ff0000;stroke-width:0.0848528;stroke-linecap:round;stroke-linejoin:round;stroke-opacity:1"
         d="m 1083.155,26.43 c -0.491,-0.263 -12.341,-12.098 -12.503,-12.487 a 2.024,2.024 0 0 1 -0.137,-0.65 c 0,-0.18 0.383,-1.563 0.85,-3.075 0.467,-1.512 0.91,-2.948 0.983,-3.191 l 0.134,-0.442 0.112,0.372 c 0.27,0.906 0.847,1.516 1.723,1.823 0.218,0.076 0.366,0.14 0.328,0.143 -0.141,0.009 0.133,0.373 0.406,0.539 0.544,0.331 1.345,0.145 1.699,-0.395 0.218,-0.331 0.262,-0.86 0.098,-1.176 -0.376,-0.727 -1.2,-0.959 -1.848,-0.52 -0.31,0.21 -0.315,0.211 -0.582,0.05 -0.442,-0.27 -0.62,-0.666 -0.76,-1.688 l -0.057,-0.41 0.998,-0.311 2.634,-0.817 c 0.9,-0.278 1.929,-0.6 2.287,-0.715 0.758,-0.244 1.212,-0.264 1.671,-0.074 0.388,0.161 11.992,11.688 12.404,12.322 0.315,0.486 0.35,1.157 0.085,1.666 -0.256,0.491 -8.722,8.907 -9.13,9.075 -0.438,0.181 -1.016,0.165 -1.395,-0.038 z m -1.946,-5.79 c 0.14,-0.073 0.275,-0.202 0.3,-0.288 0.306,-1.042 0.75,-2.58 0.785,-2.719 0.024,-0.097 0.487,-1.712 1.027,-3.588 0.54,-1.877 0.983,-3.493 0.983,-3.592 0,-0.245 -0.26,-0.534 -0.54,-0.6 -0.168,-0.04 -0.293,0 -0.462,0.15 -0.2,0.178 -0.424,0.88 -1.654,5.184 -1.37,4.792 -1.417,4.985 -1.278,5.197 a 0.979,0.979 0 0 0 0.558,0.382 c 0.015,0.003 0.14,-0.054 0.28,-0.126 z m 4.606,-1.84 c 0.477,-0.25 0.921,-0.876 0.996,-1.403 a 1.877,1.877 0 0 0 -1.032,-1.97 c -1.772,-0.883 -3.533,1.184 -2.391,2.806 0.527,0.747 1.602,0.999 2.427,0.567 z m -5.705,-3.43 c 0.79,-0.2 1.458,-1.067 1.452,-1.884 0,-0.329 -0.29,-0.99 -0.556,-1.275 -0.69,-0.74 -1.926,-0.771 -2.699,-0.07 -0.565,0.514 -0.737,1.542 -0.376,2.249 0.221,0.433 0.675,0.818 1.134,0.96 0.434,0.136 0.573,0.138 1.045,0.02 z"
         transform="matrix(0.26458,0,0,0.26458,257.985,-433.563)"
         id="path324" />
      <path
         style="opacity:1;fill:#ff6b6b;fill-opacity:1;fill-rule:evenodd;stroke:#ff6b6b;stroke-width:0.06;stroke-linecap:round;stroke-linejoin:round;stroke-opacity:1"
         d="m 1074.679,23.756 c -0.274,-0.07 -0.615,-0.29 -0.739,-0.48 -0.057,-0.087 -0.443,-1.05 -0.856,-2.14 a 5726.75,5726.75 0 0 0 -3.31,-8.699 c -0.312,-0.818 -0.577,-1.613 -0.598,-1.794 -0.054,-0.472 0.148,-0.83 0.995,-1.768 0.388,-0.43 1.074,-1.209 1.526,-1.731 l 0.82,-0.95 -0.112,-0.613 c -0.132,-0.72 -0.24,-0.995 -0.509,-1.301 -0.261,-0.299 -0.67,-0.498 -1.275,-0.622 -0.273,-0.056 -0.56,-0.145 -0.64,-0.196 -0.46,-0.3 -0.189,-1.025 0.383,-1.025 0.284,0 1.356,0.306 1.668,0.476 0.37,0.2 0.93,0.77 1.114,1.13 0.177,0.346 0.366,1.045 0.485,1.793 0.054,0.34 0.14,0.731 0.188,0.87 0.22,0.622 0.681,0.931 1.59,1.066 0.498,0.074 0.604,0.11 0.728,0.254 0.278,0.324 0.115,0.853 -0.292,0.943 -0.272,0.06 -1.098,-0.078 -1.563,-0.26 -0.884,-0.345 -1.354,-0.869 -1.662,-1.852 -0.068,-0.217 -0.13,-0.329 -0.157,-0.28 -0.046,0.083 -1.324,4.232 -1.555,5.048 a 6.13,6.13 0 0 1 -0.192,0.594 c -0.202,0.423 -0.33,1.281 -0.19,1.281 0.03,0 0.041,0.056 0.023,0.124 -0.079,0.3 0.277,0.691 4.253,4.674 2.206,2.209 4.017,4.037 4.026,4.063 0.01,0.026 -0.329,0.177 -0.75,0.337 -0.421,0.16 -1.203,0.46 -1.737,0.668 -1.018,0.397 -1.338,0.471 -1.663,0.39 z"
         transform="matrix(0.26458,0,0,0.26458,257.985,-433.563)"
         id="path325" />
      <path
         style="opacity:1;fill:#ffffff;fill-opacity:1;fill-rule:evenodd;stroke:#ffffff;stroke-width:0.06;stroke-linecap:round;stroke-linejoin:round;stroke-opacity:1"
         d="m 1079.093,15.32 c -0.329,-0.108 -0.555,-0.263 -0.834,-0.573 -0.812,-0.904 -0.548,-2.285 0.546,-2.858 0.441,-0.231 1.18,-0.241 1.601,-0.022 1.127,0.586 1.403,1.97 0.576,2.89 -0.388,0.431 -0.686,0.572 -1.263,0.595 -0.258,0.011 -0.54,-0.003 -0.626,-0.032 z m 0.925,-1.234 c 0.17,-0.11 0.263,-0.327 0.263,-0.617 0,-0.294 -0.304,-0.594 -0.601,-0.594 -0.26,0 -0.558,0.143 -0.647,0.309 -0.097,0.182 -0.077,0.582 0.037,0.746 0.213,0.303 0.617,0.37 0.948,0.156 z m 0.472,6.367 c -0.212,-0.229 -0.191,-0.356 0.351,-2.197 0.239,-0.811 0.743,-2.572 1.12,-3.912 0.875,-3.107 1.154,-4.008 1.305,-4.212 0.245,-0.33 0.875,-0.199 0.976,0.203 0.021,0.085 -0.039,0.413 -0.14,0.766 -0.099,0.34 -0.507,1.77 -0.909,3.18 -1.42,4.984 -1.746,6.054 -1.892,6.203 -0.207,0.21 -0.6,0.195 -0.81,-0.03 z m 4.067,-1.522 c -0.645,-0.15 -1.24,-0.713 -1.407,-1.327 -0.225,-0.833 0.202,-1.757 1.006,-2.174 0.425,-0.22 1.096,-0.21 1.574,0.026 0.592,0.29 0.963,0.832 1.033,1.507 0.12,1.171 -1.07,2.234 -2.206,1.968 z m 0.661,-1.212 a 0.641,0.641 0 0 0 0.376,-0.614 c 0,-0.192 -0.044,-0.286 -0.213,-0.455 -0.23,-0.23 -0.462,-0.273 -0.758,-0.138 -0.338,0.154 -0.451,0.707 -0.208,1.016 0.223,0.283 0.498,0.349 0.803,0.191 z"
         transform="matrix(0.26458,0,0,0.26458,257.985,-433.563)"
         id="path326" />
      <path
         style="opacity:1;fill:#c60000;fill-opacity:1;fill-rule:evenodd;stroke:none;stroke-width:0.06;stroke-linecap:round;stroke-linejoin:round;stroke-opacity:1"
         d="m 1075.3,9.56 c -0.244,-0.075 -0.644,-0.441 -0.644,-0.59 0,-0.078 0.031,-0.096 0.11,-0.065 0.171,0.067 0.984,0.116 1.167,0.07 0.174,-0.043 0.41,-0.365 0.41,-0.56 0,-0.21 -0.193,-0.528 -0.363,-0.592 A 2.642,2.642 0 0 0 1075.5,7.72 c -0.526,-0.065 -0.719,-0.107 -0.719,-0.155 0,-0.025 0.138,-0.12 0.306,-0.211 0.55,-0.3 1.1,-0.206 1.52,0.26 0.275,0.304 0.324,0.462 0.286,0.92 -0.047,0.57 -0.492,0.991 -1.114,1.057 A 1.464,1.464 0 0 1 1075.3,9.559 Z"
         transform="matrix(0.26458,0,0,0.26458,257.985,-433.563)"
         id="path327" />
      <path
         style="opacity:1;fill:#fff500;fill-opacity:1;fill-rule:evenodd;stroke:none;stroke-width:0.06;stroke-linecap:round;stroke-linejoin:round;stroke-opacity:1"
         d="m 1087.533,6.877 a 2.185,2.185 0 0 1 -0.282,-0.437 c -0.134,-0.264 -0.219,-0.344 -0.535,-0.504 -0.652,-0.33 -0.654,-0.667 -0.01,-0.993 0.291,-0.148 0.406,-0.25 0.542,-0.487 0.247,-0.429 0.34,-0.518 0.537,-0.518 0.182,0 0.375,0.2 0.58,0.605 0.066,0.133 0.225,0.266 0.476,0.4 0.603,0.321 0.605,0.667 0.01,0.986 -0.317,0.17 -0.403,0.256 -0.594,0.596 -0.28,0.502 -0.476,0.598 -0.722,0.352 z m -2.977,-2.8 a 0.894,0.894 0 0 1 -0.175,-0.251 0.813,0.813 0 0 0 -0.32,-0.308 c -0.355,-0.17 -0.348,-0.485 0.014,-0.636 0.096,-0.04 0.239,-0.184 0.317,-0.32 0.115,-0.201 0.178,-0.25 0.324,-0.25 0.147,0 0.209,0.048 0.32,0.247 0.076,0.136 0.22,0.28 0.32,0.32 0.37,0.155 0.377,0.455 0.014,0.65 a 0.893,0.893 0 0 0 -0.321,0.312 c -0.109,0.212 -0.191,0.282 -0.33,0.282 a 0.35,0.35 0 0 1 -0.164,-0.046 z"
         transform="matrix(0.26458,0,0,0.26458,257.985,-433.563)"
         id="path328" />
      <path
         style="opacity:1;fill:#ff0000;fill-opacity:1;fill-rule:evenodd;stroke:none;stroke-width:0.06;stroke-linecap:round;stroke-linejoin:round;stroke-opacity:1"
         d="m 1079.237,13.984 c -0.204,-0.224 -0.255,-0.373 -0.198,-0.581 0.156,-0.575 0.884,-0.664 1.155,-0.141 0.128,0.248 0.036,0.613 -0.192,0.762 -0.23,0.15 -0.61,0.131 -0.764,-0.04 z m 5.413,3.696 c -0.255,-0.093 -0.391,-0.436 -0.302,-0.76 0.12,-0.437 0.77,-0.554 1.056,-0.19 0.227,0.289 0.128,0.764 -0.194,0.93 -0.195,0.102 -0.326,0.106 -0.56,0.02 z"
         transform="matrix(0.26458,0,0,0.26458,257.985,-433.563)"
         id="path329" />
    </g>
  </g>
</svg>
