<?xml version="1.0" encoding="UTF-8" standalone="no"?>
<!-- Created with Inkscape (http://www.inkscape.org/) -->

<svg
   width="2.6440001mm"
   height="4.9438796mm"
   viewBox="0 0 2.644 4.9438796"
   version="1.1"
   id="svg1"
   xmlns="http://www.w3.org/2000/svg"
   xmlns:svg="http://www.w3.org/2000/svg">
  <defs
     id="defs1" />
  <g
     id="layer12"
     transform="translate(-378.5666,45.469904)">
    <path
       style="fill:#ffffff;fill-opacity:1;fill-rule:evenodd;stroke:none;stroke-width:0.0439868;stroke-linecap:square;stroke-dasharray:none"
       d="m 379.3906,-41.635025 v -1.109 l -0.406,-0.008 -0.406,-0.008 -0.006,-0.417 -0.006,-0.417 0.103,-0.019 c 0.056,-0.01 0.238,-0.016 0.404,-0.012 l 0.302,0.007 0.018,-0.482 c 0.02,-0.518 0.054,-0.69 0.18,-0.905 0.132,-0.225 0.4,-0.405 0.68,-0.457 0.06,-0.01 0.3,-0.011 0.534,0 l 0.423,0.02 v 0.732 h -0.264 c -0.219,0 -0.287,0.011 -0.39,0.064 -0.2,0.103 -0.23,0.19 -0.222,0.645 l 0.007,0.381 0.42,-0.006 c 0.23,-0.003 0.42,0.004 0.419,0.017 0,0.013 -0.03,0.209 -0.066,0.436 l -0.065,0.413 -0.361,0.008 -0.36,0.008 v 2.218 h -0.94 z"
       id="path298" />
  </g>
</svg>
