<?xml version="1.0" encoding="UTF-8" standalone="no"?>
<!-- Created with Inkscape (http://www.inkscape.org/) -->

<svg
   width="7.5828052mm"
   height="7.2486148mm"
   viewBox="0 0 7.5828051 7.2486148"
   version="1.1"
   id="svg1"
   xmlns="http://www.w3.org/2000/svg"
   xmlns:svg="http://www.w3.org/2000/svg">
  <defs
     id="defs1" />
  <g
     id="layer5"
     transform="translate(-307.55598,43.966791)">
    <path
       style="fill:#ffffff;fill-opacity:1;fill-rule:evenodd;stroke:#ffffff;stroke-width:0.0207493;stroke-linecap:round;stroke-linejoin:round;stroke-opacity:1"
       d="m 311.08533,-36.918551 c -1.98,-1.553 -3.194,-3.089 -3.479,-4.402 a 2.848,2.848 0 0 1 0,-0.951 c 0.322,-1.41 1.896,-2.114 3.145,-1.407 0.176,0.1 0.282,0.18 0.458,0.352 l 0.142,0.138 0.152,-0.15 c 0.358,-0.35 0.808,-0.56 1.306,-0.606 a 2.116,2.116 0 0 1 1.657,0.568 c 0.307,0.287 0.5,0.62 0.625,1.072 0.03,0.11 0.038,0.22 0.037,0.498 0,0.392 -0.032,0.574 -0.16,0.94 -0.376,1.064 -1.417,2.349 -2.908,3.59 -0.341,0.285 -0.686,0.55 -0.713,0.548 -0.011,0 -0.129,-0.086 -0.261,-0.19 z m 0.444,-0.57 c 1.106,-0.908 1.918,-1.757 2.455,-2.568 0.454,-0.685 0.692,-1.371 0.652,-1.875 a 1.56,1.56 0 0 0 -0.18,-0.631 1.189,1.189 0 0 0 -0.297,-0.4 c -0.325,-0.323 -0.63,-0.462 -1.058,-0.482 a 1.599,1.599 0 0 0 -0.96,0.236 c -0.261,0.154 -0.548,0.502 -0.731,0.888 -0.021,0.045 -0.046,0.081 -0.055,0.081 a 1.79,1.79 0 0 1 -0.164,-0.264 c -0.285,-0.513 -0.668,-0.813 -1.172,-0.918 a 1.923,1.923 0 0 0 -0.801,0.037 1.668,1.668 0 0 0 -1.067,1.037 c -0.147,0.44 -0.11,0.897 0.119,1.47 0.377,0.946 1.415,2.17 2.813,3.314 0.14,0.115 0.26,0.209 0.268,0.209 0.007,0 0.088,-0.06 0.178,-0.134 z"
       id="path292" />
  </g>
</svg>
