<?xml version="1.0" encoding="UTF-8" standalone="no"?>
<!-- Created with Inkscape (http://www.inkscape.org/) -->

<svg
   width="7.7003121mm"
   height="7.3682604mm"
   viewBox="0 0 7.7003121 7.3682604"
   version="1.1"
   id="svg1"
   xmlns="http://www.w3.org/2000/svg"
   xmlns:svg="http://www.w3.org/2000/svg">
  <defs
     id="defs1" />
  <g
     id="layer14"
     transform="translate(-400.90925,45.306361)">
    <g
       style="fill:#ffffff;fill-opacity:1"
       id="g309"
       transform="translate(-40.01793,341.12562)">
      <path
         style="opacity:1;fill:#ffffff;fill-opacity:1;fill-rule:evenodd;stroke:none;stroke-width:0.304337;stroke-linecap:square;stroke-dasharray:none;stroke-opacity:1"
         d="m -1006.315,-188.531 c -3.82,-0.857 -7.457,-4.38 -8.533,-8.265 -0.407,-1.468 -0.321,-4.335 0.218,-7.309 0.268,-1.48 0.675,-3.781 0.903,-5.113 0.426,-2.492 0.968,-5.625 1.722,-9.958 0.237,-1.362 0.614,-3.542 0.838,-4.844 0.224,-1.303 0.61,-3.531 0.86,-4.952 0.73,-4.179 0.903,-6.393 0.663,-8.472 -0.2,-1.738 -0.406,-2.883 -1.515,-8.43 l -0.862,-4.305 -0.86,-4.306 -0.862,-4.306 -0.851,-4.253 a 475.48,475.48 0 0 1 -0.808,-4.144 l -0.387,-2.045 -11.182,-0.056 c -6.903,-0.035 -11.262,0.023 -11.39,0.15 -0.112,0.113 -0.244,0.913 -0.291,1.778 -0.103,1.857 0.116,2.383 1.335,3.22 l 0.86,0.59 7.502,0.065 7.502,0.066 0.517,0.646 c 0.61,0.762 0.656,1.42 0.152,2.19 -0.702,1.07 -1.247,1.147 -8.142,1.147 -6.964,0 -8.602,-0.195 -10.389,-1.234 -1.71,-0.995 -3.133,-3.199 -3.375,-5.228 -0.14,-1.173 -0.06,-1.746 0.97,-6.887 0.25,-1.243 0.64,-3.205 0.867,-4.36 0.227,-1.154 0.613,-3.092 0.857,-4.306 l 0.875,-4.36 c 2.27,-11.351 2.334,-11.62 3.237,-13.84 2.049,-5.033 5.326,-9.292 9.518,-12.37 1.629,-1.196 1.66,-1.216 3.688,-2.421 0.71,-0.422 2.697,-1.635 4.414,-2.695 a 497.055,497.055 0 0 1 4.413,-2.698 c 0.71,-0.425 1.97,-1.195 2.8,-1.712 0.828,-0.517 2.125,-1.31 2.88,-1.764 0.756,-0.453 1.628,-0.98 1.938,-1.172 2.44,-1.51 4.467,-2.552 5.838,-3 l 1.615,-0.527 h 29.087 c 22.231,0 29.209,0.061 29.604,0.26 0.284,0.142 0.88,0.352 1.325,0.467 0.836,0.215 3.253,1.513 5.866,3.15 0.83,0.518 2.089,1.289 2.8,1.712 0.71,0.422 2.841,1.716 4.736,2.873 1.894,1.158 4.704,2.865 6.244,3.793 6.224,3.753 8,5.14 10.717,8.363 1.764,2.094 4.04,5.932 4.564,7.694 0.088,0.297 0.284,0.83 0.434,1.185 0.334,0.787 1.045,3.663 1.517,6.136 0.362,1.892 0.904,4.64 1.616,8.181 0.227,1.125 0.614,3.063 0.862,4.306 0.247,1.244 0.635,3.181 0.86,4.306 1.766,8.78 1.734,8.581 1.575,9.677 -0.168,1.156 -0.809,2.663 -1.546,3.633 -0.85,1.118 -2.253,1.955 -4.052,2.415 -1.535,0.393 -2.425,0.423 -12.468,0.423 h -10.814 l -0.124,0.7 c -0.067,0.384 -0.319,1.668 -0.558,2.852 -0.239,1.184 -0.628,3.122 -0.865,4.306 l -0.862,4.306 a 619.88,619.88 0 0 0 -0.843,4.306 99.02,99.02 0 0 1 -0.695,3.337 c -0.363,1.527 -0.36,6.808 0.005,8.505 0.322,1.494 0.945,5.083 1.42,8.181 0.183,1.184 0.393,2.347 0.469,2.584 0.075,0.237 0.312,1.52 0.525,2.854 0.213,1.333 0.577,3.513 0.809,4.844 0.636,3.651 1.272,7.363 1.632,9.526 0.387,2.325 0.42,4.628 0.087,6.177 -0.605,2.823 -3.134,6.02 -5.762,7.286 -0.781,0.376 -1.615,0.795 -1.852,0.93 -0.318,0.183 -9.959,0.255 -36.924,0.278 -20.071,0.016 -36.687,-0.013 -36.924,-0.067 z m 32.618,-3.896 c 0,-0.237 -32.727,-32.658 -33.043,-32.733 -0.174,-0.042 -0.347,0.438 -0.503,1.4 -0.262,1.616 -0.852,5.07 -1.528,8.944 -0.243,1.392 -0.64,3.669 -0.88,5.06 l -0.871,5.005 c -0.975,5.586 -0.959,5.384 -0.535,6.786 0.214,0.708 0.61,1.675 0.879,2.15 0.865,1.521 2.722,2.932 4.375,3.324 0.964,0.228 32.106,0.29 32.106,0.064 z m 26.051,-0.031 c 0,-0.259 -19.778,-20.044 -20.037,-20.044 -0.122,0 -0.201,3.993 -0.201,10.12 v 10.119 h 10.12 c 5.883,0 10.118,-0.082 10.118,-0.195 z m 14.856,-0.42 c 1.439,-0.751 2.685,-1.844 3.285,-2.88 0.565,-0.975 1.356,-4.103 1.13,-4.469 -0.073,-0.119 -0.323,-1.404 -0.554,-2.855 -0.232,-1.45 -0.511,-3.164 -0.62,-3.808 l -0.2,-1.17 -11.716,-11.748 c -6.443,-6.461 -11.946,-12.135 -12.228,-12.609 -0.444,-0.744 -0.514,-1.139 -0.516,-2.907 -0.003,-1.881 0.046,-2.123 0.61,-3.014 0.338,-0.533 6.018,-6.394 12.622,-13.026 l 12.008,-12.056 0.246,-1.4 c 0.135,-0.77 0.399,-2.126 0.585,-3.014 0.726,-3.461 0.609,-21.01 -0.15,-22.427 -0.225,-0.42 -1.74,1.043 -19.92,19.221 l -19.676,19.676 v 32.94 l 13.08,13.093 13.079,13.094 3.983,-0.067 c 3.692,-0.062 4.054,-0.104 4.952,-0.573 z m -38.97,-13.888 v -9.98 l -5.22,-5.26 c -4.224,-4.255 -5.379,-5.546 -6.044,-6.759 -2.51,-4.58 -2.065,-9.929 1.165,-13.986 0.566,-0.711 3.07,-3.326 5.564,-5.812 l 4.536,-4.52 v -38.022 l 0.528,-0.529 c 0.764,-0.763 2.061,-0.735 2.8,0.062 l 0.547,0.59 v 16.85 c 0,9.266 0.073,16.849 0.162,16.849 0.089,0 8.577,-8.416 18.863,-18.702 16.061,-16.062 18.68,-18.767 18.553,-19.165 -0.157,-0.494 -2.744,-3.991 -6.712,-9.069 a 2541,2541 0 0 1 -8.044,-10.338 c -2.077,-2.723 -4.98,-6.357 -5.115,-6.402 -0.17,-0.056 -0.503,0.606 -0.944,1.875 -0.27,0.78 -1.771,3.478 -2.333,4.196 -0.91,1.162 -2.832,3.064 -3.923,3.885 -2.169,1.63 -6.668,3.55 -8.336,3.557 -0.306,0.001 -0.92,0.062 -1.364,0.136 l -0.807,0.133 v 4.68 h 0.835 c 1.047,0 2.31,0.516 2.602,1.063 0.367,0.685 0.266,1.909 -0.196,2.37 -0.61,0.611 -1.396,0.693 -5.898,0.618 -3.994,-0.066 -4.063,-0.075 -4.478,-0.588 -0.31,-0.384 -0.404,-0.78 -0.357,-1.5 0.055,-0.84 0.168,-1.049 0.796,-1.47 0.511,-0.345 1.045,-0.492 1.776,-0.492 h 1.045 v -2.248 c 0,-1.237 -0.09,-2.304 -0.2,-2.372 -0.11,-0.068 -0.928,-0.216 -1.816,-0.329 -6.324,-0.801 -12.204,-5.372 -14.736,-11.453 -0.378,-0.91 -0.688,-1.757 -0.688,-1.884 0,-0.65 -0.674,0.021 -2.583,2.574 -0.296,0.396 -1.465,1.89 -2.598,3.318 -1.133,1.428 -2.344,2.989 -2.691,3.468 -0.348,0.478 -1.77,2.32 -3.16,4.09 -3.232,4.12 -6.608,8.476 -7.16,9.244 -0.238,0.329 -0.646,0.862 -0.909,1.185 -0.662,0.816 -1.918,3.226 -2.535,4.865 -1.126,2.992 -1.293,4.702 -1.293,13.225 0,7.94 0.033,8.4 0.904,12.595 0.173,0.829 0.5,2.476 0.726,3.66 0.384,2 0.588,3.025 1.696,8.504 0.228,1.125 0.607,3.014 0.844,4.199 0.237,1.184 0.637,3.17 0.888,4.413 1.185,5.86 1.38,7.255 1.39,9.904 0,1.48 -0.1,3.268 -0.234,3.974 l -0.242,1.282 10.222,10.128 c 19.473,19.297 23.638,23.367 23.905,23.369 0.212,0 0.27,-2.138 0.27,-9.98 z m 40.595,-9.234 -0.46,-2.745 c -0.187,-1.125 -0.523,-3.112 -0.745,-4.414 l -0.842,-4.952 c -0.24,-1.421 -0.53,-3.068 -0.641,-3.66 -0.253,-1.341 -0.266,-5.914 -0.02,-7.213 a 956.062,956.062 0 0 1 1.523,-7.804 155835.8,155835.8 0 0 1 1.512,-7.548 c 0.136,-0.688 0.185,-1.313 0.108,-1.39 -0.077,-0.077 -4.496,4.215 -9.82,9.538 -10.27,10.27 -10.234,10.226 -9.72,11.7 0.24,0.69 18.473,19.141 18.943,19.17 0.197,0.012 0.244,-0.189 0.162,-0.682 z m -40.594,-18.893 c 0,-9.699 -0.055,-12.057 -0.278,-12.057 -0.153,0 -1.83,1.575 -3.727,3.499 -3.3,3.348 -3.63,3.78 -4.696,6.163 -0.126,0.281 -0.23,1.299 -0.23,2.26 -0.002,1.86 0.509,3.61 1.446,4.96 0.727,1.046 6.887,7.232 7.202,7.232 0.23,0 0.283,-2.25 0.283,-12.057 z m 69.2,-29.083 c 0.417,-0.246 0.968,-0.786 1.224,-1.2 0.393,-0.637 0.449,-0.978 0.36,-2.215 -0.057,-0.803 -0.172,-1.57 -0.255,-1.705 -0.11,-0.178 -3.24,-0.245 -11.427,-0.245 h -11.275 l -0.15,1.238 c -0.082,0.68 -0.228,1.388 -0.323,1.571 -0.095,0.184 -0.24,0.935 -0.324,1.669 l -0.15,1.335 h 10.78 c 10.531,0 10.798,-0.01 11.54,-0.448 z m -113.552,-15.331 c 0,-8.726 0.557,-12.211 2.624,-16.408 1.127,-2.288 1.53,-2.934 3.016,-4.845 a 1113.613,1113.613 0 0 0 2.326,-2.993 c 0.177,-0.227 1.431,-1.851 2.787,-3.608 a 961.864,961.864 0 0 1 4.751,-6.101 335.925,335.925 0 0 0 3.34,-4.306 c 1.118,-1.486 3.422,-4.42 4.307,-5.483 1.002,-1.203 0.86,-1.269 -2.429,-1.135 -4.135,0.168 -4.06,0.139 -10.388,4.032 a 532.077,532.077 0 0 1 -4.414,2.691 c -0.71,0.424 -1.638,0.985 -2.063,1.248 -0.424,0.262 -2.05,1.252 -3.613,2.199 -1.562,0.947 -3.492,2.13 -4.288,2.627 a 79.854,79.854 0 0 1 -2.091,1.271 c -1.908,1.083 -4.765,3.634 -6.486,5.79 -2.27,2.846 -3.961,6.536 -4.738,10.335 -0.47,2.297 -1.125,5.575 -1.594,7.966 -0.232,1.184 -0.61,3.074 -0.838,4.198 a 741.235,741.235 0 0 0 -0.86,4.306 107.838,107.838 0 0 1 -0.65,3.117 c -0.15,0.623 -0.136,0.9 0.052,1.02 0.141,0.09 4.98,0.164 10.753,0.166 l 10.496,0.003 z m 113.767,5.906 c 0.112,-0.181 -0.338,-2.903 -1.144,-6.92 a 224568.28,224568.28 0 0 0 -1.728,-8.612 499.013,499.013 0 0 1 -0.759,-3.876 c -0.99,-5.192 -2.726,-8.906 -5.864,-12.535 -0.688,-0.796 -1.687,-1.824 -2.22,-2.284 -0.845,-0.73 -4.42,-3.266 -4.605,-3.266 -0.037,0 -0.93,-0.531 -1.983,-1.18 a 375.872,375.872 0 0 0 -3.208,-1.954 c -0.71,-0.426 -1.97,-1.197 -2.799,-1.714 a 181.67,181.67 0 0 0 -2.799,-1.707 c -0.71,-0.422 -1.68,-1.007 -2.153,-1.3 -0.474,-0.292 -1.2,-0.73 -1.615,-0.973 a 53.749,53.749 0 0 1 -1.337,-0.813 c -4.2,-2.668 -5.251,-3.18 -7.178,-3.496 -1.409,-0.23 -5.695,-0.29 -5.695,-0.08 0,0.074 0.751,1.088 1.67,2.254 0.917,1.167 2.685,3.44 3.928,5.052 1.244,1.612 3.375,4.363 4.737,6.112 a 5633.83,5633.83 0 0 1 5.275,6.79 c 1.54,1.986 2.898,3.72 3.02,3.854 0.12,0.133 0.53,0.727 0.909,1.32 0.378,0.591 0.764,1.174 0.856,1.293 0.27,0.35 1.293,2.534 1.463,3.12 0.086,0.296 0.236,0.639 0.334,0.762 0.097,0.123 0.269,0.608 0.38,1.077 0.112,0.469 0.374,1.434 0.583,2.144 0.322,1.097 0.392,2.443 0.464,8.935 0.047,4.204 0.126,7.764 0.176,7.912 0.07,0.21 2.391,0.27 10.634,0.27 5.8,0 10.595,-0.084 10.658,-0.185 z m -64.438,-37.925 c 2.368,-0.271 5.204,-1.332 6.598,-2.468 2.77,-2.256 3.856,-3.532 4.994,-5.865 0.726,-1.489 1.3,-3.375 1.3,-4.271 0,-0.27 -2.167,-0.313 -16.04,-0.313 -15.135,0 -16.039,0.021 -16.03,0.377 0.018,0.75 1.197,3.855 2.02,5.321 1.397,2.488 4.964,5.572 7.229,6.25 0.296,0.09 0.635,0.238 0.753,0.33 0.226,0.178 2.27,0.588 3.553,0.713 1.623,0.159 3.851,0.13 5.623,-0.074 z"
         transform="matrix(0.0528,0,0,0.0528,495.984,-369.113)"
         id="path308" />
      <path
         style="opacity:1;fill:#ffffff;fill-opacity:1;fill-rule:evenodd;stroke:none;stroke-width:0.304337;stroke-linecap:square;stroke-dasharray:none;stroke-opacity:1"
         d="m -999.38,-280.97 c -0.303,-0.238 -0.613,-0.718 -0.69,-1.066 -0.178,-0.814 0.403,-2.075 1.036,-2.244 0.258,-0.07 2.232,-0.128 4.387,-0.13 3.787,-0.002 3.936,0.014 4.497,0.496 0.464,0.4 0.58,0.685 0.58,1.44 0,0.778 -0.108,1.026 -0.622,1.438 -0.6,0.48 -0.766,0.497 -4.63,0.498 -3.69,0.001 -4.05,-0.033 -4.558,-0.432 z"
         transform="matrix(0.0528,0,0,0.0528,495.984,-369.113)"
         id="path309" />
    </g>
  </g>
</svg>
