<?xml version="1.0" encoding="UTF-8" standalone="no"?>
<!-- Created with Inkscape (http://www.inkscape.org/) -->

<svg
   width="7.1535316mm"
   height="7.1592698mm"
   viewBox="0 0 7.1535315 7.1592698"
   version="1.1"
   id="svg1"
   xmlns="http://www.w3.org/2000/svg"
   xmlns:svg="http://www.w3.org/2000/svg">
  <defs
     id="defs1" />
  <g
     id="layer18"
     transform="translate(-373.90371,21.05728)">
    <path
       style="fill:#ffffff;fill-opacity:1;fill-rule:evenodd;stroke:none;stroke-width:0.0135933;stroke-linecap:square;stroke-dasharray:none;stroke-opacity:1"
       d="m 306.78925,133.72134 a 0.718,0.718 0 0 1 -0.244,-0.08 0.797,0.797 0 0 1 -0.348,-0.394 0.216,0.216 0 0 0 -0.014,-0.04 c -0.037,-0.08 -0.038,-0.13 -0.041,-1.282 l -0.002,-1.118 h -0.07 c -0.217,0 -0.431,-0.096 -0.545,-0.245 a 0.557,0.557 0 0 1 -0.084,-0.13 0.655,0.655 0 0 1 0,-0.567 c 0.037,-0.075 0.03,-0.066 0.102,-0.15 a 384.36,384.36 0 0 1 3.02,-3.018 0.955,0.955 0 0 1 0.125,-0.072 l 0.092,-0.045 h 0.365 l 0.092,0.045 c 0.05,0.025 0.114,0.066 0.143,0.092 0.08,0.071 2.987,2.98 3.024,3.026 0.037,0.045 0.08,0.122 0.108,0.194 0.016,0.04 0.018,0.072 0.018,0.211 0,0.176 0,0.176 -0.06,0.303 a 0.51,0.51 0 0 1 -0.117,0.154 0.665,0.665 0 0 1 -0.255,0.165 0.92,0.92 0 0 1 -0.229,0.034 l -0.093,0.005 -0.002,1.155 -0.002,1.156 -0.032,0.086 a 0.781,0.781 0 0 1 -0.48,0.486 c -0.129,0.044 -0.206,0.048 -0.826,0.047 -0.521,0 -0.59,-0.002 -0.629,-0.016 a 0.2,0.2 0 0 1 -0.115,-0.093 l -0.023,-0.039 -0.005,-0.918 a 27.45,27.45 0 0 0 -0.013,-0.938 c -0.052,-0.118 -0.104,-0.177 -0.196,-0.223 l -0.056,-0.027 h -0.875 l -0.058,0.032 a 0.364,0.364 0 0 0 -0.182,0.204 c -0.019,0.042 -0.02,0.07 -0.024,0.962 -0.006,1.021 0,0.95 -0.07,1.004 -0.072,0.054 -0.064,0.053 -0.708,0.052 -0.522,0 -0.604,-0.002 -0.689,-0.018 z m 1.062,-1.14 c 0,-0.889 0.002,-0.913 0.089,-1.086 a 0.948,0.948 0 0 1 0.16,-0.215 0.862,0.862 0 0 1 0.352,-0.186 c 0.068,-0.017 0.904,-0.023 0.976,-0.007 a 0.843,0.843 0 0 1 0.267,0.1 c 0.114,0.063 0.273,0.247 0.306,0.352 0.004,0.013 0.01,0.028 0.014,0.033 0.004,0.006 0.011,0.027 0.015,0.048 a 0.16,0.16 0 0 0 0.017,0.052 c 0.007,0.01 0.012,0.247 0.014,0.834 l 0.002,0.822 0.526,-0.002 0.526,-0.002 0.058,-0.033 a 0.39,0.39 0 0 0 0.181,-0.207 c 0.007,-0.021 0.013,-0.397 0.016,-1.285 0.006,-1.374 0,-1.275 0.06,-1.336 0.056,-0.058 0.07,-0.061 0.315,-0.067 0.225,-0.006 0.226,-0.006 0.271,-0.032 a 0.245,0.245 0 0 0 0.123,-0.214 c 0,-0.11 0.09,-0.015 -1.531,-1.638 -1.1,-1.101 -1.505,-1.5 -1.538,-1.517 a 0.263,0.263 0 0 0 -0.217,-0.002 c -0.062,0.031 -3.018,2.987 -3.048,3.048 a 0.27,0.27 0 0 0 0,0.217 c 0.03,0.057 0.07,0.098 0.118,0.118 0.033,0.014 0.076,0.018 0.26,0.02 0.236,0.005 0.236,0.005 0.3,0.06 0.058,0.052 0.054,-0.04 0.06,1.333 0.005,1.215 0.006,1.257 0.023,1.299 0.05,0.113 0.113,0.18 0.212,0.22 0.046,0.018 0.07,0.02 0.56,0.02 h 0.512 z"
       id="path312"
       transform="translate(68.526991,-147.63762)" />
  </g>
</svg>
