<?xml version="1.0" encoding="UTF-8" standalone="no"?>
<!-- Created with Inkscape (http://www.inkscape.org/) -->

<svg
   width="4.6702561mm"
   height="4.6872368mm"
   viewBox="0 0 4.6702561 4.6872368"
   version="1.1"
   id="svg1"
   xmlns="http://www.w3.org/2000/svg"
   xmlns:svg="http://www.w3.org/2000/svg">
  <defs
     id="defs1" />
  <g
     id="layer10"
     transform="translate(-362.4322,43.15929)">
    <g
       style="fill:#ffffff"
       id="g297"
       transform="translate(77.089601,388.84511)">
      <path
         style="opacity:1;fill:#ffffff;fill-opacity:1;fill-rule:evenodd;stroke:none;stroke-width:1.8827;stroke-linecap:square;stroke-dasharray:none"
         d="m 529.797,-620.713 c -13.118,-2.732 -20.188,-6.121 -29.057,-13.928 -6.648,-5.852 -13.584,-19.07 -15.479,-29.499 -0.813,-4.476 -1.128,-25.252 -0.858,-56.633 0.406,-47.185 0.552,-49.9 3.046,-56.547 6.475,-17.256 20.583,-29.604 38.056,-33.309 10.038,-2.128 97.925,-2.452 109.114,-0.403 15.343,2.81 30.233,14.366 37.41,29.034 l 3.919,8.007 v 57.851 c 0,57.268 -0.027,57.91 -2.713,63.674 -5.334,11.448 -14.587,21.268 -25.124,26.665 -10.093,5.17 -18.143,5.842 -68.379,5.715 -26.124,-0.066 -48.595,-0.348 -49.935,-0.627 z m 106.279,-16.897 c 8.279,-2.459 18.458,-11.724 22.356,-20.35 l 2.9,-6.418 v -104.741 l -3.41,-6.476 c -4.194,-7.961 -9.554,-13.283 -17.398,-17.274 l -5.985,-3.045 H 526.143 l -6.522,3.613 c -7.243,4.012 -12.271,9.457 -16.345,17.701 -2.644,5.35 -2.718,6.662 -3.078,54.672 -0.242,32.278 0.087,51.32 0.958,55.379 1.603,7.476 7.373,16.813 13.08,21.165 9.503,7.25 12.075,7.544 66.188,7.588 40.776,0.032 50.5,-0.284 55.652,-1.814 z"
         transform="matrix(0.02437,0,0,0.02437,273.54,-412.206)"
         id="path296" />
      <path
         style="opacity:1;fill:#ffffff;fill-opacity:1;fill-rule:evenodd;stroke:none;stroke-width:1.8827;stroke-linecap:square;stroke-dasharray:none"
         d="m 569.087,-665.591 c -9.333,-2.362 -15.864,-5.829 -22.492,-11.938 -23.024,-21.223 -23.222,-55.47 -0.443,-76.776 25.634,-23.977 66.639,-15.39 82.072,17.189 3.594,7.586 3.879,9.128 3.879,20.976 0,12.28 -0.18,13.152 -4.496,21.923 -2.472,5.024 -5.486,10.235 -6.698,11.58 -12.933,14.353 -34.47,21.437 -51.822,17.046 z m 23.758,-17.147 c 12.72,-4.335 22.92,-18.331 23.188,-31.824 0.278,-13.942 -6.62,-25.92 -18.813,-32.673 -5.71,-3.163 -7.745,-3.615 -16.27,-3.615 -7.957,0 -10.822,0.55 -15.626,3.004 -15.072,7.7 -22.655,24.259 -18.523,40.45 2.836,11.115 11.735,21.085 22.125,24.788 6.359,2.267 17.055,2.208 23.919,-0.13 z m 32.65,-77.759 c -8.83,-9.4 3.626,-23.197 13.751,-15.232 4.608,3.624 4.608,12.031 0,15.656 -4.396,3.458 -10.274,3.277 -13.751,-0.424 z"
         transform="matrix(0.02437,0,0,0.02437,273.54,-412.206)"
         id="path297" />
    </g>
  </g>
</svg>
