<?xml version="1.0" encoding="UTF-8" standalone="no"?>
<!-- Created with Inkscape (http://www.inkscape.org/) -->

<svg
   width="9.4874802mm"
   height="9.4736032mm"
   viewBox="0 0 9.4874801 9.4736032"
   version="1.1"
   id="svg1"
   xmlns="http://www.w3.org/2000/svg"
   xmlns:svg="http://www.w3.org/2000/svg">
  <defs
     id="defs1" />
  <g
     id="layer3"
     transform="translate(-280.08432,45.079286)">
    <a
       style="fill:#ffffff;fill-opacity:1"
       id="a288"
       transform="translate(-281.5322,365.32384)">
      <path
         style="fill:#ffffff;fill-opacity:1;stroke:none;stroke-width:0.0916849;stroke-linecap:round;stroke-linejoin:round;stroke-opacity:1"
         d="m 570.272,-400.955 c -0.066,-0.018 -0.401,-0.34 -1.545,-1.481 l -1.46,-1.458 -0.154,0.097 c -0.376,0.238 -0.813,0.41 -1.259,0.497 a 4.58,4.58 0 0 1 -1.302,0 3.845,3.845 0 0 1 -1.376,-0.568 c -0.27,-0.179 -0.742,-0.65 -0.933,-0.932 a 3.644,3.644 0 0 1 -0.568,-1.352 4.006,4.006 0 0 1 0,-1.364 3.63,3.63 0 0 1 0.333,-0.946 c 0.232,-0.453 0.505,-0.8 0.877,-1.11 a 3.64,3.64 0 0 1 1.618,-0.784 c 0.291,-0.063 1.104,-0.063 1.4,10e-4 0.271,0.059 0.592,0.167 0.843,0.283 0.697,0.325 1.363,0.993 1.694,1.7 0.522,1.113 0.46,2.332 -0.171,3.4 l -0.127,0.214 1.437,1.44 c 0.79,0.79 1.456,1.476 1.48,1.523 0.031,0.06 0.045,0.138 0.045,0.265 0,0.155 -0.01,0.198 -0.066,0.294 a 0.622,0.622 0 0 1 -0.33,0.282 0.983,0.983 0 0 1 -0.436,0 z m -4.465,-2.986 c 0.73,-0.164 1.34,-0.56 1.779,-1.154 0.157,-0.212 0.337,-0.557 0.413,-0.792 0.122,-0.377 0.137,-0.487 0.135,-0.965 -0.002,-0.415 -0.01,-0.482 -0.066,-0.696 -0.246,-0.923 -0.922,-1.697 -1.765,-2.022 -0.423,-0.164 -0.61,-0.198 -1.088,-0.2 -0.361,0 -0.47,0.01 -0.652,0.052 -1.358,0.322 -2.31,1.501 -2.312,2.866 a 2.871,2.871 0 0 0 0.881,2.116 3.013,3.013 0 0 0 1.709,0.84 c 0.226,0.032 0.726,0.009 0.966,-0.045 z"
         id="path288" />
    </a>
  </g>
</svg>
