<?xml version="1.0" encoding="UTF-8" standalone="no"?>
<!-- Created with Inkscape (http://www.inkscape.org/) -->

<svg
   width="6.7424645mm"
   height="9.0236197mm"
   viewBox="0 0 6.7424645 9.0236196"
   version="1.1"
   id="svg1"
   xmlns="http://www.w3.org/2000/svg"
   xmlns:svg="http://www.w3.org/2000/svg">
  <defs
     id="defs1" />
  <g
     id="layer17"
     transform="translate(-426.68492,42.341635)">
    <g
       style="fill:#ffffff;fill-opacity:1"
       id="g311"
       transform="translate(-152.22986,344.91492)">
      <path
         style="opacity:1;fill:#ffffff;fill-opacity:1;fill-rule:evenodd;stroke:none;stroke-width:1.21735;stroke-linecap:square;stroke-dasharray:none;stroke-opacity:1"
         d="m -1440.48,-253.633 c -6.708,-1.336 -15.946,-6.079 -21.411,-10.991 -5.461,-4.91 -11.663,-14.298 -13.94,-21.104 -1.532,-4.582 -2.032,-8.483 -2.395,-18.707 l -0.459,-12.918 -27.558,-0.484 c -21.727,-0.382 -28.561,-0.779 -32.295,-1.874 -13.378,-3.925 -18.561,-7.445 -39.956,-27.138 l -7.72,-7.105 h -32.416 v 7.204 c 0,5.984 -0.302,7.588 -1.785,9.473 l -1.785,2.27 h -80.703 l -1.785,-2.27 c -1.782,-2.266 -1.785,-2.423 -1.785,-100.827 v -98.558 l 2.517,-2.517 2.518,-2.517 h 77.773 l 2.517,2.517 c 2.391,2.39 2.518,2.888 2.518,9.904 v 7.386 h 30.981 l 2.175,-3.23 c 7.845,-11.65 18.804,-26.972 21.53,-30.1 6.119,-7.02 19.27,-14.964 29.141,-17.603 2.004,-0.535 15.168,-1.194 29.851,-1.494 26.056,-0.532 26.27,-0.552 26.532,-2.394 0.31,-2.173 0.13,-2.34 -8.858,-8.259 -22.251,-14.653 -39.086,-40.998 -43.063,-67.392 -5.085,-33.743 4.901,-65.05 28.247,-88.557 7.732,-7.786 9.87,-9.544 17.38,-14.29 7.208,-4.552 11.669,-5.142 14.302,-1.89 1.548,1.912 1.631,4.056 1.631,42.384 v 40.37 l 3.524,2.225 c 1.938,1.224 7.267,4.176 11.842,6.56 4.574,2.384 11.805,6.21 16.068,8.502 l 7.75,4.168 18.947,-10.19 18.947,-10.192 0.43,-41.077 0.43,-41.077 2.52,-2.166 c 3.336,-2.87 6.267,-2.353 13.44,2.37 32.735,21.553 50.487,58.042 46.695,95.984 -3.154,31.565 -22.425,62.2 -48.66,77.357 l -4.09,2.363 v 45.364 l 5.112,0.37 c 7.098,0.514 14.005,4.187 18.7,9.946 4.93,6.048 5.861,9.698 5.882,23.048 0.014,8.952 -0.31,12.042 -1.613,15.422 l -1.63,4.227 2.491,1.764 c 4.179,2.96 7.793,7.145 9.919,11.486 1.687,3.446 2.075,5.793 2.337,14.126 0.395,12.591 -0.778,18.53 -4.662,23.62 -1.622,2.125 -2.95,4.077 -2.95,4.338 0,0.262 1.335,2.223 2.966,4.36 3.89,5.094 5.04,10.907 4.646,23.48 -0.262,8.334 -0.65,10.68 -2.337,14.126 -2.126,4.342 -5.74,8.527 -9.919,11.486 l -2.492,1.765 1.63,4.226 c 2.489,6.45 2.328,26.695 -0.256,32.368 -4.098,8.993 -12.563,15.018 -22.657,16.123 l -4.737,0.519 -0.624,12.478 c -0.735,14.675 -2.54,21.676 -7.694,29.837 -8.727,13.818 -25.678,22.933 -42.062,22.618 -2.132,-0.04 -6.448,-0.587 -9.592,-1.213 z m 25.326,-16.992 c 5.464,-2.525 12.643,-9.286 15.215,-14.326 3.367,-6.6 4.43,-12.356 4.174,-22.604 l -0.244,-9.798 -6.646,-0.251 -6.645,-0.251 0.513,5.497 c 1.117,11.96 -5.611,20.846 -17.086,22.567 -6.62,0.992 -12.686,-1.288 -17.412,-6.544 -4.693,-5.22 -6.086,-9.563 -5.3,-16.52 l 0.566,-4.997 -7.582,0.25 -7.582,0.249 v 12.487 c 0,12.487 0,12.488 2.893,18.086 3.216,6.22 6.587,10.167 11.752,13.757 5.987,4.163 10.255,5.229 19.803,4.948 7.176,-0.211 9.44,-0.636 13.581,-2.55 z m -8.33,-37.279 c 1.132,-4.514 -2.37,-8.098 -6.824,-6.98 -4.247,1.066 -4.534,8.387 -0.39,9.92 2.78,1.028 6.609,-0.532 7.213,-2.94 z m 51.171,-26.091 c 4.718,-2.47 6.876,-7.579 6.876,-16.276 0,-9.855 -1.957,-14.027 -7.751,-16.52 -3.948,-1.698 -5.712,-1.804 -30.086,-1.804 h -25.892 v -13.702 l 32.941,-0.254 c 32.337,-0.249 32.998,-0.289 36.023,-2.17 4.152,-2.582 5.293,-5.36 5.756,-14.016 0.536,-10.017 -0.65,-14 -5.13,-17.247 l -3.536,-2.56 h -66.054 v -14.64 l 32.941,-0.03 32.941,-0.028 3.413,-2.36 c 4.477,-3.095 5.85,-7.51 5.41,-17.39 -0.404,-9.033 -1.864,-12.106 -6.918,-14.553 -3.595,-1.74 -4.98,-1.81 -35.763,-1.81 h -32.024 v -13.78 l 25.621,-0.037 c 26.749,-0.04 30.027,-0.422 33.93,-3.954 2.934,-2.655 4.18,-6.97 4.16,-14.414 -0.024,-8.457 -1.945,-13.442 -6.175,-16.022 -2.794,-1.703 -4.176,-1.737 -71.53,-1.74 l -68.681,-0.003 v -14.603 l 16.578,-0.234 16.578,-0.234 0.24,-12.272 0.238,-12.272 h -25.352 c -22.464,0 -25.95,0.186 -30.595,1.631 -10.182,3.17 -18.2,10.1 -27.637,23.894 -10.914,15.95 -16.79,24.045 -18.044,24.855 -0.733,0.474 -9.665,1.055 -19.849,1.292 l -18.516,0.43 v 136.932 l 18.552,0.43 18.552,0.43 16.327,14.53 c 16.648,14.815 23.004,19.012 31.994,21.127 1.804,0.425 37.97,0.81 80.37,0.858 73.036,0.082 77.25,0.004 80.092,-1.484 z m -261.156,-33.954 -0.232,-18.3 -27.559,-0.241 c -15.157,-0.133 -28.43,-0.028 -29.496,0.232 -1.927,0.47 -1.938,0.567 -1.938,17.179 0,9.188 0.235,17.32 0.523,18.069 0.463,1.205 3.891,1.362 29.729,1.362 h 29.205 z m 0.198,-95.82 v -62.448 l -29.496,0.226 -29.496,0.227 -0.223,61.145 c -0.122,33.63 -0.038,61.63 0.188,62.222 0.318,0.832 7.066,1.077 29.72,1.077 h 29.307 z m 237.492,-91.491 0.23,-20.885 h -68.065 v 42.22 l 33.802,-0.226 33.803,-0.225 z m 13.61,-40.787 c 9.053,-5.91 21.377,-18.422 26.492,-26.895 4.91,-8.131 9.646,-19.814 11.489,-28.33 1.848,-8.542 1.781,-27.342 -0.128,-36.346 -1.884,-8.885 -6.851,-20.833 -11.944,-28.73 -4.41,-6.84 -17.309,-20.841 -19.2,-20.841 -0.97,0 -1.172,6.077 -1.172,35.26 v 35.262 l -1.938,2.133 c -2.463,2.71 -46.499,26.385 -50.193,26.985 -2.345,0.38 -6.463,-1.54 -27.204,-12.682 -13.442,-7.222 -24.828,-13.756 -25.301,-14.52 -0.518,-0.836 -1.033,-15.43 -1.292,-36.627 -0.318,-25.965 -0.698,-35.327 -1.446,-35.576 -1.37,-0.456 -13.37,11.767 -17.441,17.765 -4.407,6.494 -9.947,17.66 -11.624,23.428 -6.05,20.809 -4.915,42.962 3.15,61.485 7.448,17.111 21.492,32.444 38.126,41.627 1.186,0.654 14.36,0.959 42.304,0.977 l 40.58,0.026 6.743,-4.401 z"
         transform="matrix(0.0178,0,0,0.0178,609.29,-373.74)"
         id="path310" />
      <path
         style="opacity:1;fill:#ffffff;fill-opacity:1;fill-rule:evenodd;stroke:none;stroke-width:1.21735;stroke-linecap:square;stroke-dasharray:none;stroke-opacity:1"
         d="m -1668.127,-361.94 c -4.644,-4.645 -3.83,-10.534 1.859,-13.444 8.453,-4.323 16.307,7.11 9.365,13.631 -1.076,1.011 -3.358,2.066 -5.072,2.344 -2.74,0.445 -3.48,0.14 -6.152,-2.532 z"
         transform="matrix(0.0178,0,0,0.0178,609.29,-373.74)"
         id="path311" />
    </g>
  </g>
</svg>
