<?xml version="1.0" encoding="UTF-8" standalone="no"?>
<!-- Created with Inkscape (http://www.inkscape.org/) -->

<svg
   width="4.4714999mm"
   height="5.1160436mm"
   viewBox="0 0 4.4714999 5.1160436"
   version="1.1"
   id="svg1"
   xmlns="http://www.w3.org/2000/svg"
   xmlns:svg="http://www.w3.org/2000/svg">
  <defs
     id="defs1" />
  <g
     id="layer9"
     transform="translate(-355.38731,42.945723)">
    <path
       style="fill:#ffffff;fill-opacity:1;fill-rule:evenodd;stroke:none;stroke-width:0.0497744;stroke-linecap:square;stroke-dasharray:none"
       d="m 356.55581,-37.886723 a 1.51,1.51 0 0 1 -0.705,-0.438 1.502,1.502 0 0 1 -0.42,-0.779 c -0.058,-0.275 -0.058,-0.358 0,-0.635 a 1.56,1.56 0 0 1 0.719,-1.04 c 0.28,-0.182 0.771,-0.309 0.986,-0.255 l 0.083,0.021 v 0.836 h -0.171 c -0.253,0 -0.448,0.079 -0.597,0.24 a 0.76,0.76 0 0 0 0.233,1.196 0.728,0.728 0 0 0 0.856,-0.142 c 0.262,-0.254 0.259,-0.223 0.259,-2.282 v -1.781 h 0.831 l 0.023,0.169 c 0.073,0.542 0.55,1.032 1.052,1.08 l 0.154,0.015 v 0.829 h -0.152 a 1.77,1.77 0 0 1 -0.898,-0.307 0.426,0.426 0 0 0 -0.139,-0.08 c -0.023,0 -0.034,0.323 -0.034,1.033 0,1.012 0,1.038 -0.08,1.269 -0.043,0.13 -0.116,0.291 -0.161,0.36 -0.233,0.348 -0.643,0.64 -1.008,0.716 -0.244,0.051 -0.603,0.04 -0.831,-0.025 z"
       id="path294" />
  </g>
</svg>
