<?xml version="1.0" encoding="UTF-8" standalone="no"?>
<!-- Created with Inkscape (http://www.inkscape.org/) -->

<svg
   width="5.5071688mm"
   height="4.5611091mm"
   viewBox="0 0 5.5071687 4.5611091"
   version="1.1"
   id="svg1"
   xmlns="http://www.w3.org/2000/svg"
   xmlns:svg="http://www.w3.org/2000/svg">
  <defs
     id="defs1" />
  <g
     id="layer11"
     transform="translate(-369.67584,42.972552)">
    <path
       style="fill:#ffffff;fill-opacity:1;fill-rule:evenodd;stroke:none;stroke-width:0.0571048;stroke-linecap:square;stroke-dasharray:none"
       d="m 370.86984,-38.430839 a 4.23,4.23 0 0 1 -1.013,-0.307 l -0.181,-0.088 0.295,-0.024 c 0.522,-0.044 0.916,-0.18 1.18,-0.41 l 0.141,-0.12 -0.183,-0.028 c -0.321,-0.048 -0.577,-0.217 -0.775,-0.512 -0.071,-0.105 -0.129,-0.2 -0.129,-0.21 0,-0.012 0.07,-0.013 0.157,-0.008 a 0.732,0.732 0 0 0 0.268,-0.032 l 0.11,-0.044 -0.092,-0.039 c -0.279,-0.118 -0.344,-0.158 -0.477,-0.291 -0.17,-0.17 -0.285,-0.39 -0.32,-0.613 l -0.025,-0.157 0.133,0.055 c 0.122,0.051 0.394,0.078 0.394,0.04 0,-0.01 -0.08,-0.097 -0.177,-0.195 -0.266,-0.267 -0.322,-0.409 -0.32,-0.805 0.002,-0.183 0.022,-0.38 0.047,-0.44 l 0.045,-0.106 0.249,0.238 c 0.607,0.583 1.25,0.903 1.892,0.944 l 0.314,0.02 0.002,-0.291 c 0.002,-0.225 0.021,-0.327 0.085,-0.45 0.344,-0.666 1.154,-0.872 1.76,-0.447 0.232,0.162 0.22,0.162 0.598,-0.007 0.128,-0.058 0.232,-0.093 0.232,-0.079 0,0.059 -0.145,0.258 -0.299,0.41 l -0.162,0.16 0.2,-0.024 a 1.06,1.06 0 0 0 0.271,-0.063 c 0.039,-0.02 0.08,-0.03 0.09,-0.019 0.034,0.035 -0.214,0.31 -0.342,0.38 -0.123,0.065 -0.127,0.075 -0.128,0.29 -0.008,1.557 -0.99,2.812 -2.503,3.199 -0.327,0.084 -0.992,0.119 -1.338,0.07 z"
       id="path295" />
  </g>
</svg>
