<?xml version="1.0" encoding="UTF-8" standalone="no"?>
<svg
   width="29.630365"
   height="29.666431"
   viewBox="0 0 7.8396951 7.8492406"
   xml:space="preserve"
   version="1.1"
   id="svg334"
   sodipodi:docname="1 Diseño Pagina a e.svg"
   inkscape:version="1.4 (86a8ad7, 2024-10-11)"
   inkscape:export-batch-path="D:\Tercer Trimestre\Programacion\BikeStore\imgs"
   inkscape:export-batch-name="Iconos Footer BikeStore"
   xmlns:inkscape="http://www.inkscape.org/namespaces/inkscape"
   xmlns:sodipodi="http://sodipodi.sourceforge.net/DTD/sodipodi-0.dtd"
   xmlns="http://www.w3.org/2000/svg"
   xmlns:svg="http://www.w3.org/2000/svg"><sodipodi:namedview
     id="namedview334"
     pagecolor="#ffffff"
     bordercolor="#000000"
     borderopacity="0.25"
     inkscape:showpageshadow="2"
     inkscape:pageopacity="0.0"
     inkscape:pagecheckerboard="0"
     inkscape:deskcolor="#d1d1d1"
     showgrid="false"
     inkscape:zoom="0.54434034"
     inkscape:cx="891.90524"
     inkscape:cy="542.85891"
     inkscape:window-width="1920"
     inkscape:window-height="1017"
     inkscape:window-x="-8"
     inkscape:window-y="-8"
     inkscape:window-maximized="1"
     inkscape:current-layer="svg334"><inkscape:page
       x="0"
       y="0"
       width="7.839695"
       height="7.8492408"
       id="page1"
       margin="0"
       bleed="0" /></sodipodi:namedview><defs
     id="defs1" /><g
     id="g2"
     transform="translate(-83.292477,-1059.882)"
     inkscape:label="icono ubicacion"><path
       style="fill:#ffffff;fill-opacity:1;stroke:none;stroke-width:0.0377229;stroke-linecap:round;stroke-linejoin:round;stroke-opacity:1"
       d="m 86.905,1067.718 a 3.871,3.871 0 0 1 -1.122,-0.258 0.255,0.255 0 0 1 -0.06,-0.021 11.499,11.499 0 0 1 -0.444,-0.215 3.876,3.876 0 0 1 -0.795,-0.598 3.817,3.817 0 0 1 -0.61,-0.75 0.368,0.368 0 0 0 -0.034,-0.057 3.43,3.43 0 0 1 -0.281,-0.574 2.765,2.765 0 0 0 -0.054,-0.132 0.088,0.088 0 0 1 -0.01,-0.035 0.053,0.053 0 0 0 -0.007,-0.027 0.25,0.25 0 0 1 -0.021,-0.054 c -0.007,-0.025 -0.02,-0.065 -0.026,-0.09 a 4.193,4.193 0 0 1 -0.136,-0.68 7.286,7.286 0 0 1 0,-0.854 4.05,4.05 0 0 1 0.221,-0.936 c 0.005,-0.012 0.014,-0.032 0.018,-0.045 0.065,-0.169 0.178,-0.403 0.265,-0.553 0.081,-0.14 0.234,-0.37 0.294,-0.442 l 0.094,-0.115 a 4.624,4.624 0 0 1 0.692,-0.65 5.164,5.164 0 0 1 0.345,-0.224 4.427,4.427 0 0 1 0.814,-0.357 l 0.1,-0.03 c 0.059,-0.02 0.27,-0.066 0.402,-0.089 l 0.11,-0.02 a 0.754,0.754 0 0 1 0.104,-0.01 0.39,0.39 0 0 0 0.084,-0.01 6.96,6.96 0 0 1 0.745,0 c 0.286,0.035 0.487,0.074 0.715,0.14 l 0.131,0.036 c 0.013,0 0.025,0.01 0.028,0.014 0.003,0 0.014,0.01 0.025,0.01 0.01,0 0.027,0 0.037,0.01 a 4.466,4.466 0 0 1 0.603,0.278 l 0.084,0.047 c 0.134,0.077 0.395,0.262 0.52,0.37 0.21,0.181 0.404,0.382 0.569,0.59 a 4.112,4.112 0 0 1 0.551,0.957 l 0.019,0.048 0.02,0.047 a 4.058,4.058 0 0 1 0.149,0.514 3.647,3.647 0 0 1 0.086,0.923 c -0.003,0.15 -0.01,0.31 -0.016,0.353 a 4.344,4.344 0 0 1 -0.06,0.375 l -0.02,0.09 a 4.524,4.524 0 0 1 -0.179,0.568 l -0.021,0.052 c -0.02,0.05 -0.03,0.074 -0.104,0.226 a 3.86,3.86 0 0 1 -0.217,0.39 c -0.006,0.012 -0.014,0.022 -0.018,0.022 -0.004,0 -0.007,0.01 -0.007,0.013 0,0.01 -0.008,0.022 -0.018,0.032 -0.01,0.01 -0.04,0.053 -0.069,0.094 -0.17,0.248 -0.489,0.583 -0.747,0.788 -0.058,0.046 -0.146,0.11 -0.214,0.156 a 0.728,0.728 0 0 0 -0.082,0.062 0.014,0.014 0 0 1 -0.013,0.01 0.315,0.315 0 0 0 -0.062,0.034 2.58,2.58 0 0 1 -0.163,0.097 c -0.04,0.022 -0.237,0.12 -0.33,0.163 a 2.215,2.215 0 0 1 -0.13,0.056 l -0.044,0.018 a 6.44,6.44 0 0 1 -0.3,0.1 l -0.07,0.019 -0.077,0.02 -0.08,0.02 -0.089,0.02 -0.1,0.018 c -0.27,0.052 -0.69,0.073 -0.995,0.05 z m 0.623,-0.347 a 3.637,3.637 0 0 0 0.79,-0.16 l 0.084,-0.029 a 1.309,1.309 0 0 0 0.158,-0.06 3.813,3.813 0 0 0 0.812,-0.46 l 0.082,-0.066 c 0.197,-0.156 0.403,-0.368 0.612,-0.629 a 4.107,4.107 0 0 0 0.212,-0.314 c 0.005,0 0.011,-0.01 0.014,-0.018 0.003,-0.01 0.026,-0.053 0.051,-0.097 0.078,-0.137 0.154,-0.3 0.209,-0.446 0.02,-0.055 0.04,-0.108 0.046,-0.117 a 0.091,0.091 0 0 0 0.009,-0.037 c 0,-0.01 0.004,-0.022 0.01,-0.025 0.005,0 0.01,-0.017 0.01,-0.03 0,-0.013 0.004,-0.026 0.01,-0.03 0.005,0 0.01,-0.019 0.01,-0.035 0,-0.015 0.004,-0.03 0.009,-0.034 0.005,0 0.01,-0.017 0.014,-0.033 l 0.015,-0.067 c 0.034,-0.14 0.066,-0.319 0.08,-0.442 a 3.18,3.18 0 0 0 0.031,-0.431 4.114,4.114 0 0 0 -0.119,-0.914 4.197,4.197 0 0 0 -0.165,-0.49 c -0.031,-0.068 -0.172,-0.354 -0.19,-0.384 a 0.13,0.13 0 0 0 -0.025,-0.033 c -0.004,0 -0.007,-0.01 -0.007,-0.013 a 0.223,0.223 0 0 0 -0.03,-0.054 2.988,2.988 0 0 0 -0.21,-0.305 3.015,3.015 0 0 0 -0.306,-0.345 2.713,2.713 0 0 0 -0.298,-0.271 l -0.095,-0.075 a 3.691,3.691 0 0 0 -0.987,-0.518 3.558,3.558 0 0 0 -0.88,-0.18 4.993,4.993 0 0 0 -0.68,0.01 3.843,3.843 0 0 0 -0.914,0.232 4.274,4.274 0 0 0 -0.32,0.145 l -0.11,0.06 c -0.07,0.037 -0.268,0.16 -0.275,0.169 a 3.583,3.583 0 0 0 -0.328,0.254 c -0.046,0.04 -0.315,0.309 -0.352,0.353 a 3.102,3.102 0 0 0 -0.253,0.327 1.62,1.62 0 0 0 -0.118,0.187 3.975,3.975 0 0 0 -0.26,0.523 c -0.009,0.022 -0.064,0.181 -0.097,0.285 a 0.461,0.461 0 0 0 -0.022,0.086 c 0,0.011 -0.004,0.023 -0.009,0.026 -0.005,0 -0.011,0.02 -0.014,0.038 a 1.9,1.9 0 0 1 -0.016,0.08 3.643,3.643 0 0 0 0.038,1.745 l 0.019,0.07 a 4.297,4.297 0 0 0 0.141,0.392 5.18,5.18 0 0 0 0.218,0.428 c 0,0.01 0.143,0.225 0.159,0.245 l 0.086,0.111 a 3.477,3.477 0 0 0 0.686,0.677 c 0.02,0.018 0.24,0.166 0.32,0.214 0.16,0.096 0.395,0.208 0.582,0.276 a 0.906,0.906 0 0 1 0.076,0.03 0.082,0.082 0 0 0 0.033,0.01 c 0.008,0 0.023,0 0.032,0.01 a 0.415,0.415 0 0 0 0.062,0.02 l 0.09,0.027 c 0.147,0.047 0.414,0.093 0.65,0.112 0.071,0.01 0.134,0.013 0.139,0.015 0.014,0.01 0.36,0 0.482,-0.014 z"
       id="path237" /><g
       style="fill:#ffffff;fill-opacity:1"
       id="g239"
       transform="translate(-265.601,435.276)"><path
         style="fill:#ffffff;fill-opacity:1;stroke:none;stroke-width:5.19343;stroke-linecap:round;stroke-linejoin:round;stroke-opacity:1"
         d="m -100.16,-171.566 c -45.03,-5.694 -91.273,-31.216 -119.78,-66.108 -21.43,-26.228 -33.649,-52.385 -40.497,-86.684 -3.284,-16.45 -3.025,-50.207 0.523,-68.045 14.281,-71.817 67.679,-127.995 138.912,-146.147 47.352,-12.067 101.072,-4.12 142.195,21.035 38.051,23.277 68.386,60.54 81.257,99.817 7.885,24.06 8.85,30.576 8.918,60.16 0.07,30.805 -1.493,40.605 -10.312,64.648 -22.577,61.552 -74.336,105.647 -140.023,119.29 -12.635,2.625 -47.387,3.78 -61.192,2.034 z m 51.771,-41.775 c 28.299,-4.78 56.127,-19.572 77.456,-41.174 23.883,-24.188 36.98,-51.15 41.667,-85.781 2.032,-15.014 2.027,-17.574 -0.058,-33.498 -2.257,-17.232 -2.697,-19.043 -8.68,-35.7 -8.28,-23.052 -27.09,-47.924 -48.586,-64.242 -17.587,-13.351 -35.12,-21.247 -61.264,-27.59 -11.025,-2.676 -44.57,-2.34 -57.425,0.573 -45.05,10.21 -81.75,38.486 -101.714,78.368 -15.18,30.322 -19.38,65.795 -11.665,98.503 12.472,52.876 55.445,96.268 107.658,108.71 22.557,5.374 38.817,5.85 62.611,1.831 z"
         transform="matrix(0.0061,0,0,0.0061,353.271,629.944)"
         id="path238" /><path
         style="fill:#ffffff;fill-opacity:1;stroke:none;stroke-width:5.19343;stroke-linecap:round;stroke-linejoin:round;stroke-opacity:1"
         d="M -95.128,201.329 C -139.884,145.394 -165.37,112.016 -199.785,64.261 -226.3,27.468 -265.391,-29.946 -282.31,-56.947 c -2.992,-4.775 -9.675,-15.45 -14.852,-23.721 -36.67,-58.6 -73.227,-129.62 -89.95,-174.75 -12.695,-34.263 -17.61,-52.809 -21.087,-79.56 -2.429,-18.693 -2.425,-30.284 0.02,-54.69 5.383,-53.767 21.807,-101.155 50.747,-146.419 10.748,-16.81 14.286,-21.476 31.532,-41.58 41.014,-47.81 101.904,-85.063 166.567,-101.906 53.517,-13.94 117.112,-13.7 170.632,0.642 108.016,28.947 195.367,110.735 230.558,215.876 10.183,30.425 15.343,58.236 17.42,93.895 2.138,36.709 -9.82,85.96 -34.692,142.879 -6.873,15.73 -32.088,67.245 -34.464,70.413 -0.564,0.752 -3.503,5.982 -6.53,11.622 -10.421,19.417 -37.474,64.876 -52.074,87.505 -45.761,70.927 -94.712,139.9 -149.437,210.558 -20.627,26.632 -56.492,71.097 -57.347,71.097 -0.544,0 -9.481,-10.613 -19.86,-23.585 z M -57.013,141.78 C 0.224,68.852 55.075,-8.498 100.732,-80.668 c 47.992,-75.862 86.033,-150.197 102.855,-200.987 11.078,-33.448 14.507,-52.304 14.42,-79.301 -0.245,-76.77 -30.281,-147.214 -86.58,-203.057 -46.597,-46.217 -97.502,-71.767 -164.925,-82.777 -20.701,-3.38 -64.593,-3.06 -86.875,0.636 -78.986,13.098 -143.265,51.944 -191.807,115.914 -35.227,46.423 -56.927,111.042 -56.969,169.64 -0.022,31.228 8.174,65.04 27.235,112.355 5.931,14.723 28.191,60.53 39.242,80.756 27.78,50.84 68.518,115.875 107.573,171.73 a 26000.68,26000.68 0 0 1 18.039,25.822 c 11.16,16.029 21.943,30.787 44.687,61.162 13.67,18.258 25.513,33.917 26.317,34.798 0.803,0.88 7.921,9.886 15.817,20.012 7.896,10.125 14.812,18.139 15.37,17.808 0.557,-0.331 8.592,-10.26 17.856,-22.063 z"
         transform="matrix(0.0061,0,0,0.0061,353.271,629.944)"
         id="path239" /></g></g></svg>
