<?xml version="1.0" encoding="UTF-8" standalone="no"?>
<!-- Created with Inkscape (http://www.inkscape.org/) -->

<svg
   width="7.014462mm"
   height="7.2450881mm"
   viewBox="0 0 7.014462 7.2450881"
   version="1.1"
   id="svg1"
   xmlns="http://www.w3.org/2000/svg"
   xmlns:svg="http://www.w3.org/2000/svg">
  <defs
     id="defs1" />
  <g
     id="layer6"
     transform="translate(-318.73292,43.965028)">
    <path
       style="fill:#ffffff;fill-opacity:1;stroke:none;stroke-width:0.0502003;stroke-linecap:round;stroke-linejoin:round;stroke-dasharray:none;stroke-opacity:1"
       d="m 319.30615,-36.736282 a 0.723,0.723 0 0 1 -0.572,-0.629 c -0.014,-0.156 0.094,-0.73 0.193,-1.027 0.116,-0.345 0.363,-0.774 0.6,-1.04 0.383,-0.428 0.846,-0.73 1.39,-0.907 0.124,-0.04 0.222,-0.084 0.22,-0.097 a 0.862,0.862 0 0 0 -0.147,-0.142 2.014,2.014 0 0 1 -0.674,-1.36 c -0.057,-0.901 0.566,-1.737 1.474,-1.977996 0.246,-0.065 0.654,-0.065 0.9,0 0.215,0.057 0.5,0.189996 0.68,0.318996 0.63,0.45 0.937,1.298 0.735,2.032 -0.1,0.367 -0.344,0.759 -0.614,0.986 a 0.91,0.91 0 0 0 -0.148,0.143 c -0.004,0.013 0.056,0.042 0.133,0.064 0.192,0.055 0.545,0.208 0.729,0.315 a 3.222,3.222 0 0 1 1.35,1.671 c 0.097,0.29 0.205,0.867 0.191,1.02 a 0.704,0.704 0 0 1 -0.405,0.57 l -0.147,0.072 -2.899,0.004 c -1.594,0.002 -2.939,-0.005 -2.99,-0.015 z m 5.818,-0.468 c 0.097,-0.041 0.168,-0.135 0.168,-0.225 0,-0.122 -0.132,-0.712 -0.196,-0.877 a 2.654,2.654 0 0 0 -1.605,-1.575 c -1.346,-0.498 -2.966,-0.12 -3.708,0.865 -0.151,0.2 -0.313,0.487 -0.399,0.71 -0.064,0.165 -0.196,0.755 -0.196,0.877 0,0.088 0.07,0.183 0.163,0.224 0.102,0.044 5.667,0.045 5.773,0.002 z m -2.508,-3.429 c 0.48,-0.123 0.86,-0.493 1.024,-0.994 0.044,-0.135 0.056,-0.214 0.056,-0.399 a 1.296,1.296 0 0 0 -0.16,-0.68 1.359,1.359 0 0 0 -0.692,-0.66 1.25,1.25 0 0 0 -0.604,-0.14 c -0.24,0 -0.382,0.035 -0.626,0.153 -0.322,0.155 -0.53,0.358 -0.676,0.657 -0.113,0.23 -0.153,0.403 -0.155,0.66 -0.002,0.39 0.142,0.737 0.426,1.022 0.367,0.37 0.897,0.513 1.407,0.381 z"
       id="path289" />
  </g>
</svg>
