<?xml version="1.0" encoding="UTF-8" standalone="no"?>
<!-- Created with Inkscape (http://www.inkscape.org/) -->

<svg
   width="5.6450558mm"
   height="3.9806314mm"
   viewBox="0 0 5.6450557 3.9806313"
   version="1.1"
   id="svg1"
   xmlns="http://www.w3.org/2000/svg"
   xmlns:svg="http://www.w3.org/2000/svg">
  <defs
     id="defs1" />
  <g
     id="layer8"
     transform="translate(-346.08984,42.332796)">
    <path
       style="fill:#ffffff;fill-opacity:1;fill-rule:evenodd;stroke:none;stroke-width:0.0287262;stroke-linecap:square;stroke-dasharray:none"
       d="m 347.99936,-38.362611 c -0.233,-0.008 -0.912,-0.06 -1.06,-0.079 a 1.096,1.096 0 0 1 -0.4,-0.116 0.508,0.508 0 0 1 -0.258,-0.228 c -0.093,-0.145 -0.147,-0.372 -0.168,-0.706 -0.05,-0.805 -0.017,-1.895 0.068,-2.183 a 0.848,0.848 0 0 1 0.181,-0.327 c 0.11,-0.112 0.379,-0.23 0.52,-0.23 0.03,0 0.095,-0.009 0.144,-0.02 0.266,-0.055 1.713,-0.099 2.482,-0.074 0.964,0.03 1.302,0.058 1.575,0.126 0.28,0.07 0.453,0.227 0.53,0.48 0.155,0.515 0.164,2.12 0.014,2.702 -0.074,0.287 -0.23,0.444 -0.525,0.531 -0.288,0.085 -1.264,0.14 -2.323,0.134 -0.353,-0.004 -0.704,-0.007 -0.78,-0.01 z m 0.453,-1.156 c 0.054,-0.03 0.169,-0.097 0.255,-0.148 0.085,-0.052 0.16,-0.094 0.167,-0.094 0.007,0 0.135,-0.075 0.286,-0.167 0.15,-0.092 0.277,-0.168 0.28,-0.168 0.004,0 0.062,-0.033 0.129,-0.074 0.066,-0.04 0.125,-0.074 0.129,-0.074 a 0.537,0.537 0 0 0 0.074,-0.04 c 0.046,-0.027 0.062,-0.046 0.052,-0.064 a 0.785,0.785 0 0 0 -0.203,-0.138 0.993,0.993 0 0 1 -0.129,-0.074 1.122,1.122 0 0 0 -0.128,-0.075 0.767,0.767 0 0 1 -0.112,-0.065 0.806,0.806 0 0 0 -0.113,-0.065 0.963,0.963 0 0 1 -0.125,-0.069 4.79,4.79 0 0 0 -0.17,-0.1 c -0.03,-0.016 -0.15,-0.085 -0.267,-0.153 a 1.614,1.614 0 0 0 -0.237,-0.124 c -0.022,0 -0.026,0.146 -0.026,0.874 0,0.6 0.007,0.873 0.02,0.873 a 0.557,0.557 0 0 0 0.118,-0.055 z"
       id="path293" />
  </g>
</svg>
