<?xml version="1.0" encoding="UTF-8" standalone="no"?>
<!-- Created with Inkscape (http://www.inkscape.org/) -->

<svg
   width="164.89761mm"
   height="35.775661mm"
   viewBox="0 0 164.89761 35.775661"
   version="1.1"
   id="svg1"
   xml:space="preserve"
   inkscape:version="1.4 (86a8ad7, 2024-10-11)"
   sodipodi:docname="marcas.svg"
   xmlns:inkscape="http://www.inkscape.org/namespaces/inkscape"
   xmlns:sodipodi="http://sodipodi.sourceforge.net/DTD/sodipodi-0.dtd"
   xmlns="http://www.w3.org/2000/svg"
   xmlns:svg="http://www.w3.org/2000/svg"><sodipodi:namedview
     id="namedview1"
     pagecolor="#ffffff"
     bordercolor="#000000"
     borderopacity="0.25"
     inkscape:showpageshadow="2"
     inkscape:pageopacity="0.0"
     inkscape:pagecheckerboard="0"
     inkscape:deskcolor="#d1d1d1"
     inkscape:document-units="mm"
     inkscape:zoom="0.08"
     inkscape:cx="-2487.5"
     inkscape:cy="981.25"
     inkscape:window-width="1920"
     inkscape:window-height="1017"
     inkscape:window-x="-8"
     inkscape:window-y="-8"
     inkscape:window-maximized="1"
     inkscape:current-layer="layer1"
     showgrid="false"><inkscape:page
       x="-4.0042522e-13"
       y="0"
       width="164.89763"
       height="35.775661"
       id="page2"
       margin="0"
       bleed="0" /></sodipodi:namedview><defs
     id="defs1" /><g
     inkscape:label="Capa 1"
     inkscape:groupmode="layer"
     id="layer1"
     transform="translate(-243.26393,-624.72464)"><path
       d="m 309.46616,639.84497 c -1.10242,1.53965 -2.18335,3.08123 -3.27356,4.61996 -0.0226,0.0328 -0.0939,0.14074 -0.1586,0.25989 -0.0763,0.14075 -0.14739,0.2946 -0.19143,0.42691 -0.0929,0.30214 -0.13233,0.45598 -0.0291,0.69244 0.14368,0.22518 0.35003,0.21766 0.51515,0.22518 0.10983,0 0.3088,-0.0274 0.45986,-0.0676 a 4.468919,4.468919 0 0 0 0.87071,-0.34059 c 0.16226,-0.0844 0.1379,-0.0732 0.21288,-0.11539 0.15663,-0.0882 0.29926,-0.17451 0.47106,-0.27866 l 0.58355,-0.3575 c 0.13127,-0.0807 0.26079,-0.16325 0.39126,-0.24395 l 5.67928,-8.57845 h 1.18216 l 0.0226,-0.0328 h 3.0653 l -0.59209,0.84346 0.27867,-0.11726 a 15.415566,15.415566 0 0 1 1.17564,-0.43159 c 0.32854,-0.10508 0.69901,-0.21206 0.95799,-0.28054 0.25893,-0.0685 0.40617,-0.0994 0.56673,-0.13136 0.1613,-0.0319 0.33591,-0.0619 0.43254,-0.0779 0.16597,-0.0282 0.13423,-0.0216 0.18576,-0.03 0.16517,-0.0263 0.20083,-0.0281 0.32748,-0.0404 0.058,-0.007 0.13971,-0.0131 0.22046,-0.0196 0.0392,-0.002 0.0723,-0.005 0.17075,-0.009 0.0985,-0.002 0.26079,-0.005 0.39779,0 0.1369,0.007 0.24673,0.0196 0.33783,0.0347 0.24858,0.0413 0.42495,0.0929 0.62669,0.20737 0.18109,0.0994 0.37338,0.30585 0.45704,0.46724 0.13414,0.24303 0.18386,0.47759 0.2044,0.72902 0.012,0.14731 0.01,0.31713 -0.0126,0.50104 -0.0387,0.319 -0.0985,0.5367 -0.21117,0.79376 a 4.0767276,4.0767276 0 0 1 -0.27013,0.50289 7.8982486,7.8982486 0 0 1 -0.25527,0.38097 c -0.0805,0.11257 -0.21293,0.29178 -0.30126,0.41002 -0.0845,0.11351 -0.19691,0.26552 -0.27777,0.38092 -1.02247,1.44772 -2.05272,2.8992 -3.06891,4.34319 -0.009,0.009 -0.0976,0.15387 -0.16794,0.28991 a 2.5417388,2.5417388 0 0 0 -0.16422,0.38657 c -0.0151,0.0459 -0.0276,0.0976 -0.0352,0.12291 l -0.0105,0.0404 c -0.0291,0.14449 -0.0995,0.47475 0.16889,0.63986 0.16317,0.0883 0.31523,0.0863 0.47664,0.0751 a 2.3550254,2.3550254 0 0 0 0.32748,-0.0553 c 0.15005,-0.0366 0.35656,-0.10603 0.56673,-0.19047 0.11063,-0.0459 0.21574,-0.0957 0.27962,-0.12479 0.12379,-0.0581 0.12188,-0.0601 0.17717,-0.0863 0.10893,-0.0573 0.0976,-0.0496 0.19054,-0.10036 a 3.0962487,3.0962487 0 0 0 0.52072,-0.36313 c 0.0957,-0.0845 0.19892,-0.18483 0.274,-0.26179 0.14634,-0.15197 0.21393,-0.23455 0.31146,-0.34997 0.0731,-0.23079 0.15754,-0.45784 0.26185,-0.70366 0.10405,-0.24582 0.22794,-0.50949 0.379,-0.79381 0.15106,-0.28425 0.32839,-0.59016 0.54508,-0.92137 0.21675,-0.3312 0.47207,-0.68959 0.77404,-1.06771 0.30127,-0.37905 0.64934,-0.7797 1.06495,-1.20942 0.41572,-0.42973 0.89979,-0.88945 1.35769,-1.28918 0.4579,-0.39971 0.89044,-0.74029 1.29757,-1.03303 0.40728,-0.29274 0.7881,-0.53762 1.15781,-0.75247 0.37062,-0.21392 0.72899,-0.39782 1.01338,-0.532 a 8.3927101,8.3927101 0 0 1 1.22069,-0.47571 c 0.18109,-0.0544 0.37343,-0.10319 0.54985,-0.13978 0.17632,-0.0358 0.33492,-0.0591 0.47839,-0.0742 a 3.1187668,3.1187668 0 0 1 1.33429,0.13793 2.6871685,2.6871685 0 0 1 1.36883,1.0349 l 0.73095,-0.77406 3.67988,-0.0216 -5.3753,8.20786 c -0.11349,0.17265 -0.33215,0.49448 -0.43821,0.74032 -0.1022,0.25425 -0.23453,0.60516 0.10983,0.86691 0.17632,0.092 0.26556,0.0938 0.48221,0.0844 0.0901,-0.008 0.10988,-0.011 0.17451,-0.0196 0.10983,-0.0188 0.28058,-0.0581 0.41381,-0.0985 a 6.6297254,6.6297254 0 0 0 0.57612,-0.20736 10.442801,10.442801 0 0 0 0.92695,-0.43067 c 0.27681,-0.14074 0.42129,-0.22518 0.62493,-0.33868 0.0829,-0.27681 0.17913,-0.54796 0.30202,-0.84256 a 11.450491,11.450491 0 0 1 1.07525,-1.97881 c 0.24216,-0.35655 0.52073,-0.72994 0.84268,-1.11745 0.32267,-0.38842 0.68867,-0.79284 1.0976,-1.20189 0.40919,-0.40909 0.85765,-0.82474 1.23671,-1.14939 a 11.532119,11.532119 0 0 1 1.9094,-1.35015 13.086812,13.086812 0 0 1 1.95996,-0.90822 c 0.29283,-0.10509 0.54609,-0.18109 0.77504,-0.24019 0.22699,-0.0591 0.43254,-0.10041 0.61173,-0.12949 a 4.0016668,4.0016668 0 0 1 1.24594,-0.0206 c 0.54986,0.0883 1.18604,0.29835 1.78089,0.93354 l 0.7327,-0.77404 3.67798,-0.0216 c -0.4344,0.72715 -0.87432,1.45057 -1.31917,2.1702 a 121.64504,121.64504 0 0 1 -1.52281,2.40475 148.43886,148.43886 0 0 1 -2.15326,3.22666 104.19815,104.19815 0 0 1 -1.69732,2.38599 c -0.35379,0.48601 -0.43625,0.59203 -0.51691,0.69807 l -0.24211,0.31897 4.86397,-2.78752 5.81246,-8.28201 h 4.17429 l -0.59193,0.84348 c 0.18475,-0.0797 0.37142,-0.15669 0.561,-0.23172 0.18681,-0.0751 0.37529,-0.14732 0.71492,-0.25898 0.33863,-0.11259 0.82847,-0.26364 1.25173,-0.36873 0.42114,-0.10509 0.7786,-0.16325 0.96356,-0.19326 0.18656,-0.03 0.20163,-0.031 0.2176,-0.0337 0.0151,-0.002 0.0321,-0.005 0.12474,-0.0152 0.0921,-0.009 0.2619,-0.0274 0.41949,-0.0356 a 5.2167095,5.2167095 0 0 1 0.41551,-0.002 c 0.11556,0.005 0.20369,0.0124 0.28631,0.0216 0.25988,0.0337 0.50199,0.0919 0.72903,0.22423 0.18667,0.1032 0.38463,0.32277 0.46719,0.49258 0.24216,0.49541 0.2383,0.93731 0.1249,1.52276 a 2.9555099,2.9555099 0 0 1 -0.37067,0.87916 c -0.0402,0.0713 -0.0864,0.14169 -0.11736,0.1905 -0.0901,0.13792 -0.12284,0.18293 -0.19229,0.28242 -0.16327,0.22611 -0.25808,0.35183 -0.39408,0.53385 -1.08097,1.51622 -2.15331,3.03996 -3.2267,4.55899 -0.0236,0.0328 -0.0938,0.14072 -0.1595,0.25987 -0.0762,0.1408 -0.14624,0.2947 -0.19048,0.42695 -0.0937,0.3021 -0.13218,0.45599 -0.0291,0.6924 0.14247,0.2252 0.34998,0.21773 0.515,0.2252 0.10787,0.002 0.30966,-0.0274 0.4579,-0.0676 0.10978,-0.027 0.32266,-0.0976 0.54423,-0.18671 0.36676,-0.15201 0.79558,-0.39406 1.20372,-0.67835 a 12.194529,12.194529 0 0 1 0.90073,-1.71512 c 0.2159,-0.34621 0.48236,-0.73561 0.80126,-1.15592 0.32095,-0.42034 0.69428,-0.87168 1.13626,-1.35485 a 26.57332,26.57332 0 0 1 1.40926,-1.42147 c 0.45223,-0.42222 0.8463,-0.75154 1.2,-1.02742 0.71683,-0.55447 1.31359,-0.91855 1.97413,-1.25815 0.33215,-0.16984 0.67088,-0.32279 0.97868,-0.44755 a 10.282361,10.282361 0 0 1 1.49925,-0.48228 6.6147127,6.6147127 0 0 1 0.54805,-0.10416 c 0.16507,-0.0242 0.31517,-0.0395 0.45212,-0.0459 0.137,-0.007 0.25984,-0.007 0.35932,-0.002 0.2384,0.0123 0.40347,0.0385 0.6053,0.0975 0.27108,0.0798 0.58074,0.24865 0.80216,0.5517 a 2.1711273,2.1711273 0 0 1 0.2975,0.54983 c 0.0351,0.0891 0.0731,0.1989 0.11158,0.3312 a 6.6447375,6.6447375 0 0 1 0.21484,1.82772 4.663138,4.663138 0 0 1 -0.13689,1.0002 c 0.20173,0.0157 0.34987,0.03 0.57878,0.0178 0.28815,-0.0215 0.49642,-0.0741 0.8023,-0.20266 a 8.5268817,8.5268817 0 0 0 0.96718,-0.51041 l 0.0286,-0.0488 0.21579,-0.36027 c 0.19616,-0.32839 0.57712,-0.96734 0.85383,-1.42804 a 232.44194,232.44194 0 0 1 1.12316,-1.86711 10.518802,10.518802 0 0 1 -1.61476,-0.0488 9.5674082,9.5674082 0 0 1 -1.70395,-0.33496 8.1328125,8.1328125 0 0 1 -0.73837,-0.2533 7.2208273,7.2208273 0 0 1 -0.61544,-0.27772 6.0789683,6.0789683 0 0 1 -1.84181,-1.43369 6.1258814,6.1258814 0 0 1 -0.9167,-1.36046 c -0.52455,-1.08556 -0.52635,-2.14395 -0.11546,-3.11034 0.25994,-0.63144 0.78443,-1.44023 1.56881,-2.15612 a 6.98251,6.98251 0 0 1 2.37282,-1.44962 8.5128071,8.5128071 0 0 1 1.31641,-0.36118 11.848312,11.848312 0 0 1 2.57837,-0.20547 c 0.25145,0.009 0.47096,0.0274 0.5958,0.0385 0.12661,0.0113 0.1595,0.0168 0.19028,0.0216 0.16899,0.0274 0.27496,0.0347 0.42893,0.1126 0.13414,0.0788 -0.0497,0.16422 -0.11726,0.18861 a 2.7040571,2.7040571 0 0 1 -0.44942,0.1173 c -0.15578,0.03 -0.40165,0.0666 -0.61559,0.0966 l -0.24015,0.0337 a 29.742752,29.742752 0 0 0 -0.84444,0.12664 12.591411,12.591411 0 0 0 -1.13998,0.2402 7.9901981,7.9901981 0 0 0 -0.9955,0.32745 5.2467337,5.2467337 0 0 0 -2.173,1.63538 c -0.58079,0.74594 -0.91947,1.53406 -0.96166,2.32406 -0.0321,0.73279 0.19606,1.45053 0.77122,2.16176 0.17924,0.21859 0.37057,0.41657 0.61364,0.62301 a 6.4251847,6.4251847 0 0 0 1.04049,0.71119 8.4921659,8.4921659 0 0 0 2.23211,0.84538 c 0.70559,0.15104 1.17665,0.17917 1.7724,0.11537 0.19982,-0.0236 0.39779,-0.0619 0.59204,-0.11351 0.53659,-0.67178 1.09594,-1.32856 1.67296,-1.96845 0.57697,-0.6399 1.17278,-1.26195 1.67472,-1.76393 0.502,-0.50198 0.91103,-0.88289 1.27693,-1.21505 a 23.62907,23.62907 0 0 1 2.38789,-1.91028 c 0.44751,-0.31149 0.881,-0.58266 1.32665,-0.83412 0.4458,-0.25239 0.90174,-0.48602 1.27513,-0.66241 a 11.74135,11.74135 0 0 1 1.57528,-0.61831 5.4606569,5.4606569 0 0 1 0.43259,-0.11729 c 0.12676,-0.031 0.25612,-0.0573 0.35556,-0.0751 0.22528,-0.0394 0.30031,-0.0459 0.45981,-0.06 0.33677,-0.03 0.80411,0 1.17087,0.14918 0.29845,0.11634 0.62488,0.31244 0.89426,0.68306 0.48793,0.70088 0.41742,1.40831 0.16135,2.07445 -0.0346,0.091 -0.0746,0.18489 -0.13424,0.30309 a 5.8922551,5.8922551 0 0 1 -0.56205,0.90449 9.8010345,9.8010345 0 0 1 -1.14365,1.26288 14.846982,14.846982 0 0 1 -1.70104,1.35203 18.765144,18.765144 0 0 1 -1.26106,0.80129 35.710068,35.710068 0 0 1 -2.03033,1.10433 23.109276,23.109276 0 0 1 -1.89624,0.84628 c -0.54417,0.21299 -0.98616,0.35561 -1.40549,0.46913 a 11.268468,11.268468 0 0 1 -1.22074,0.26366 75.905003,75.905003 0 0 0 -0.83791,1.19721 c -0.27475,0.40252 -0.54594,0.80692 -0.9616,1.46932 a 70.55694,70.55694 0 0 0 -1.44964,2.40475 c -0.4692,0.82098 -0.84816,1.54246 -1.0649,1.96282 -0.21766,0.42129 -0.27305,0.54232 -0.3302,0.66335 a 17.00122,17.00122 0 0 0 -0.35189,0.775 c -0.0573,0.14073 -0.11168,0.28057 -0.15015,0.38281 -0.0678,0.17641 -0.0985,0.28243 -0.13891,0.4194 a 2.2330521,2.2330521 0 0 0 -0.0985,0.59769 c 0,0.15949 0.0402,0.4175 0.2515,0.52729 0.19977,0.10415 0.46905,0.10039 0.69433,0.0479 0.17442,-0.0367 0.42677,-0.13888 0.6615,-0.26176 0.0654,-0.0348 0.18475,-0.0985 0.32075,-0.17643 0.0797,-0.046 0.16331,-0.0938 0.24582,-0.14448 0.10039,-0.2824 0.21585,-0.55918 0.36495,-0.86695 0.14649,-0.30774 0.32853,-0.64832 0.54614,-1.01518 0.21956,-0.36686 0.47663,-0.75718 0.78628,-1.17844 0.3078,-0.4213 0.66903,-0.87258 1.11091,-1.36612 0.44188,-0.49352 0.96351,-1.02928 1.43447,-1.47679 0.46925,-0.44756 0.88673,-0.80504 1.26302,-1.10153 a 12.250825,12.250825 0 0 1 3.88353,-2.08483 c 0.24763,-0.0778 0.46905,-0.13696 0.67068,-0.18389 0.20178,-0.047 0.38292,-0.0798 0.54794,-0.10415 0.16698,-0.0242 0.31714,-0.0394 0.45233,-0.0459 0.1369,-0.007 0.2618,-0.007 0.36123,-0.002 a 2.4394688,2.4394688 0 0 1 0.60791,0.0975 c 0.27867,0.0816 0.60153,0.25616 0.83234,0.57233 0.24758,0.33967 0.36298,0.70278 0.44188,1.06401 0.0236,0.106 0.0442,0.21859 0.064,0.37059 0.0196,0.15199 0.0382,0.34247 0.0487,0.55734 a 7.8625953,7.8625953 0 0 1 -0.41476,2.81475 7.6571175,7.6571175 0 0 0 1.43085,0 c 0.26742,-0.0254 0.56116,-0.0648 0.89421,-0.12759 a 13.253821,13.253821 0 0 0 2.45152,-0.72245 c 0.55181,-0.21956 1.24243,-0.5273 2.03992,-0.95702 0.79748,-0.42973 1.70013,-0.97861 2.57269,-1.57065 l 0.34436,1.1944 -0.20927,0.16513 a 5.8631689,5.8631689 0 0 1 -0.30398,0.23082 c -0.16517,0.12101 -0.42505,0.30773 -0.70367,0.4813 -0.27691,0.17358 -0.57341,0.33497 -0.76193,0.4363 -0.18667,0.10036 -0.26918,0.14165 -0.35179,0.18391 -0.15392,0.0788 -0.30036,0.15853 -0.43631,0.23267 -0.0663,0.0355 -0.13047,0.0704 -0.2749,0.15858 -0.14639,0.0891 -0.37348,0.23081 -0.58265,0.37813 a 6.1108692,6.1108692 0 0 0 -0.6062,0.48788 11.702882,11.702882 0 0 0 -0.9269,0.9533 18.025796,18.025796 0 0 0 -0.7103,0.87068 c -0.30589,0.39219 -0.61173,0.81347 -0.92319,1.25352 -0.1614,0.22892 -0.32286,0.45971 -0.57155,0.82472 a 83.932726,83.932726 0 0 0 -1.91311,2.93393 102.30663,102.30663 0 0 0 -2.08009,3.46686 c -1.20944,0.015 -2.41873,0.031 -3.62636,0.0496 -1.20933,0.0188 -2.41691,0.0366 -3.46118,0.0573 a 501.23668,501.23668 0 0 0 -5.63332,0.13042 c -1.06119,0.0328 -2.30342,0.0751 -3.54379,0.12854 -1.23847,0.0516 -2.47984,0.1154 -3.64509,0.18671 -1.1672,0.0713 -2.25747,0.15198 -3.34778,0.24394 -1.09027,0.092 -2.18038,0.19608 -3.48554,0.36688 a 77.800283,77.800283 0 0 0 -4.26449,0.68492 48.6674,48.6674 0 0 0 -4.28594,1.01894 90.720086,90.720086 0 0 0 -4.06446,1.28635 c -1.00213,0.3387 -1.41861,0.49447 -1.83432,0.64833 -0.41748,0.15387 -0.8341,0.30586 -1.25162,0.45787 l -3.2933,-1.52654 c 0.63618,-0.19987 1.27327,-0.39595 1.9113,-0.58829 0.63604,-0.19424 1.27503,-0.38656 1.84361,-0.55358 0.56959,-0.16512 1.07053,-0.30397 1.57072,-0.44566 0.50009,-0.13886 1.00007,-0.28427 2.44599,-0.63053 1.44773,-0.3462 3.84124,-0.89603 6.64289,-1.29385 2.8016,-0.39781 6.01424,-0.64177 8.03709,-0.77497 2.02093,-0.13422 2.85503,-0.15764 3.68927,-0.18486 0.83405,-0.0274 1.66719,-0.0582 2.75098,-0.0882 1.08454,-0.0274 2.42058,-0.0536 3.75672,-0.0732 4.05332,-0.0581 8.20216,-0.0581 12.34567,-0.0572 l 0.89215,-1.35203 0.81918,-1.23005 c 0.22137,-0.33216 0.3668,-0.54607 0.51133,-0.75906 0.14454,-0.21487 0.28987,-0.42878 0.56759,-0.83035 0.27871,-0.40347 0.69056,-0.99363 1.09403,-1.54815 0.40341,-0.5545 0.79558,-1.07522 1.11558,-1.49745 a 334.43333,334.43333 0 0 1 1.57252,-2.01444 c -0.27124,0.0844 -0.60992,0.18954 -0.89597,0.27302 -0.17642,0.0517 -0.38287,0.10792 -0.6062,0.16701 -0.39211,0.10041 -0.94578,0.2177 -1.43281,0.26179 -0.17723,0.017 -0.36299,0.029 -0.59756,0.0347 -0.23458,0.005 -0.52073,0.003 -0.71869,0 -0.37715,-0.008 -0.51696,-0.0168 -0.76093,-0.0255 -0.24583,0.33494 -0.50375,0.66147 -0.77122,0.9805 a 17.167292,17.167292 0 0 1 -2.03038,2.03225 16.04232,16.04232 0 0 1 -2.67037,1.81926 c -0.48216,0.26179 -0.98792,0.50572 -1.46084,0.70561 -0.47291,0.20171 -0.91289,0.35747 -1.1897,0.44939 a 6.4298762,6.4298762 0 0 1 -0.50194,0.15201 6.5753065,6.5753065 0 0 1 -1.1673,0.2111 c -0.63599,0.0404 -1.1878,-0.0149 -1.77788,-0.3753 a 2.0566597,2.0566597 0 0 1 -0.73471,-0.81721 2.1955219,2.1955219 0 0 1 -0.21564,-0.95797 c -0.0346,0.0254 -0.0678,0.0535 -0.10049,0.0788 a 3.6498204,3.6498204 0 0 1 -0.24588,0.18109 c -0.36112,0.26929 -1.24971,0.85568 -1.94781,1.20377 -0.35184,0.17919 -0.66526,0.32277 -0.93449,0.43255 a 8.5221901,8.5221901 0 0 1 -0.69609,0.25143 7.3306042,7.3306042 0 0 1 -0.55733,0.14261 4.8057534,4.8057534 0 0 1 -0.42697,0.0657 3.1028165,3.1028165 0 0 1 -0.51686,0.0171 c -0.2638,-0.0171 -0.57717,-0.0695 -0.84841,-0.26367 -0.31513,-0.24207 -0.39965,-0.50197 -0.46152,-0.76749 a 2.8025742,2.8025742 0 0 1 -0.0402,-0.6577 4.8977023,4.8977023 0 0 1 0.13413,-0.85572 7.2245802,7.2245802 0 0 1 0.20922,-0.70931 c 0.0882,-0.26557 0.25988,-0.7037 0.43631,-1.09589 0.0846,-0.19233 0.16326,-0.35935 0.24205,-0.52637 0.38273,-0.78439 0.72718,-1.40737 1.1532,-2.16083 0.15,-0.26551 0.29167,-0.50849 0.43806,-0.76185 l -0.10405,0.0544 a 5.0975511,5.0975511 0 0 1 -0.45424,0.19704 c -0.12284,0.046 -0.25145,0.0891 -0.40723,0.13229 -0.15563,0.0432 -0.34049,0.0863 -0.47282,0.11541 -0.25421,0.0554 -0.36494,0.0713 -0.53855,0.10416 a 19.470712,19.470712 0 0 1 -2.00416,2.52484 15.708302,15.708302 0 0 1 -2.0576,1.84555 c -0.33863,0.2533 -0.68022,0.48601 -1.0405,0.70743 a 15.664205,15.664205 0 0 1 -3.35893,1.54906 7.453515,7.453515 0 0 1 -0.47096,0.13886 7.7096592,7.7096592 0 0 1 -0.79944,0.16891 4.2334163,4.2334163 0 0 1 -1.00766,0.0385 c -0.53298,-0.0637 -1.01519,-0.17917 -1.53968,-0.70371 -0.45222,-0.50381 -0.54423,-0.99359 -0.55357,-1.48429 0,-0.0882 0.009,-0.18108 0.0115,-0.24394 0.009,-0.11916 0.0151,-0.15203 0.0236,-0.22144 l -0.13218,0.25332 -0.16522,0.0985 c -0.0557,0.0328 -0.11169,0.0658 -0.22705,0.13039 -0.1154,0.0658 -0.28981,0.16516 -0.50942,0.28242 -0.21961,0.11731 -0.48603,0.25335 -0.6747,0.34812 -0.19044,0.0957 -0.30393,0.15011 -0.40151,0.19796 -0.17637,0.0863 -0.30222,0.14639 -0.42696,0.20362 -0.0572,0.0274 -0.11169,0.0536 -0.25788,0.11541 -0.14468,0.0637 -0.38483,0.16511 -0.6175,0.25141 -0.45218,0.1689 -0.92515,0.29465 -1.39987,0.37909 -0.229,0.0404 -0.45032,0.0676 -0.64361,0.0826 -0.1942,0.015 -0.36128,0.0188 -0.50571,0.015 a 3.075607,3.075607 0 0 1 -0.64934,-0.0732 c -0.31905,-0.0826 -0.60143,-0.16701 -0.8687,-0.50945 -0.25627,-0.38657 -0.22539,-0.73655 -0.17642,-1.1109 a 4.1752445,4.1752445 0 0 1 0.17069,-0.64836 c 0.0558,-0.15201 0.12289,-0.3209 0.20736,-0.49636 0.0829,-0.17449 0.18109,-0.35558 0.25341,-0.4785 0.12856,-0.22705 0.17913,-0.29271 0.26727,-0.42127 1.23866,-1.78082 2.47979,-3.56069 3.71835,-5.3415 0.0151,-0.0216 0.0762,-0.11538 0.13424,-0.21393 0.2401,-0.46159 0.44555,-0.91758 -0.0231,-1.32012 -0.28801,-0.19608 -0.56668,-0.19889 -0.87252,-0.15669 -0.22518,0.0385 -0.34445,0.0873 -0.51515,0.14075 a 2.6815391,2.6815391 0 0 0 -0.89983,0.48789 1.400818,1.400818 0 0 0 -0.23829,0.25522 l -6.58278,9.37507 h -4.1743 l 1.04612,-1.48997 -4.63968,2.19741 -0.0221,0.0255 -0.17447,0.20925 a 85.822386,85.822386 0 0 1 -1.68049,1.94969 c -0.25321,0.28803 -0.43993,0.49448 -0.62659,0.7018 -0.72341,0.80222 -1.46561,1.64386 -2.22463,2.47234 a 51.782418,51.782418 0 0 1 -0.87914,0.93637 c -0.1154,0.12102 -0.22895,0.24205 -0.50014,0.50571 a 33.542693,33.542693 0 0 1 -1.10528,1.03677 18.014538,18.014538 0 0 1 -2.41134,1.79958 13.901218,13.901218 0 0 1 -2.21056,1.11747 c -0.28992,0.11352 -0.50561,0.1867 -0.69604,0.24583 a 7.7828431,7.7828431 0 0 1 -0.48236,0.13042 4.1245786,4.1245786 0 0 1 -0.31151,0.0637 3.8102624,3.8102624 0 0 1 -0.56759,0.0554 1.827725,1.827725 0 0 1 -0.49832,-0.0601 c -0.18853,-0.0553 -0.36294,-0.14262 -0.49627,-0.34057 a 0.91292423,0.91292423 0 0 1 -0.13891,-0.42129 c -0.0236,-0.16699 -0.009,-0.50758 0.0573,-0.78438 0.0266,-0.13231 0.0678,-0.28616 0.11726,-0.45036 0.0256,-0.0901 0.0527,-0.17731 0.12103,-0.35749 0.0663,-0.17918 0.17461,-0.4494 0.31533,-0.75153 a 12.458179,12.458179 0 0 1 1.16057,-1.94969 c 0.44188,-0.60329 0.89607,-1.12123 1.47118,-1.64948 0.28244,-0.25799 0.59395,-0.52071 0.94955,-0.78812 0.3537,-0.26743 0.75159,-0.53857 1.27327,-0.85568 a 28.816694,28.816694 0 0 1 3.76983,-1.89155 c 0.6287,-0.25614 1.22254,-0.46536 1.82307,-0.64644 l 0.5151,-0.82849 c -0.0846,0.0422 -0.16889,0.0807 -0.25436,0.11727 a 4.9183441,4.9183441 0 0 1 -1.5321,0.34811 c -0.47844,0.0274 -0.92881,0 -1.42242,-0.1426 -0.36489,-0.11355 -0.72331,-0.27866 -1.07053,-0.65211 -0.45036,-0.51508 -0.57139,-1.01706 -0.63803,-1.5303 a 4.0664065,4.0664065 0 0 1 -0.0236,-0.54043 c 0,-0.0657 0,-0.13231 0.01,-0.19985 -0.15192,0.0807 -0.30207,0.16327 -0.45213,0.24396 l -0.60339,0.32837 c -0.30393,0.16514 -0.75902,0.41379 -1.21305,0.66522 l -1.16916,0.65396 c -0.25989,0.14639 -0.3321,0.18486 -0.40337,0.22519 a 7.7462507,7.7462507 0 0 1 -0.52464,0.26554 3.2735794,3.2735794 0 0 1 -1.99939,0.26741 c -0.29454,-0.0554 -0.63794,-0.15388 -0.93077,-0.38655 a 1.3980033,1.3980033 0 0 1 -0.48678,-1.37271 8.8881102,8.8881102 0 0 1 -1.33242,0.88855 c -0.21951,0.11728 -0.51696,0.26742 -0.81727,0.3978 -0.29836,0.13042 -0.59947,0.24209 -0.85745,0.32653 -0.25818,0.0844 -0.47292,0.13885 -0.63247,0.17639 -0.28996,0.0658 -0.44755,0.0826 -0.65114,0.1004 -0.2514,0.0188 -0.47764,0.017 -0.74958,-0.0347 -0.42702,-0.0882 -0.80798,-0.25614 -1.21888,-0.73843 -0.50104,-0.6305 -0.65772,-1.29199 -0.67364,-1.98628 l -0.0694,0.062 -0.29554,0.26551 -0.30679,0.26929 c -0.13509,0.11727 -0.11731,0.10036 -0.17079,0.14636 -0.0716,0.06 -0.20259,0.17074 -0.27671,0.21766 -0.0716,0.046 -0.064,0.0404 -0.10416,0.0619 l -0.38744,0.21487 c -0.1014,0.0554 -0.21017,0.11164 -0.32191,0.17076 -0.10883,0.0573 -0.34707,0.1792 -0.57612,0.29461 -0.12103,0.06 -0.22328,0.10978 -0.28525,0.13888 -0.12941,0.0637 -0.12097,0.06 -0.18104,0.0882 a 13.998798,13.998798 0 0 1 -0.33225,0.15763 c -0.0291,0.015 -0.0564,0.0255 -0.0811,0.0385 -0.0241,0.009 -0.12108,0.0536 -0.21961,0.0958 -0.12008,0.0516 -0.23925,0.0985 -0.35561,0.14448 -0.0572,0.0215 -0.11355,0.0459 -0.25707,0.0976 a 8.8064819,8.8064819 0 0 1 -1.31726,0.34998 c -0.22624,0.0385 -0.43254,0.0637 -0.62212,0.0788 -0.18948,0.0152 -0.36028,0.0196 -0.50667,0.017 a 3.3448869,3.3448869 0 0 1 -0.36695,-0.0235 2.1626827,2.1626827 0 0 1 -0.71116,-0.18859 c -0.23452,-0.0985 -0.50008,-0.36687 -0.56853,-0.57142 -0.10888,-0.26551 -0.11069,-0.54792 -0.0779,-0.8097 0.0331,-0.27302 0.10983,-0.55169 0.22895,-0.86694 0.0901,-0.23268 0.19505,-0.45412 0.30207,-0.65211 0.0502,-0.0938 0.10415,-0.19045 0.1389,-0.25145 0.0708,-0.1229 0.0994,-0.16324 0.15292,-0.24581 1.26669,-1.82679 2.53986,-3.647 3.81217,-5.47848 l 0.0387,-0.061 c 0.1032,-0.15762 0.27113,-0.46067 0.31804,-0.72057 0.0457,-0.26739 0.0392,-0.50948 -0.25432,-0.74499 -0.26646,-0.17918 -0.49918,-0.18856 -0.77122,-0.16888 a 2.4488512,2.4488512 0 0 0 -0.48698,0.11259 5.6614436,5.6614436 0 0 0 -0.36594,0.12854 2.7237608,2.7237608 0 0 0 -0.46438,0.25239 1.6241232,1.6241232 0 0 0 -0.43727,0.40345 l -1.40735,2.00317 -8.96695,13.54377 h -4.04372 l 5.04867,-7.62522 -0.0497,0.0274 c -0.0166,0.0113 -0.0331,0.0196 -0.12861,0.0751 -0.0957,0.0534 -0.27023,0.15198 -0.4907,0.26929 -0.22051,0.11725 -0.48512,0.25332 -0.67455,0.3481 -0.18953,0.0957 -0.30418,0.15012 -0.4016,0.19796 a 15.258877,15.258877 0 0 1 -1.30049,0.57046 c -0.45408,0.16888 -0.92695,0.29461 -1.40082,0.37904 -0.23071,0.0404 -0.45032,0.0675 -0.64462,0.0826 -0.1941,0.0152 -0.36123,0.0188 -0.50471,0.0152 -0.14438,-0.003 -0.26455,-0.0132 -0.37147,-0.0255 -0.10702,-0.0123 -0.19897,-0.031 -0.27776,-0.0479 -0.31814,-0.0826 -0.60143,-0.16701 -0.86704,-0.50945 -0.25793,-0.38471 -0.227,-0.73655 -0.17728,-1.11092 0.0115,-0.0732 0.0261,-0.15012 0.0522,-0.25612 a 4.5270911,4.5270911 0 0 1 0.32467,-0.88854 c 0.0838,-0.17451 0.18204,-0.3556 0.25245,-0.4785 0.13042,-0.22709 0.18009,-0.29274 0.26822,-0.42128 1.2461,-1.79021 2.49396,-3.57945 3.73714,-5.36967 0.0321,-0.0451 0.0864,-0.13228 0.14072,-0.23268 0.16145,-0.29649 0.26757,-0.60236 0.20841,-0.88852 -0.0221,-0.20925 -0.31342,-0.47665 -0.52831,-0.51606 a 1.338893,1.338893 0 0 0 -0.60143,-0.0254 c -0.11907,0.0178 -0.26079,0.0563 -0.42315,0.11445 a 3.9444331,3.9444331 0 0 0 -1.11382,0.66802 c -0.0881,0.13699 -0.15553,0.23457 -0.25235,0.36782 -0.0829,0.11445 -0.14915,0.20359 -0.18948,0.25801 -0.10034,0.13418 -0.2514,0.33401 -0.35561,0.48133 l -5.99917,8.36926 h -4.1743 c 2.0013,-2.8645 4.00541,-5.72995 6.00485,-8.59633 0.0828,-0.11726 0.28424,-0.46818 0.3322,-0.70369 0.0632,-0.29648 0.0662,-0.55356 -0.23929,-0.80126 -0.29092,-0.19609 -0.56864,-0.1989 -0.87357,-0.1567 -0.12008,0.0178 -0.26079,0.0563 -0.42124,0.11354 -0.29464,0.10884 -0.68871,0.31902 -1.07149,0.63238 l -6.67864,9.51299 h -4.17505 l 1.21782,-1.73577 c -0.11545,0.0713 -0.15312,0.0957 -0.25155,0.15386 a 59.588713,59.588713 0 0 1 -0.22985,0.13701 c -0.36957,0.21484 -0.86323,0.48223 -1.3154,0.7187 l -0.58923,0.31148 c -0.26456,0.14264 -0.50199,0.26742 -0.73938,0.37343 -0.14358,0.0657 -0.45318,0.19048 -0.7085,0.24583 -0.62749,0.12478 -1.28713,0.14261 -2.01149,-0.213 a 1.4355334,1.4355334 0 0 1 -0.41004,-0.33211 1.3717321,1.3717321 0 0 1 -0.30112,-1.18973 9.1461307,9.1461307 0 0 1 -1.33243,0.88853 9.9239458,9.9239458 0 0 1 -1.67562,0.72432 c -0.25808,0.0844 -0.47191,0.13888 -0.63236,0.1764 -0.28912,0.0658 -0.44671,0.0826 -0.6502,0.10039 a 2.6608974,2.6608974 0 0 1 -0.92429,-0.0751 c -0.33587,-0.0976 -0.64642,-0.25993 -0.98038,-0.62302 -0.6746,-0.79187 -0.79106,-1.69541 -0.71598,-2.50326 a 5.3668312,5.3668312 0 0 1 0.0618,-0.42127 l -0.32382,0.23642 c -0.10797,0.0769 -0.21579,0.15578 -0.49722,0.34249 a 27.350195,27.350195 0 0 1 -1.18699,0.7459 17.741505,17.741505 0 0 1 -2.47788,1.20567 c -0.37434,0.14448 -0.73843,0.2674 -1.09027,0.37342 -0.35184,0.10602 -0.69052,0.19234 -1.018,0.26176 -0.32743,0.0694 -0.64175,0.12478 -0.91013,0.16326 a 7.8034849,7.8034849 0 0 1 -1.20471,0.077 3.7689788,3.7689788 0 0 1 -0.57416,-0.0535 c -0.3651,-0.0618 -0.74963,-0.17075 -1.1081,-0.45786 a 1.8558727,1.8558727 0 0 1 -0.41566,-0.49446 c -0.18858,-0.33307 -0.26833,-0.61737 -0.33497,-0.97297 a 4.2127747,4.2127747 0 0 1 -0.0497,-0.37344 5.6107776,5.6107776 0 0 1 -0.0221,-0.46911 6.6991564,6.6991564 0 0 1 0.0226,-0.57706 c 0.0166,-0.20547 0.0427,-0.42312 0.0829,-0.65769 0.0387,-0.23268 0.092,-0.48413 0.16226,-0.75154 0.0708,-0.26552 0.15874,-0.54796 0.22905,-0.75907 0.16045,-0.46631 0.229,-0.62112 0.36118,-0.94104 0.2177,-0.51794 0.53569,-1.17285 0.83796,-1.74705 a 68.933754,68.933754 0 0 1 0.96914,-1.77989 c 0.20545,-0.36495 0.38563,-0.67085 0.53579,-0.92137 0.29178,-0.48695 0.50666,-0.82471 0.77122,-1.22631 -1.74985,0.17266 -3.50341,0.30496 -5.19426,0.40441 -1.68978,0.0985 -3.31574,0.1642 -5.36028,0.0957 -2.04529,-0.0685 -4.51011,-0.27213 -6.11076,-0.39876 -1.6016,-0.12575 -2.33918,-0.17546 -3.07665,-0.22615 l -2.21237,-0.15481 3.38806,-1.49557 1.22822,0.18108 c 0.40904,0.06 0.81818,0.11916 1.32941,0.19141 0.51043,0.0722 1.12411,0.15575 1.7378,0.23457 1.22721,0.15669 2.45247,0.29177 3.67697,0.38844 a 51.196005,51.196005 0 0 0 4.45854,0.15386 c 1.01624,-0.0104 2.24903,-0.0516 3.16946,-0.091 0.92047,-0.0394 1.52943,-0.0779 2.13824,-0.11542 l 1.82588,-0.1154 a 33.448869,33.448869 0 0 1 4.98871,-5.19697 27.216965,27.216965 0 0 1 3.85249,-2.70125 25.947503,25.947503 0 0 1 1.9197,-1.00676 c 0.62955,-0.29742 1.24413,-0.55356 1.83527,-0.77312 0.59108,-0.21956 1.15952,-0.40345 1.70008,-0.55359 0.54051,-0.1501 1.05561,-0.26832 1.51156,-0.35464 0.45684,-0.0873 0.85559,-0.14356 1.21506,-0.18109 0.36113,-0.0385 0.68389,-0.0572 0.94669,-0.0628 0.2636,-0.007 0.46724,0 0.64547,0.009 0.17828,0.0105 0.32944,0.0254 0.46639,0.044 0.4813,0.0751 0.86222,0.14827 1.34352,0.45882 0.43435,0.30121 0.60901,0.68587 0.64934,1.01894 0.0442,0.41755 -0.0855,0.79658 -0.31247,1.20287 a 5.7477634,5.7477634 0 0 1 -0.67173,0.9195 11.399825,11.399825 0 0 1 -0.54519,0.577 9.6452847,9.6452847 0 0 1 -0.53674,0.50291 22.046228,22.046228 0 0 1 -3.11407,2.32409 30.255981,30.255981 0 0 1 -2.68242,1.48336 32.322961,32.322961 0 0 1 -3.21259,1.35392 32.322021,32.322021 0 0 1 -6.88962,1.65695 c -0.22805,0.31806 -0.44384,0.64365 -0.64929,0.97579 a 16.336935,16.336935 0 0 0 -1.13908,2.21053 c -0.16803,0.39968 -0.31618,0.7994 -0.43997,1.17752 a 13.154366,13.154366 0 0 0 -0.2975,1.06397 c -0.0755,0.3284 -0.13133,0.62583 -0.16799,0.87446 a 7.1194954,7.1194954 0 0 0 -0.082,1.07994 c 0,0.13603 0.009,0.25146 0.0196,0.35371 0.0362,0.31902 0.0976,0.56486 0.23834,0.81348 0.13504,0.24771 0.42134,0.456 0.62669,0.52729 0.3651,0.14074 0.76098,0.16139 1.16263,0.12667 0.56663,-0.0517 1.1774,-0.22894 1.77687,-0.48883 0.18576,-0.0807 0.38006,-0.17264 0.59204,-0.28242 a 13.906847,13.906847 0 0 0 2.21433,-1.46555 c 0.16798,-0.3331 0.35194,-0.65772 0.56778,-0.99926 0.21665,-0.34058 0.46629,-0.69712 0.76268,-1.07804 0.2965,-0.38092 0.64276,-0.78626 1.06024,-1.22443 0.41752,-0.43814 0.90827,-0.90823 1.37556,-1.32013 0.46724,-0.41188 0.91103,-0.76561 1.32856,-1.06866 a 13.64226,13.64226 0 0 1 2.21619,-1.31734 c 0.55347,-0.25894 0.84534,-0.35934 1.2253,-0.47754 0.1811,-0.0544 0.37339,-0.10322 0.54981,-0.13981 0.17647,-0.0356 0.33501,-0.0591 0.47849,-0.0741 a 3.1187668,3.1187668 0 0 1 1.33428,0.13791 2.6824773,2.6824773 0 0 1 1.36884,1.03488 l 0.73099,-0.77404 3.67883,-0.0216 -5.37334,8.20789 c -0.1145,0.17262 -0.3321,0.49444 -0.43821,0.74028 -0.10597,0.25423 -0.22333,0.60518 0.0958,0.85942 0.24105,0.13887 0.4127,0.12105 0.67269,0.0938 0.59384,-0.0938 1.16057,-0.38095 1.83427,-0.8482 0.33225,-0.23267 0.74776,-0.56481 1.14932,-0.92888 l 5.60711,-7.98643 h 4.1753 l -0.56487,0.80313 a 16.534907,16.534907 0 0 1 1.17007,-0.44659 c 0.27098,-0.0901 0.63231,-0.20266 0.94473,-0.28897 a 10.908179,10.908179 0 0 1 1.51437,-0.31244 5.7074186,5.7074186 0 0 1 0.94659,-0.0516 c 0.19796,0.007 0.34259,0.0263 0.50395,0.0581 0.32457,0.0722 0.60243,0.17639 0.8585,0.49354 0.25426,0.34527 0.30303,0.66052 0.31714,1.03208 a 15.506576,15.506576 0 0 1 1.1202,-0.52262 c 0.25521,-0.106 0.58922,-0.23925 0.94111,-0.36213 0.35189,-0.12294 0.72055,-0.23553 1.0406,-0.32372 0.31995,-0.0882 0.59103,-0.15295 0.84811,-0.20456 0.25607,-0.0516 0.49727,-0.091 0.70377,-0.11821 a 5.7046038,5.7046038 0 0 1 0.9495,-0.0516 c 0.11435,0.003 0.20078,0.0113 0.28143,0.0216 0.26089,0.0328 0.50757,0.092 0.73567,0.22518 0.18661,0.10416 0.38368,0.32275 0.46624,0.49352 0.2412,0.49541 0.23638,0.93544 0.12384,1.52092 -0.0648,0.29086 -0.18672,0.57328 -0.36876,0.87915 a 7.4610213,7.4610213 0 0 1 -0.11727,0.19045 c -0.091,0.13793 -0.12288,0.18297 -0.19334,0.28242 -0.0938,0.1398 -0.22986,0.32088 -0.33672,0.46538 z m -37.04896,-5.22988 a 21.90643,21.90643 0 0 0 1.88313,-0.46913 c 0.57793,-0.1717 1.0967,-0.35371 1.60522,-0.55824 0.50857,-0.20456 1.00585,-0.43069 1.56042,-0.72059 0.55352,-0.289 1.16334,-0.64083 1.72544,-1.00018 0.56201,-0.35934 1.07701,-0.7262 1.37818,-0.94671 0.30127,-0.22049 0.38759,-0.29368 0.47492,-0.36685 0.17622,-0.14635 0.37339,-0.31151 0.57326,-0.50289 0.1022,-0.0976 0.20163,-0.19707 0.27586,-0.27399 a 4.9070849,4.9070849 0 0 0 0.33491,-0.38564 c 0.13318,-0.17074 0.30955,-0.42596 0.4128,-0.638 0.15664,-0.30774 0.24111,-0.57983 0.27214,-0.82847 0.0332,-0.30121 0.0276,-0.68494 -0.30402,-0.96735 -0.47096,-0.33121 -0.91104,-0.27115 -1.38677,-0.22143 a 5.0224905,5.0224905 0 0 0 -0.75254,0.1623 10.855635,10.855635 0 0 0 -1.46832,0.54325 c -0.42777,0.19049 -1.03391,0.47947 -1.57528,0.76656 -0.54237,0.28713 -1.02086,0.57236 -1.44964,0.85476 -0.42877,0.28242 -0.80693,0.56108 -1.19156,0.87258 -0.38478,0.31244 -0.77504,0.65585 -1.20843,1.0865 -0.43355,0.42973 -0.91013,0.94578 -1.30892,1.40458 a 26.774108,26.774108 0 0 0 -1.92351,2.51453 24.314935,24.314935 0 0 0 2.07271,-0.32559 z m 4.35524,8.74178 a 5.3499424,5.3499424 0 0 0 -0.0467,0.33025 c -0.0161,0.15762 -0.0151,0.19421 -0.0181,0.28616 0.009,0.28805 -0.009,0.65396 0.32461,0.94951 0.23358,0.17454 0.47096,0.17264 0.68113,0.16701 0.33215,-0.0168 0.74968,-0.13416 1.13064,-0.29271 0.12103,-0.0498 0.24864,-0.10605 0.41085,-0.1886 a 7.5220079,7.5220079 0 0 0 1.15701,-0.73279 8.9021838,8.9021838 0 0 0 1.22063,-1.14186 9.8441942,9.8441942 0 0 0 1.52748,-2.28935 c 0.12666,-0.2627 0.23458,-0.51793 0.32085,-0.75341 0.0864,-0.23552 0.15302,-0.44945 0.19616,-0.60895 0.0442,-0.1595 0.0678,-0.2627 0.0872,-0.36778 0.0196,-0.10415 0.0362,-0.21017 0.0487,-0.28898 0.0256,-0.21487 0.0301,-0.33779 0.0221,-0.50854 -0.0266,-0.2918 -0.0587,-0.56295 -0.37343,-0.81535 -0.44284,-0.27021 -0.8125,-0.17637 -1.29948,-0.0282 -0.30775,0.10317 -0.75048,0.32554 -1.1446,0.57514 a 6.1896828,6.1896828 0 0 0 -0.44389,0.29836 c -0.22037,0.15858 -0.55066,0.4072 -0.85469,0.66429 a 10.818105,10.818105 0 0 0 -0.82747,0.77688 c -0.94111,0.97672 -1.46279,1.8953 -1.79956,2.80726 -0.0855,0.23455 -0.15679,0.47479 -0.21017,0.67462 -0.0511,0.19513 -0.0846,0.34901 -0.10797,0.48696 z m 50.87906,0 a 6.376396,6.376396 0 0 0 -0.0487,0.33025 c -0.0151,0.15762 -0.0151,0.19421 -0.0166,0.28616 0.009,0.28805 -0.009,0.65396 0.32462,0.94951 0.23271,0.17454 0.47096,0.17264 0.68218,0.16701 0.3322,-0.0168 0.74772,-0.13416 1.12858,-0.29271 0.12118,-0.0498 0.24964,-0.10605 0.41205,-0.1886 a 7.5173164,7.5173164 0 0 0 1.15596,-0.73279 8.7952232,8.7952232 0 0 0 1.22063,-1.14186 9.7897763,9.7897763 0 0 0 1.52843,-2.28935 7.9977044,7.9977044 0 0 0 0.51701,-1.36236 4.6509411,4.6509411 0 0 0 0.13409,-0.65676 c 0.0266,-0.21487 0.0321,-0.33779 0.0236,-0.50854 -0.0266,-0.2918 -0.0595,-0.56295 -0.37343,-0.81535 -0.44374,-0.27021 -0.81165,-0.17637 -1.29943,-0.0282 -0.30784,0.10317 -0.75158,0.32554 -1.14561,0.57514 a 6.6541195,6.6541195 0 0 0 -0.44389,0.29836 c -0.21951,0.15858 -0.54985,0.4072 -0.85564,0.66429 -0.30408,0.25709 -0.58264,0.52261 -0.82661,0.77688 -0.94207,0.97672 -1.46275,1.8953 -1.79962,2.80726 a 7.9282729,7.9282729 0 0 0 -0.21102,0.67462 5.7477634,5.7477634 0 0 0 -0.10692,0.48696 z m 14.74556,0 a 4.6068426,4.6068426 0 0 0 -0.0467,0.33025 c -0.0166,0.15762 -0.0151,0.19421 -0.0186,0.28616 0.01,0.28805 -0.009,0.65396 0.32447,0.94951 0.23281,0.17454 0.4711,0.17264 0.68213,0.16701 0.33225,-0.0168 0.74977,-0.13416 1.12883,-0.29271 0.12103,-0.0498 0.24949,-0.10605 0.4118,-0.1886 a 7.6177103,7.6177103 0 0 0 1.15786,-0.73279 9.0110215,9.0110215 0 0 0 1.22069,-1.14186 9.8395037,9.8395037 0 0 0 1.52662,-2.28935 8.4424375,8.4424375 0 0 0 0.51882,-1.36236 4.5139553,4.5139553 0 0 0 0.13414,-0.65676 c 0.0261,-0.21487 0.0291,-0.33779 0.0221,-0.50854 -0.0266,-0.2918 -0.058,-0.56295 -0.37343,-0.81535 -0.44203,-0.27021 -0.81165,-0.17637 -1.29958,-0.0282 -0.30764,0.10317 -0.75153,0.32554 -1.14551,0.57514 a 6.6541195,6.6541195 0 0 0 -0.44379,0.29836 c -0.21966,0.15858 -0.54985,0.4072 -0.85388,0.66429 -0.30398,0.25709 -0.5826,0.52261 -0.82842,0.77688 -0.94021,0.97672 -1.46275,1.8953 -1.79962,2.80726 a 7.259296,7.259296 0 0 0 -0.31809,1.16158 z m -2.2078,8.43116 a 15.631364,15.631364 0 0 0 -2.26294,1.23193 13.86275,13.86275 0 0 0 -1.5773,1.21506 10.790895,10.790895 0 0 0 -1.10146,1.13994 11.249704,11.249704 0 0 0 -0.33873,0.44194 c -0.17075,0.23831 -0.20736,0.30399 -0.29841,0.45786 a 4.7147425,4.7147425 0 0 0 -0.13609,0.25331 c -0.1369,0.29464 -0.2054,0.48416 -0.2176,0.7497 0,0.2036 0.0487,0.44941 0.31528,0.57891 0.37338,0.14826 0.75339,0.0113 1.17086,-0.19799 0.1924,-0.0976 0.54805,-0.32087 0.83983,-0.54417 0.0678,-0.0517 0.13604,-0.10229 0.27113,-0.21489 0.13514,-0.11256 0.33682,-0.28426 0.56668,-0.49256 0.2299,-0.20829 0.48421,-0.45038 0.88667,-0.89231 a 26.796626,26.796626 0 0 0 1.5209,-1.81645 29.197626,29.197626 0 0 0 1.65328,-2.41882 c -0.44198,0.15292 -0.87643,0.32556 -1.2921,0.50854 z m 37.7668,-13.65449 c -0.0236,-0.19327 -0.29178,-0.45125 -0.47277,-0.49443 -0.57707,-0.16515 -1.10167,-0.009 -1.75176,0.30306 -0.26184,0.13136 -0.54614,0.31057 -0.83033,0.51414 -0.1727,0.12106 -0.33039,0.24304 -0.4692,0.35282 -0.064,0.0496 -0.12856,0.0994 -0.34059,0.27957 -0.21102,0.18017 -0.57145,0.49165 -0.84449,0.74685 -0.27294,0.25428 -0.45976,0.45227 -0.62664,0.64176 a 7.3446772,7.3446772 0 0 0 -1.10528,1.62039 6.630664,6.630664 0 0 0 -0.42687,1.06961 5.1791794,5.1791794 0 0 0 -0.11174,0.45787 c -0.0256,0.14074 -0.0402,0.26552 -0.0497,0.36125 -0.0186,0.23267 -0.0115,0.3884 0.0186,0.56667 0.0497,0.27494 0.14262,0.56765 0.43058,0.81913 0.46549,0.35935 0.91957,0.25613 1.35954,0.1004 a 3.8712491,3.8712491 0 0 0 0.51897,-0.23832 6.9158938,6.9158938 0 0 0 0.87905,-0.55924 c 0.24396,-0.17637 0.56964,-0.42688 0.83228,-0.6483 0.26265,-0.22142 0.46162,-0.41565 0.60806,-0.56951 0.29178,-0.30402 0.42687,-0.48886 0.59385,-0.72905 a 3.3964913,3.3964913 0 0 1 -0.37338,-1.71981 c 0.0246,-0.4879 0.20168,-1.05088 0.59013,-1.58849 0.0846,-0.11635 0.17732,-0.23267 0.27861,-0.34154 a 3.3101714,3.3101714 0 0 1 1.30335,-0.89976 c -0.01,-0.015 -0.01,-0.031 -0.0105,-0.0452 z m 18.97344,0 c -0.0236,-0.19327 -0.29173,-0.45125 -0.47287,-0.49443 -0.57702,-0.16515 -1.09961,-0.009 -1.75166,0.30306 -0.26174,0.13136 -0.54618,0.31057 -0.83043,0.51414 -0.17079,0.12106 -0.32838,0.24304 -0.4691,0.35282 -0.064,0.0496 -0.12851,0.0994 -0.33878,0.27957 -0.21298,0.18017 -0.5714,0.49165 -0.8462,0.74685 -0.27123,0.25428 -0.45986,0.45227 -0.62488,0.64176 a 7.2930726,7.2930726 0 0 0 -1.10714,1.62039 6.6175276,6.6175276 0 0 0 -0.42506,1.06961 4.1255168,4.1255168 0 0 0 -0.16326,0.81912 c -0.0186,0.23267 -0.0115,0.3884 0.0186,0.56667 0.0497,0.27494 0.14257,0.56765 0.43058,0.81913 0.46729,0.35935 0.92143,0.25613 1.35965,0.1004 a 3.6507589,3.6507589 0 0 0 0.51881,-0.23832 7.1373223,7.1373223 0 0 0 0.88106,-0.55924 c 0.24386,-0.17637 0.56758,-0.42688 0.83032,-0.6483 0.26275,-0.22142 0.46157,-0.41565 0.60801,-0.56951 a 5.3480662,5.3480662 0 0 0 0.59571,-0.72905 3.3767874,3.3767874 0 0 1 -0.37344,-1.71981 c 0.0236,-0.4879 0.19993,-1.05088 0.58833,-1.58849 0.0847,-0.11635 0.17928,-0.23267 0.27866,-0.34154 a 3.3233068,3.3233068 0 0 1 1.30335,-0.89976 0.63332358,0.63332358 0 0 0 -0.0105,-0.0452 z m -5.80503,-4.40322 a 16.231849,16.231849 0 0 0 1.49378,-0.60515 18.858969,18.858969 0 0 0 1.52652,-0.78908 c 0.45981,-0.26742 0.83777,-0.52075 1.11744,-0.72155 a 9.1480074,9.1480074 0 0 0 1.12215,-0.94011 c 0.28244,-0.27866 0.54795,-0.58359 0.76746,-0.87634 a 6.4204937,6.4204937 0 0 0 0.41185,-0.62489 c 0.10616,-0.19046 0.17933,-0.34901 0.22905,-0.48601 0.0557,-0.1473 0.10601,-0.37531 0.0846,-0.52823 a 0.58922551,0.58922551 0 0 0 -0.29278,-0.44848 c -0.32457,-0.17641 -0.69243,-0.15014 -1.01895,-0.0488 -0.25612,0.0723 -0.70745,0.32278 -1.01137,0.52825 l -0.14268,0.0948 c -0.0502,0.0328 -0.10044,0.0638 -0.45408,0.3284 -0.35375,0.26457 -1.01147,0.76373 -1.58378,1.25068 a 16.663448,16.663448 0 0 0 -2.62999,2.80447 16.458906,16.458906 0 0 0 -0.9477,1.44301 c 0.43455,-0.0966 0.86338,-0.21952 1.32861,-0.38093 z"
       fill="#ca3132"
       id="path2-0"
       style="clip-rule:evenodd;fill-rule:evenodd;stroke-width:0.938262"
       inkscape:export-filename="resources\icons\trademarks\campagnolo-logo.svg"
       inkscape:export-xdpi="96"
       inkscape:export-ydpi="96" /></g><style
     type="text/css"
     id="style1">
	.st0{fill:#ED1C24;}
</style></svg>
