<?xml version="1.0" encoding="UTF-8" standalone="no"?>
<!-- Created with Inkscape (http://www.inkscape.org/) -->

<svg
   width="181.66943mm"
   height="50.28912mm"
   viewBox="0 0 181.66943 50.28912"
   version="1.1"
   id="svg1"
   xml:space="preserve"
   inkscape:version="1.4 (86a8ad7, 2024-10-11)"
   sodipodi:docname="marcas.svg"
   xmlns:inkscape="http://www.inkscape.org/namespaces/inkscape"
   xmlns:sodipodi="http://sodipodi.sourceforge.net/DTD/sodipodi-0.dtd"
   xmlns="http://www.w3.org/2000/svg"
   xmlns:svg="http://www.w3.org/2000/svg"><sodipodi:namedview
     id="namedview1"
     pagecolor="#ffffff"
     bordercolor="#000000"
     borderopacity="0.25"
     inkscape:showpageshadow="2"
     inkscape:pageopacity="0.0"
     inkscape:pagecheckerboard="0"
     inkscape:deskcolor="#d1d1d1"
     inkscape:document-units="mm"
     inkscape:zoom="0.08"
     inkscape:cx="-2487.5"
     inkscape:cy="981.25"
     inkscape:window-width="1920"
     inkscape:window-height="1017"
     inkscape:window-x="-8"
     inkscape:window-y="-8"
     inkscape:window-maximized="1"
     inkscape:current-layer="layer1"
     showgrid="false"><inkscape:page
       x="0"
       y="-3.2516485e-12"
       width="181.66943"
       height="50.289116"
       id="page2"
       margin="0"
       bleed="0" /></sodipodi:namedview><defs
     id="defs1" /><g
     inkscape:label="Capa 1"
     inkscape:groupmode="layer"
     id="layer1"
     transform="translate(605.92274,-617.46572)"><g
       id="g67"
       transform="matrix(0.21316319,0,0,0.21316319,1849.8705,-1061.9209)"
       inkscape:export-filename="resources\icons\trademarks\cannondale-logo.svg"
       inkscape:export-xdpi="96"
       inkscape:export-ydpi="96"><path
         d="m -11437.349,8054.2667 -2.183,12.5725 h -32.009 c -11.85,0 -20.266,5.1489 -22.171,13.902 l -1.762,10.4354 c -1.321,8.1312 5.85,10.3602 15.933,10.3602 h 34.583 l -1.753,12.5809 h -43.958 c -20.428,0 -32.54,-3.7506 -29.618,-22.317 l 2.636,-15.6469 c 3.404,-16.6924 17.584,-21.8871 45.175,-21.8871 z m 59.046,35.9644 -2.405,11.8817 h -28.181 c -4.688,0 -8.263,-1.0895 -7.808,-4.1887 0.04,-0.2609 0.599,-3.0346 0.653,-3.3039 0.647,-2.876 4.544,-4.3912 9.24,-4.3912 h 28.501 z m -50.407,-36.05 -2.404,12.7353 h 42.446 c 6.794,0 14.733,2.9824 13.118,8.7073 l -0.531,3.1744 h -39.272 c -13.303,0 -20.46,1.8742 -22.572,12.1113 l -1.567,9.0913 c -1.822,11.9505 7.47,14.1274 19.796,14.1274 h 60.291 l 6.266,-34.1925 c 1.398,-8.3775 1.598,-14.6867 -4.943,-20.0506 -7.123,-5.8417 -27.551,-5.7018 -27.551,-5.7018 h -43.077 z m 611.355,36.05 -2.404,11.8817 h -28.182 c -4.696,0 -8.269,-1.0895 -7.816,-4.1887 0.05,-0.2609 0.599,-3.0346 0.653,-3.3039 0.639,-2.876 4.542,-4.3912 9.246,-4.3912 h 28.503 z m -50.409,-36.05 -2.404,12.7353 h 42.447 c 6.801,0 14.732,2.9824 13.117,8.7073 l -0.53,3.1744 h -39.279 c -13.303,0 -20.459,1.8742 -22.565,12.1113 l -1.568,9.0913 c -1.828,11.9505 7.47,14.1274 19.79,14.1274 h 60.698 l 5.74,-34.1925 c 1.398,-8.3775 1.713,-14.6867 -4.819,-20.0506 -7.132,-5.8417 -27.552,-5.7018 -27.552,-5.7018 h -43.075 z m -426.608,0 c 13.103,0 24.315,-0.2609 30.72,6.7267 3.702,4.003 4.633,7.3235 3.725,12.3576 l -7.392,40.9942 h -24.323 l 7.163,-39.7337 c 0.776,-3.5208 -3.26,-7.2087 -10.775,-7.2087 h -23.658 l -8.498,46.8129 h -24.147 l 10.913,-59.9469 h 46.272 z m 92.04,0 c 13.094,0 24.323,-0.2609 30.718,6.7267 3.696,4.003 4.635,7.3235 3.719,12.3576 l -7.393,40.9942 h -24.316 l 7.165,-39.7337 c 0.768,-3.5208 -3.252,-7.2087 -10.784,-7.2087 h -23.638 l -8.501,46.8129 h -24.162 l 10.92,-59.9469 h 46.272 z m 193.23,0 c 13.104,0 24.324,-0.2609 30.728,6.7267 3.696,4.003 4.627,7.3235 3.725,12.3576 l -7.401,40.9942 h -24.331 l 7.171,-39.7337 c 0.777,-3.5208 -3.251,-7.2087 -10.773,-7.2087 h -23.649 l -8.507,46.8129 h -24.145 l 10.92,-59.9469 h 46.262 z m -102.753,12.6122 c 14.434,0 22.565,1.246 20.841,10.8507 l -2.419,13.71 c -1.807,9.3688 -11.105,10.0053 -25.207,10.0053 -11.705,0.1092 -23.872,-1.3294 -22.219,-10.4206 l 2.796,-14.1316 c 2.062,-9.1852 12.853,-10.0138 26.208,-10.0138 m -48.425,7.9308 -3.896,20.4367 c -2.344,16.4608 18.562,19.3805 43.622,19.0507 25.399,-0.4215 45.534,-0.4988 49.8,-19.0507 l 3.867,-19.1822 c 2.951,-19.4745 -14.495,-22.4862 -42.286,-22.4862 -23.492,0 -47.11,1.0582 -51.107,21.2317 m 251.384,26.3619 h -20.756 c -11.913,0 -18.514,-2.6902 -16.792,-13.2426 l 1.705,-8.6321 c 1.997,-8.2836 10.16,-12.5871 21.641,-12.5871 h 20.58 z m 34.31,-69.1447 h -21.666 l -3.573,22.2398 h -28.529 c -20.726,0 -35.611,5.4118 -38.748,20.8666 l -3.381,19.7437 c -2.258,15.1625 9.89,19.3367 30.571,19.3367 h 51.906 z m 98.132,-0.4549 h 24.164 l -13.896,82.8399 h -24.147 z m 107.477,43.8367 c 0,0 5.611,-21.549 -20.282,-21.549 h -23.807 c -18.237,0 -35.966,4.4517 -38.819,21.9644 l -2.937,15.8555 c -3.364,19.4661 11.406,22.5257 29.895,22.5257 h 48.579 l 2.135,-11.9129 h -46.385 c -8.023,0 -10.751,-5.9253 -9.684,-10.8507 h 58.478 z m -46.072,-8.582 h 13.18 c 15.687,0 9.86,11.9026 9.86,11.9026 h -36.351 c 1.1,-5.8334 4.928,-11.9026 13.311,-11.9026"
         fill="#95bf23"
         id="path1-1"
         style="stroke-width:2.08707"
         sodipodi:nodetypes="ccsccsccsccscccsscsccccsccsccsccscccccsccsccccsccsccsccccccccscccsccccccccccccsccccccccccccsccccccccccccccccccsccsccscccccsccsccccccccssccsccsccccsccc" /><path
         style="fill:#95bf23;fill-opacity:1;stroke:none;stroke-width:0.2615;stroke-linecap:round;stroke-linejoin:round;paint-order:stroke fill markers"
         d="m -11110.325,8025.9098 c -12.945,-0.9631 -27.668,-5.3829 -38.356,-11.5143 -8.135,-4.6671 -16.231,-11.6487 -21.236,-18.3132 -1.971,-2.6229 -4.772,-6.9418 -4.609,-7.1047 0.07,-0.074 0.959,0.6427 1.968,1.593 1.008,0.9503 3.108,2.7128 4.668,3.9166 17.715,13.6733 40.711,19.9936 64.322,17.6795 13.888,-1.3611 27.102,-5.889 36.529,-12.5174 3.586,-2.5214 6.865,-5.4006 6.614,-5.8073 -0.117,-0.184 -7.185,-0.226 -21.454,-0.1276 -27.661,0.1912 -32.881,-0.081 -43.176,-2.2524 -5.091,-1.0737 -10.633,-3.4329 -14.072,-5.9896 -4.101,-3.0478 -6.654,-6.8641 -8.015,-11.979 -0.874,-3.279 -0.872,-11.3689 0,-15.9244 0.328,-1.7094 0.894,-4.6892 1.259,-6.6216 2.167,-11.4858 2.645,-13.7848 3.388,-16.2875 3.926,-13.2118 12.513,-21.2352 27.168,-25.3845 11.707,-3.3147 24.35,-4.4041 51.149,-4.4072 10.475,0 13.307,-0.074 13.296,-0.3395 -0.02,-0.5135 -4.104,-3.8635 -7.088,-5.8195 -12.13,-7.9466 -29.274,-11.9899 -47.086,-11.1046 -14.159,0.7037 -28.854,4.3483 -42.816,10.6187 -1.846,0.829 -3.406,1.4577 -3.467,1.3968 -0.105,-0.1087 1.708,-1.3998 4.932,-3.5085 12.144,-7.943 25.484,-13.5156 38.243,-15.9756 7.038,-1.3571 8.808,-1.5328 16.909,-1.6777 6.248,-0.1123 8.707,-0.048 12.019,0.3108 19.17,2.0773 36.673,9.7501 49.819,21.8382 3.262,3.0007 7.134,7.5432 9.481,11.1273 2.055,3.1356 5.285,9.9013 5.285,11.0686 0,0.2906 -6.373,0.3863 -35.068,0.5271 -36.561,0.1793 -38.394,0.2376 -43.952,1.3978 -8.437,1.7614 -13.381,5.9486 -15.8,13.3816 -0.528,1.6208 -3.406,15.3491 -4.675,22.297 -0.621,3.4037 -0.533,5.4626 0.318,7.3901 1.876,4.2529 6.731,6.1618 17.285,6.7977 2.571,0.1549 20.022,0.2686 41.216,0.2683 20.216,0 36.849,0 36.961,0 0.264,0 -2.721,5.9615 -4.322,8.6289 -3.916,6.5239 -7.302,10.8291 -12.88,16.3762 -7.435,7.3907 -14.653,12.4997 -23.917,16.9265 -15.02,7.1778 -33.159,10.4294 -50.842,9.1139 z"
         id="path47" /></g></g><style
     type="text/css"
     id="style1">
	.st0{fill:#ED1C24;}
</style></svg>
