<?xml version="1.0" encoding="UTF-8" standalone="no"?>
<!-- Created with Inkscape (http://www.inkscape.org/) -->

<svg
   width="123.09419mm"
   height="49.905029mm"
   viewBox="0 0 123.09419 49.905029"
   version="1.1"
   id="svg1"
   xml:space="preserve"
   inkscape:version="1.4 (86a8ad7, 2024-10-11)"
   sodipodi:docname="marcas.svg"
   xmlns:inkscape="http://www.inkscape.org/namespaces/inkscape"
   xmlns:sodipodi="http://sodipodi.sourceforge.net/DTD/sodipodi-0.dtd"
   xmlns="http://www.w3.org/2000/svg"
   xmlns:svg="http://www.w3.org/2000/svg"><sodipodi:namedview
     id="namedview1"
     pagecolor="#ffffff"
     bordercolor="#000000"
     borderopacity="0.25"
     inkscape:showpageshadow="2"
     inkscape:pageopacity="0.0"
     inkscape:pagecheckerboard="0"
     inkscape:deskcolor="#d1d1d1"
     inkscape:document-units="mm"
     inkscape:zoom="0.08"
     inkscape:cx="-2487.5"
     inkscape:cy="981.25"
     inkscape:window-width="1920"
     inkscape:window-height="1017"
     inkscape:window-x="-8"
     inkscape:window-y="-8"
     inkscape:window-maximized="1"
     inkscape:current-layer="layer1"
     showgrid="false"><inkscape:page
       x="0"
       y="0"
       width="123.09419"
       height="49.905029"
       id="page2"
       margin="0"
       bleed="0" /></sodipodi:namedview><defs
     id="defs1" /><g
     inkscape:label="Capa 1"
     inkscape:groupmode="layer"
     id="layer1"
     transform="translate(28.824962,-617.65777)"><g
       id="g50"
       transform="matrix(0.24840009,0,0,0.24840009,-393.72467,214.6331)"
       inkscape:export-filename="resources\icons\trademarks\castelli-logo.svg"
       inkscape:export-xdpi="96"
       inkscape:export-ydpi="96"><path
         d="m 1523.7782,1823.3879 h -37.6067 c -5.6518,0 -10.1026,-1.8291 -13.3488,-5.4871 -2.5497,-2.8997 -3.8228,-6.0087 -3.8228,-9.3374 v -21.1694 c 0,-3.3733 1.6437,-6.6058 4.9346,-9.6908 2.9649,-2.8036 5.6518,-4.2071 8.0642,-4.2071 h 41.5016 v 11.6879 h -32.4628 c -1.9011,0 -3.6718,0.7962 -5.3189,2.385 -1.6438,1.5957 -2.4674,3.1982 -2.4674,4.8111 v 11.6914 c 0,1.757 0.6623,3.3595 1.9835,4.8111 1.3212,1.4481 3.0232,2.1722 5.1096,2.1722 h 33.4374 v 12.3331 z m 72.8903,0 h -14.5979 c 0.048,-0.1407 0.072,-0.5834 0.072,-1.3281 v -1.3211 c 0.01,-0.2593 -0.017,-0.5185 -0.072,-0.7721 -0.4187,0.8853 -1.1805,1.6746 -2.2923,2.3712 -1.1119,0.6966 -2.1551,1.0466 -3.1296,1.0466 h -39.5559 c -1.7158,0 -3.2909,-0.6382 -4.7253,-1.9182 -1.4344,-1.28 -2.155,-2.8688 -2.155,-4.7665 l -0.1407,-15.2191 c 0,-2.7967 0.7652,-5.0513 2.2923,-6.7533 1.3898,-1.5202 3.0609,-2.2786 5.0032,-2.2786 h 37.3974 c 1.7604,0 3.3595,0.501 4.7939,1.4996 0.993,0.6846 1.8428,1.5565 2.5017,2.5668 v -4.5674 c 0,-1.5339 -0.58,-2.9306 -1.7364,-4.1762 -1.3898,-1.4893 -3.0576,-2.234 -5.0033,-2.234 h -44.7615 v -12.0449 h 50.4683 c 4.1247,0 7.8549,1.9732 11.1938,5.9161 2.9649,3.5174 4.4473,6.8666 4.4473,10.0511 z m -17.381,-15.5039 c 0,-0.8957 -0.4735,-1.6815 -1.4241,-2.361 -0.9471,-0.6794 -1.7947,-1.0226 -2.5359,-1.0226 h -27.5968 c -1.1653,-0.05 -2.2526,0.5844 -2.783,1.6232 -0.1853,0.3294 -0.3946,0.8922 -0.6246,1.6917 0,1.0329 0.3226,1.8565 0.9746,2.4673 0.6486,0.6109 1.2972,0.9163 1.9457,0.9163 h 28.8493 c 0.6486,0 1.3452,-0.3294 2.0864,-0.9883 0.7413,-0.6589 1.1084,-1.431 1.1084,-2.3266 z m 86.7333,7.824 c 0,2.0864 -0.5559,3.8399 -1.6677,5.2606 -1.2491,1.6163 -2.9649,2.4193 -5.144,2.4193 h -56.3088 v -12.2576 h 45.1836 c 0.8339,0 1.5991,-0.2368 2.2958,-0.707 0.9837,-0.5946 1.5681,-1.6754 1.527,-2.8241 0.01,-1.0255 -0.454,-1.9982 -1.2491,-2.6458 -0.8339,-0.7309 -1.9697,-1.0947 -3.4075,-1.0947 h -34.1992 c -2.3644,0 -4.4267,-0.9299 -6.1872,-2.7864 -1.4344,-1.5236 -2.155,-2.9306 -2.155,-4.2174 v -16.2177 c 0,-1.3795 0.6726,-2.8345 2.0144,-4.3615 1.6677,-1.8565 3.6855,-2.7865 6.0498,-2.7865 h 50.6056 v 11.8321 h -41.7795 c -0.8339,0 -1.5168,0.3706 -2.0487,1.1153 -0.5104,0.6743 -0.7906,1.4947 -0.7995,2.3403 0,0.7653 0.3019,1.5099 0.9025,2.2305 0.8338,0.9609 1.9011,1.4379 3.1982,1.4379 h 34.2712 c 3.0095,0 5.2847,0.8544 6.8117,2.5599 1.3898,1.5168 2.083,3.5552 2.083,6.1151 v 14.5877 z m 86.9186,-30.2391 h -25.2324 v 37.9155 h -13.7641 v -49.8883 h 38.9931 v 11.9728 z m -42.7507,37.919 h -13.7641 v -37.919 h -25.2324 v -11.9728 h 38.9965 z m 112.9746,-27.1404 c 0,2.2785 -0.5078,4.0767 -1.5339,5.4047 -1.2594,1.6609 -3.2634,2.4913 -6.0121,2.4913 h -44.3807 v 2.4262 c 0,1.28 0.4633,2.457 1.3898,3.5242 0.93,1.0707 1.9491,1.606 3.061,1.606 h 46.7141 v 11.688 h -49.3565 c -4.7733,0 -8.7608,-1.9423 -11.9556,-5.8337 -2.5943,-3.1331 -3.8914,-6.0739 -3.8914,-8.8261 v -21.6361 c 0,-3.3218 1.5991,-6.4171 4.7939,-9.2893 3.1983,-2.8722 6.2832,-4.3066 9.2447,-4.3066 h 40.3211 c 2.4124,0 4.9449,1.2422 7.6147,3.7335 2.6595,2.4879 3.9944,4.8214 3.9944,7.0039 v 12.014 z m -13.7606,-7.323 c 0.028,-0.9973 -0.4256,-1.9471 -1.2182,-2.5531 -0.8378,-0.6607 -1.8813,-1.0057 -2.9478,-0.9746 h -29.141 c -1.2045,0 -2.3129,0.5491 -3.332,1.6403 -1.0192,1.0912 -1.5271,2.3026 -1.5271,3.6375 v 2.0692 h 38.1695 v -3.8193 z m 74.3693,34.4634 h -40.7364 c -3.2428,0 -6.3724,-1.709 -9.3819,-5.1337 -2.7419,-3.085 -4.1008,-5.7204 -4.1008,-7.9064 v -36.8517 h 13.4862 v 29.992 c 0,2.5222 0.9711,4.5949 2.9168,6.2146 1.5751,1.3315 3.1022,2.0006 4.5915,2.0006 h 33.2314 v 11.6846 z m 59.9943,0 H 1903.03 c -3.2428,0 -6.3724,-1.709 -9.3819,-5.1337 -2.7419,-3.085 -4.1008,-5.7204 -4.1008,-7.9064 v -36.8517 h 13.4861 v 29.992 c 0,2.5222 0.9712,4.5949 2.9169,6.2146 1.5751,1.3315 3.109,2.0006 4.5914,2.0006 h 33.2315 v 11.6846 z m 20.7817,0 h -13.9665 v -49.8918 h 13.9665 z"
         fill-rule="evenodd"
         clip-rule="evenodd"
         fill="#344376"
         id="path2-34"
         style="stroke-width:3.43158"
         sodipodi:nodetypes="cscsscsccscsscscccccsccsssscccssccscsccscscscsccccssssccsccscccsscsscsccscccsscscccccccccccccccccccscsssccscsscsscscccccssscccccscsccscsccccscsccscscccccccc" /><g
         id="g49"
         transform="translate(-332.3489,-129.46897)"><path
           d="m 1987.2411,1817.1836 c 0,-35.0434 27.6997,-63.45 61.8748,-63.45 34.1821,0 61.8818,28.4101 61.8887,63.4534 0,35.0468 -27.6998,63.45 -61.8818,63.45 -34.182,0 -61.8817,-28.4101 -61.8817,-63.4534 z"
           fill="none"
           stroke="#344376"
           stroke-width="3.56542"
           stroke-miterlimit="2.613"
           id="path3-46" /><path
           d="m 2059.1568,1796.1205 c 0,0 3.0506,-1.1084 4.6189,-1.0398 0.7034,0.021 0.5422,0.8991 0.9505,1.8325 1.1736,2.6766 4.6704,6.0567 6.6367,6.6573 1.8153,0.5593 1.7776,0.2917 1.5408,2.258 -0.2093,1.7981 -0.7447,2.9683 -1.0123,3.761 -0.2677,0.7927 -0.3157,1.3143 0.9059,1.7501 2.5806,0.9162 5.2949,2.6595 8.6407,0.7995 2.8894,-1.6059 3.7405,-6.9318 3.6135,-8.452 -0.2093,-2.4192 0.1338,-1.026 2.1585,-0.6485 2.4879,0.4632 3.9017,0.2436 5.1954,-1.3521 1.455,-1.7913 1.4481,-1.5888 1.3211,-0.1166 -0.1338,1.4755 -1.201,14.1724 -10.2398,17.6658 -5.9984,2.3197 -11.8699,-1.6232 -13.0572,-2.3781 -1.4481,-0.9266 -1.5133,-0.2059 -1.9697,0.6314 -0.8648,1.5751 -5.1062,8.7986 -10.8987,14.042 -4.5434,4.1213 -13.1842,10.8438 -24.1961,12.0311 -1.63,0.1751 -1.8565,0.3363 -2.6149,-1.0466 -0.6966,-1.28 -2.4947,-2.91 -3.5654,-3.586 -1.3349,-0.8442 -1.328,-0.302 -1.0844,-2.8894 0.3226,-3.4727 2.8963,-15.37 10.8026,-24.1858 7.5324,-8.3971 14.3235,-12.0757 14.3235,-12.0757 0,0 1.4138,-0.5594 0.5765,-1.6369 -1.0467,-1.3555 -4.2483,-7.7451 -2.5737,-13.1704 2.179,-7.0382 9.3305,-9.6634 16.3549,-10.9296 3.2635,-0.5937 0.7961,0.93 0.7961,0.93 0,0 -2.68,2.7349 -1.201,5.9297 0.9849,2.1207 0.7378,1.6815 -1.2388,1.6781 -1.6815,0 -7.0656,1.352 -8.2187,4.4919 -1.1598,3.1399 0.5011,6.6298 1.4962,8.3113 0.7481,1.2731 1.9389,0.7378 1.9389,0.7378 z"
           fill-rule="evenodd"
           clip-rule="evenodd"
           fill="#344376"
           id="path4-06"
           style="stroke-width:3.43158" /><path
           d="m 2072.6978,1773.3245 c 2.2717,0.034 3.2703,0.4186 4.1831,1.1015 0.9059,0.6829 0.6451,1.2869 -0.803,1.4996 -2.7624,0.4118 -5.3739,3.6169 -5.0135,6.8598 0.3877,3.4247 -0.8717,2.1584 -2.0453,1.2285 -1.1736,-0.93 -3.1707,-4.7219 -1.2456,-7.8652 0.9299,-1.5133 2.2682,-2.7453 4.9243,-2.8242 z m -62.1529,45.8322 c 6.2318,0.4907 4.6704,1.9972 3.2772,2.8071 -0.8442,0.4975 -1.8908,1.7295 -1.8565,4.811 0.021,1.7707 -0.2127,5.7857 -3.658,6.6367 -1.63,0.4084 -3.3904,0.4633 -5.4769,-1.1667 -1.527,-1.3864 -2.2373,-3.8674 -1.9903,-5.5626 0.429,-3.7713 4.6738,-7.927 9.7045,-7.5255 z m -3.6374,16.8422 c 0.4083,1.7227 0.4838,3.6993 2.7933,7.0725 1.503,2.1997 3.6786,3.0233 5.1336,3.6512 3.5105,1.5271 6.3622,0.429 8.1089,-1.503 1.503,-1.654 1.9251,-3.1502 2.0589,-4.0355 0.1544,-1.0535 0.7241,-1.9492 2.433,-0.5354 1.7638,1.4688 2.5119,3.0233 2.5119,3.0233 0,0 0.6177,0.8304 -1.201,2.3128 -1.3589,1.1119 -4.1763,4.4165 -10.5556,4.4165 -5.5145,0 -14.3749,-5.4494 -14.3577,-14.972 0,-0.2539 2.9752,0.1544 3.0747,0.5696 z m 69.0606,-36.5189 c 1.956,-0.051 4.8591,-1.2559 1.2525,1.4859 -1.6883,1.2765 -6.695,1.2285 -9.08,-1.8428 -2.3197,-2.9751 -2.4261,-6.9146 -0.8578,-9.2069 1.575,-2.2923 1.4344,-1.5408 1.153,1.829 -0.2746,3.212 3.0609,8.1706 7.5323,7.7348 z m -30.4416,0.5559 c 0.9265,0.3466 2.481,0.7859 -0.175,2.1482 -2.8482,1.4619 -6.5955,0.4255 -7.0588,-2.4639 -0.9265,-5.7925 4.0424,-9.7388 5.3018,-10.3668 2.6424,-1.3177 1.3727,0.4049 0.7172,1.654 -3.9051,7.3642 1.1016,8.9874 1.2148,9.0285 z m 30.8774,25.3491 c 2.7693,-1.8633 2.8619,-0.8098 1.5888,1.1874 -1.9972,3.1159 -7.3058,6.1254 -10.5075,4.31 -2.1859,-1.2388 -3.3389,-4.0561 -1.1599,-7.5186 0.7104,-1.1392 1.1119,-1.2799 1.7639,0.4976 1.2765,3.5277 4.9964,3.4316 8.3147,1.5236 z m -9.2481,11.2591 c 1.8976,-0.3226 3.5585,-0.477 0.35,1.654 -2.56,1.7021 -7.5804,1.7432 -9.3957,-0.4907 -1.9491,-2.3987 0.2265,-4.9518 0.8579,-5.7239 1.1187,-1.3589 2.0384,-2.1173 2.0178,0.5765 -0.024,3.5689 3.1262,3.9841 6.17,3.9841 z m -10.7512,6.4067 c 2.9237,0.1819 3.212,1.28 0.6486,1.6815 -5.1474,0.803 -7.4191,-1.0603 -7.848,-2.5016 -0.4564,-1.3932 0,-2.56 0.3603,-2.9752 1.0054,-1.1599 2.131,-1.7947 2.6354,-1.8153 0.6555,-0.086 0.6177,0.1407 0.4084,1.1599 -0.1407,0.7172 -0.6348,3.5139 3.7953,4.4507 z m -8.9015,5.3739 c 1.6609,0.4427 1.9045,1.4481 -1.0054,1.1599 -2.0315,-0.1956 -6.2078,-2.083 -5.9641,-4.8111 0.2264,-2.6149 2.5256,-3.037 3.7198,-3.1914 1.2525,-0.1681 1.1187,0.2265 0.2608,1.6026 -1.3692,2.2133 0.9917,4.612 2.9889,5.24 z m -10.5487,-41.1275 c 1.9251,-0.3466 1.7844,0.1578 0.4015,1.8839 -1.6437,2.0418 -4.8591,2.5462 -6.3621,0 -1.2457,-2.1207 -1.407,-6.0121 0.4358,-8.7986 1.9285,-2.9237 1.8839,-2.1344 1.7158,-0.2848 -0.5216,5.7205 1.4618,6.9249 3.809,7.1995 z m -6.4479,8.325 c 2.608,-0.4392 1.7501,0.5662 0.4632,2.2614 -1.1736,1.5408 -4.3306,2.7487 -5.844,-1.4344 -0.9265,-2.5565 -0.3157,-4.7184 0.086,-5.9195 0.3947,-1.2045 1.3933,-2.6869 1.2182,0.6314 -0.093,1.7261 1.1668,4.6773 4.0768,4.4611 z m -4.3513,8.3868 c 2.1448,-1.0981 2.0761,-0.2677 1.4138,1.4756 -0.6691,1.7501 -2.179,3.3698 -4.5091,2.0452 -1.8496,-1.0466 -3.1364,-3.9154 -3.0026,-6.3416 0.1338,-2.433 0.7103,-2.0829 1.4413,0.1544 0.7034,2.1654 2.5325,3.3115 4.6566,2.6664 z m 65.1795,-31.7044 c 0.4084,-2.258 1.1736,-3.2017 2.1379,-0.6726 1.105,2.9271 0.6966,5.9812 -1.4824,7.9338 -2.4193,2.1722 -5.3362,1.8359 -7.8069,-0.2299 -2.7487,-2.306 -1.7501,-2.4879 1.3864,-2.4261 2.6354,0.055 5.4047,-2.7625 5.765,-4.6052 z"
           fill-rule="evenodd"
           clip-rule="evenodd"
           fill="#344376"
           id="path5-6"
           style="stroke-width:3.43158" /><path
           d="m 2055.1761,1804.5862 c 0,-1.0432 0.8236,-1.8874 1.8359,-1.8874 1.0123,0 1.8359,0.8477 1.8359,1.8874 0,1.0432 -0.8167,1.8874 -1.8359,1.8874 a 1.8702131,1.8702131 0 0 1 -1.8359,-1.8874 z m 6.6779,6.6058 a 1.7912866,1.7912866 0 0 1 1.7775,-1.8256 c 0.9849,0 1.7845,0.8167 1.7845,1.8256 0,1.0089 -0.7962,1.8291 -1.7845,1.8291 -0.9882,0 -1.7775,-0.8202 -1.7775,-1.8291 z"
           fill-rule="evenodd"
           clip-rule="evenodd"
           fill="#ffffff"
           id="path6-1"
           style="stroke-width:3.43158" /></g></g></g><style
     type="text/css"
     id="style1">
	.st0{fill:#ED1C24;}
</style></svg>
