<?xml version="1.0" encoding="UTF-8" standalone="no"?>
<!-- Created with Inkscape (http://www.inkscape.org/) -->

<svg
   width="102.06263mm"
   height="50.006447mm"
   viewBox="0 0 102.06263 50.006447"
   version="1.1"
   id="svg1"
   xml:space="preserve"
   inkscape:version="1.4 (86a8ad7, 2024-10-11)"
   sodipodi:docname="marcas.svg"
   xmlns:inkscape="http://www.inkscape.org/namespaces/inkscape"
   xmlns:sodipodi="http://sodipodi.sourceforge.net/DTD/sodipodi-0.dtd"
   xmlns="http://www.w3.org/2000/svg"
   xmlns:svg="http://www.w3.org/2000/svg"><sodipodi:namedview
     id="namedview1"
     pagecolor="#ffffff"
     bordercolor="#000000"
     borderopacity="0.25"
     inkscape:showpageshadow="2"
     inkscape:pageopacity="0.0"
     inkscape:pagecheckerboard="0"
     inkscape:deskcolor="#d1d1d1"
     inkscape:document-units="mm"
     inkscape:zoom="0.08"
     inkscape:cx="-2487.5"
     inkscape:cy="981.25"
     inkscape:window-width="1920"
     inkscape:window-height="1017"
     inkscape:window-x="-8"
     inkscape:window-y="-8"
     inkscape:window-maximized="1"
     inkscape:current-layer="layer1"
     showgrid="false"><inkscape:page
       x="0"
       y="0"
       width="102.06263"
       height="50.006447"
       id="page2"
       margin="0"
       bleed="0" /></sodipodi:namedview><defs
     id="defs1" /><g
     inkscape:label="Capa 1"
     inkscape:groupmode="layer"
     id="layer1"
     transform="translate(1557.8274,-617.60701)"><g
       id="g62"
       transform="matrix(0.21316319,0,0,0.21316319,-258.94928,-670.80587)"
       inkscape:export-filename="resources\icons\trademarks\giant-logo.svg"
       inkscape:export-xdpi="96"
       inkscape:export-ydpi="96"><path
         style="fill:#06038d;fill-opacity:1;stroke:none;stroke-width:0.179265;stroke-linecap:round;stroke-linejoin:round;paint-order:stroke fill markers"
         d="m -5846.3241,6183.9856 c -0.1687,-0.1864 -0.3066,-0.5086 -0.3066,-0.7161 0,-0.2075 -0.154,-0.5761 -0.3422,-0.8192 -0.1883,-0.243 -0.3931,-0.7649 -0.4553,-1.1596 -0.062,-0.3948 -0.2417,-0.8599 -0.3989,-1.0336 -0.1572,-0.1738 -0.2859,-0.5386 -0.2859,-0.8108 0,-0.2722 -0.1556,-0.6505 -0.3458,-0.8407 -0.1901,-0.1902 -0.4027,-0.7252 -0.4722,-1.1891 -0.07,-0.4639 -0.2371,-0.9351 -0.3722,-1.0473 -0.1351,-0.1122 -0.2971,-0.5251 -0.3598,-0.9175 -0.063,-0.3924 -0.2334,-0.8126 -0.3792,-0.9335 -0.1458,-0.121 -0.3209,-0.5504 -0.3891,-0.9541 -0.068,-0.4038 -0.2355,-0.8456 -0.3717,-0.9817 -0.1362,-0.1362 -0.3031,-0.5723 -0.3709,-0.9691 -0.068,-0.3967 -0.2823,-0.9472 -0.4766,-1.2234 -0.1943,-0.2761 -0.3532,-0.7513 -0.3532,-1.0562 0,-0.3047 -0.1243,-0.6235 -0.2761,-0.7085 -0.1518,-0.085 -0.35,-0.5507 -0.4405,-1.0349 -0.091,-0.4843 -0.2997,-1.0299 -0.4651,-1.2126 -0.1653,-0.1827 -0.3005,-0.5241 -0.3005,-0.7589 0,-0.2347 -0.1567,-0.6866 -0.3481,-1.0044 -0.1914,-0.3177 -0.4021,-0.8822 -0.4682,-1.2546 -0.066,-0.3723 -0.243,-0.724 -0.3931,-0.7816 -0.156,-0.06 -0.2729,-0.3416 -0.2729,-0.6577 0,-0.5863 -0.3413,-1.4966 -0.5611,-1.4966 -0.072,0 -0.1783,-0.3515 -0.2359,-0.781 -0.058,-0.4295 -0.2354,-0.8764 -0.395,-0.9931 -0.1596,-0.1167 -0.2902,-0.3782 -0.2902,-0.581 0,-0.5012 -0.3725,-1.5358 -0.5529,-1.5358 -0.08,0 -0.2013,-0.3684 -0.2688,-0.8185 -0.067,-0.4503 -0.2351,-0.9118 -0.3723,-1.0256 -0.1372,-0.114 -0.3057,-0.5072 -0.3745,-0.8741 -0.069,-0.3668 -0.286,-0.9671 -0.4826,-1.3339 -0.1966,-0.3668 -0.3574,-0.8217 -0.3574,-1.011 0,-0.1892 -0.1668,-0.5561 -0.3706,-0.8151 -0.2038,-0.2592 -0.3706,-0.6998 -0.3706,-0.9792 0,-0.2795 -0.1228,-0.6102 -0.273,-0.7348 -0.1501,-0.1246 -0.327,-0.5309 -0.3931,-0.9028 -0.066,-0.3719 -0.2766,-0.9361 -0.4681,-1.2538 -0.1914,-0.3178 -0.348,-0.7785 -0.348,-1.0241 0,-0.2456 -0.1358,-0.6405 -0.3019,-0.8775 -0.1661,-0.2371 -0.3793,-0.7756 -0.4739,-1.1965 -0.095,-0.4209 -0.2809,-0.8917 -0.4141,-1.046 -0.1332,-0.1544 -0.2913,-0.6022 -0.3514,-0.9951 -0.06,-0.393 -0.228,-0.8099 -0.3731,-0.9264 -0.1451,-0.1166 -0.3121,-0.5349 -0.3711,-0.9297 -0.059,-0.3948 -0.2253,-0.8533 -0.3696,-1.019 -0.1443,-0.1656 -0.3168,-0.6055 -0.3834,-0.9774 -0.066,-0.3719 -0.2348,-0.7707 -0.3738,-0.886 -0.1391,-0.1154 -0.3077,-0.5756 -0.3748,-1.0226 -0.067,-0.4469 -0.2363,-0.9076 -0.3762,-1.0236 -0.1399,-0.1162 -0.3101,-0.5414 -0.3783,-0.9453 -0.068,-0.4037 -0.2355,-0.8455 -0.3717,-0.9816 -0.1362,-0.1363 -0.3074,-0.5723 -0.3805,-0.9691 -0.073,-0.3967 -0.2875,-0.9203 -0.4766,-1.1633 -0.189,-0.243 -0.3442,-0.6599 -0.3449,-0.9264 -7e-4,-0.2664 -0.1669,-0.7346 -0.3693,-1.0403 -0.2025,-0.3057 -0.3692,-0.7226 -0.3706,-0.9264 0,-0.2038 -0.1681,-0.6206 -0.3705,-0.9263 -0.2025,-0.3057 -0.3687,-0.7739 -0.3694,-1.0404 -6e-4,-0.2665 -0.1679,-0.6965 -0.3717,-0.9556 -0.2038,-0.2591 -0.3711,-0.6664 -0.3718,-0.9051 -7e-4,-0.2386 -0.1669,-0.684 -0.3693,-0.9898 -0.2025,-0.3057 -0.3687,-0.7739 -0.3694,-1.0403 -6e-4,-0.2665 -0.1679,-0.6965 -0.3717,-0.9556 -0.2038,-0.2591 -0.3706,-0.6759 -0.3706,-0.9264 0,-0.2504 -0.154,-0.6541 -0.3422,-0.8972 -0.1882,-0.243 -0.3931,-0.7647 -0.4552,-1.1595 -0.062,-0.3948 -0.2327,-0.8533 -0.3788,-1.019 -0.1461,-0.1658 -0.3229,-0.6509 -0.3929,-1.078 -0.07,-0.4273 -0.2466,-0.8758 -0.3924,-0.9968 -0.1458,-0.121 -0.3165,-0.5411 -0.3792,-0.9336 -0.063,-0.3924 -0.2247,-0.8053 -0.3598,-0.9175 -0.1352,-0.1121 -0.3002,-0.5672 -0.3668,-1.0113 -0.066,-0.444 -0.2791,-0.9504 -0.4723,-1.1252 -0.2063,-0.1867 -0.3512,-0.5641 -0.3512,-0.9148 0,-0.3285 -0.1228,-0.6991 -0.273,-0.8237 -0.1501,-0.1246 -0.3247,-0.5309 -0.3879,-0.9028 -0.063,-0.3719 -0.2738,-0.902 -0.468,-1.1781 -0.1943,-0.2761 -0.3533,-0.7443 -0.3533,-1.0403 0,-0.2962 -0.1667,-0.7505 -0.3705,-1.0095 -0.2038,-0.2591 -0.3706,-0.676 -0.3706,-0.9264 0,-0.2504 -0.154,-0.6542 -0.3422,-0.8972 -0.1882,-0.2429 -0.3931,-0.7648 -0.4552,-1.1596 -0.062,-0.3948 -0.2417,-0.8598 -0.3989,-1.0336 -0.1573,-0.1737 -0.2859,-0.5272 -0.2859,-0.7858 0,-0.2585 -0.154,-0.6687 -0.3422,-0.9117 -0.1882,-0.2431 -0.3947,-0.7751 -0.4589,-1.1824 -0.064,-0.4072 -0.2438,-0.8333 -0.399,-0.9468 -0.1551,-0.1135 -0.2829,-0.4055 -0.2838,-0.6491 -9e-4,-0.2435 -0.2067,-0.8596 -0.4574,-1.3691 -0.2506,-0.5095 -0.4583,-1.1166 -0.4615,-1.3491 0,-0.2324 -0.1246,-0.4683 -0.2699,-0.524 -0.1452,-0.055 -0.3227,-0.4487 -0.3945,-0.8733 -0.072,-0.4245 -0.2863,-1.0629 -0.477,-1.4187 -0.1906,-0.3556 -0.3471,-0.7729 -0.3478,-0.9272 -7e-4,-0.1544 -0.1669,-0.5308 -0.3693,-0.8365 -0.2025,-0.3057 -0.3687,-0.7724 -0.3694,-1.0371 -6e-4,-0.2645 -0.1679,-0.6734 -0.3717,-0.9083 -0.205,-0.2364 -0.3706,-0.6932 -0.3706,-1.0224 0,-0.3273 -0.1667,-0.8072 -0.3705,-1.0662 -0.2038,-0.2591 -0.3706,-0.676 -0.3706,-0.9264 0,-0.2504 -0.154,-0.6542 -0.3422,-0.8972 -0.1882,-0.243 -0.3947,-0.7751 -0.4589,-1.1823 -0.064,-0.4073 -0.2299,-0.8242 -0.3682,-0.9264 -0.1383,-0.1017 -0.3034,-0.5088 -0.3669,-0.9036 -0.064,-0.3948 -0.235,-0.8533 -0.3811,-1.019 -0.1461,-0.1658 -0.3229,-0.6509 -0.3929,-1.078 -0.07,-0.4273 -0.2394,-0.8698 -0.3763,-0.9834 -0.1369,-0.1136 -0.3037,-0.5305 -0.3705,-0.9264 -0.067,-0.3959 -0.2337,-0.8128 -0.3706,-0.9264 -0.1369,-0.1136 -0.3037,-0.5305 -0.3705,-0.9264 -0.067,-0.3958 -0.2361,-0.8147 -0.376,-0.9309 -0.1399,-0.116 -0.3102,-0.5835 -0.3785,-1.0387 -0.068,-0.4554 -0.2368,-0.9406 -0.3746,-1.0783 -0.1377,-0.1378 -0.3253,-0.5835 -0.4167,-0.9906 -0.091,-0.407 -0.3022,-0.934 -0.4682,-1.1711 -0.1661,-0.2371 -0.3025,-0.6418 -0.3032,-0.8993 -7e-4,-0.2577 -0.1669,-0.7184 -0.3693,-1.0242 -0.2025,-0.3057 -0.3687,-0.7321 -0.3694,-0.9477 -6e-4,-0.2156 -0.1679,-0.6038 -0.3717,-0.863 -0.2038,-0.259 -0.3706,-0.7176 -0.3706,-1.019 0,-0.3014 -0.1667,-0.7599 -0.3706,-1.019 -0.2038,-0.2591 -0.3705,-0.6759 -0.3705,-0.9263 0,-0.2505 -0.154,-0.6542 -0.3422,-0.8972 -0.1882,-0.2431 -0.3931,-0.7648 -0.4553,-1.1596 -0.062,-0.3948 -0.2326,-0.8533 -0.3787,-1.019 -0.1461,-0.1658 -0.3247,-0.6615 -0.3969,-1.1017 -0.072,-0.4402 -0.2394,-0.8418 -0.3716,-0.8924 -0.1321,-0.051 -0.2947,-0.455 -0.3612,-0.8984 -0.066,-0.4433 -0.2331,-0.8993 -0.3703,-1.0132 -0.1372,-0.1138 -0.3058,-0.5071 -0.3746,-0.874 -0.069,-0.3668 -0.286,-0.9671 -0.4825,-1.3338 -0.1966,-0.3668 -0.3575,-0.8456 -0.3575,-1.0639 0,-0.2184 -0.1228,-0.4989 -0.273,-0.6235 -0.1502,-0.1246 -0.3271,-0.5309 -0.3931,-0.9028 -0.066,-0.3719 -0.2767,-0.9361 -0.4681,-1.2538 -0.1914,-0.3178 -0.348,-0.7912 -0.348,-1.0522 0,-0.2609 -0.1228,-0.5971 -0.2729,-0.7472 -0.15,-0.1501 -0.351,-0.6206 -0.4464,-1.0455 -0.096,-0.425 -0.3062,-0.9192 -0.4683,-1.0982 -0.162,-0.1791 -0.2946,-0.59 -0.2946,-0.9132 v -0.5875 h 53.73 53.73 v 0.6975 c 0,0.3836 -0.1653,1.006 -0.3673,1.3828 -0.202,0.3769 -0.4203,1.0167 -0.4851,1.4218 -0.065,0.405 -0.2246,0.7774 -0.3553,0.8275 -0.1307,0.05 -0.2976,0.4465 -0.371,0.8808 -0.073,0.4342 -0.2484,0.9045 -0.3889,1.045 -0.1406,0.1405 -0.3077,0.5816 -0.3714,0.98 -0.064,0.3984 -0.2283,0.8178 -0.3658,0.9318 -0.1374,0.1141 -0.3043,0.5117 -0.3709,0.8836 -0.066,0.3719 -0.239,0.8118 -0.3833,0.9775 -0.1443,0.1656 -0.3133,0.6242 -0.3755,1.019 -0.062,0.3947 -0.267,0.9166 -0.4552,1.1595 -0.1882,0.2431 -0.3422,0.6885 -0.3422,0.9898 0,0.3014 -0.1668,0.76 -0.3706,1.019 -0.2038,0.2592 -0.3705,0.6761 -0.3705,0.9264 0,0.2504 -0.1668,0.6673 -0.3706,0.9264 -0.2038,0.2592 -0.3705,0.6487 -0.3705,0.8658 0,0.217 -0.1546,0.6851 -0.3434,1.0403 -0.1889,0.3551 -0.3996,0.9501 -0.4681,1.3218 -0.069,0.3719 -0.2411,0.7728 -0.3833,0.8908 -0.1421,0.1181 -0.3132,0.5385 -0.3801,0.9344 -0.067,0.3958 -0.2311,0.8106 -0.3649,0.9216 -0.1338,0.1111 -0.2981,0.5676 -0.3651,1.0146 -0.067,0.4469 -0.2363,0.9076 -0.3762,1.0237 -0.1399,0.1161 -0.3091,0.5349 -0.376,0.9308 -0.067,0.3959 -0.2336,0.8128 -0.3705,0.9264 -0.137,0.1136 -0.3063,0.5561 -0.3763,0.9834 -0.07,0.4271 -0.2468,0.9123 -0.3929,1.078 -0.1461,0.1657 -0.3139,0.6242 -0.3729,1.019 -0.059,0.3948 -0.2381,0.822 -0.3981,0.9494 -0.2299,0.1831 -6.4755,0.2316 -29.8211,0.2316 h -29.5303 l -0.5563,0.5561 c -0.4713,0.4714 -0.5372,0.6481 -0.4316,1.1581 0.069,0.3309 0.2342,0.6886 0.3681,0.7949 0.1339,0.1061 0.3019,0.5829 0.3734,1.0594 0.071,0.4763 0.2466,0.963 0.3893,1.0814 0.1427,0.1185 0.3122,0.5452 0.3766,0.9483 0.064,0.403 0.2219,0.7731 0.3497,0.8221 0.1279,0.049 0.2867,0.4505 0.353,0.892 0.066,0.4417 0.2832,0.9907 0.4823,1.2203 0.1991,0.2295 0.362,0.6623 0.362,0.9618 0,0.2995 0.1667,0.7566 0.3705,1.0157 0.2038,0.2591 0.3706,0.6973 0.3706,0.9736 0,0.2764 0.1667,0.6947 0.3705,0.9298 0.205,0.2363 0.3706,0.6932 0.3706,1.0223 0,0.3273 0.1667,0.8071 0.3706,1.0662 0.2038,0.2591 0.3705,0.676 0.3705,0.9265 0,0.2503 0.154,0.654 0.3422,0.8971 0.1882,0.243 0.3931,0.7649 0.4553,1.1596 0.062,0.3947 0.2311,0.8534 0.3754,1.019 0.1443,0.1657 0.3168,0.6056 0.3834,0.9775 0.066,0.3719 0.2438,0.778 0.394,0.9027 0.1502,0.1245 0.273,0.4552 0.273,0.7347 0,0.2795 0.1668,0.7202 0.3706,0.9792 0.2038,0.2591 0.3705,0.6331 0.3705,0.8311 0,0.5067 0.376,1.527 0.5626,1.527 0.086,0 0.2131,0.3818 0.2831,0.8484 0.07,0.4667 0.2378,0.8909 0.373,0.9428 0.1351,0.052 0.3015,0.4663 0.3697,0.9208 0.068,0.4546 0.2329,0.9355 0.366,1.0686 0.1332,0.1332 0.2999,0.5501 0.3705,0.9263 0.071,0.3763 0.2485,0.8044 0.3953,0.9511 0.1468,0.1469 0.3163,0.5805 0.3766,0.9637 0.06,0.3831 0.2636,0.8955 0.4518,1.1385 0.1882,0.2431 0.3422,0.6695 0.3422,0.9478 0,0.2781 0.1667,0.7178 0.3706,0.9768 0.2038,0.2592 0.3705,0.695 0.3705,0.9685 0,0.2736 0.1668,0.7093 0.3706,0.9685 0.2038,0.2591 0.3705,0.6987 0.3705,0.9769 0,0.2783 0.154,0.7047 0.3422,0.9477 0.1882,0.243 0.3931,0.7649 0.4553,1.1597 0.062,0.3948 0.2311,0.8533 0.3754,1.019 0.1443,0.1656 0.3179,0.6111 0.3858,0.99 0.068,0.3789 0.2351,0.8006 0.3717,0.9372 0.1366,0.1366 0.3066,0.5931 0.3777,1.0144 0.071,0.4212 0.2393,0.8571 0.3735,0.9685 0.1342,0.1114 0.3004,0.5027 0.3692,0.8696 0.1928,1.0276 0.7979,1.7282 1.4927,1.7282 0.6097,0 0.715,-0.093 6.5119,-5.7556 1.0364,-1.0124 1.9687,-1.8406 2.0719,-1.8406 0.1032,0 0.2405,-0.1668 0.3052,-0.3706 0.065,-0.2038 0.2314,-0.3706 0.3706,-0.3706 0.1391,0 0.3058,-0.1667 0.3705,-0.3705 0.065,-0.2038 0.2371,-0.3706 0.383,-0.3706 0.146,0 0.2655,-0.071 0.2655,-0.1577 0,-0.1873 1.0611,-1.3245 1.2359,-1.3245 0.066,0 0.9256,-0.7941 1.9091,-1.7647 0.9834,-0.9705 1.9496,-1.8781 2.147,-2.0169 0.1974,-0.1387 1.2055,-1.0746 2.2403,-2.0798 1.6421,-1.595 4.6288,-4.4444 6.5023,-6.2034 0.3312,-0.3109 0.6022,-0.6415 0.6022,-0.7348 0,-0.093 0.1194,-0.1697 0.2654,-0.1697 0.146,0 0.3183,-0.1667 0.383,-0.3705 0.065,-0.2038 0.2315,-0.3706 0.3706,-0.3706 0.1391,0 0.3058,-0.1667 0.3705,-0.3705 0.065,-0.2038 0.2067,-0.3705 0.3155,-0.3705 0.1089,0 0.3829,-0.1877 0.609,-0.4169 0.4973,-0.5043 2.7863,-2.6776 5.6599,-5.3738 1.168,-1.0959 2.424,-2.284 2.7912,-2.6402 0.762,-0.7392 1.4631,-0.8657 1.4631,-0.2639 0,0.211 -0.115,0.4988 -0.2556,0.6394 -0.1406,0.1406 -0.3134,0.5634 -0.384,0.9398 -0.071,0.3763 -0.2424,0.7982 -0.3818,0.9376 -0.1395,0.1395 -0.3092,0.625 -0.3773,1.0791 -0.068,0.454 -0.2376,0.92 -0.3767,1.0354 -0.1391,0.1155 -0.3073,0.5141 -0.3739,0.886 -0.066,0.3719 -0.239,0.8118 -0.3833,0.9774 -0.1443,0.1657 -0.3107,0.6243 -0.3696,1.019 -0.059,0.3948 -0.226,0.8131 -0.3711,0.9297 -0.1451,0.1165 -0.3145,0.5334 -0.3764,0.9264 -0.062,0.393 -0.2665,0.9133 -0.4548,1.1564 -0.1882,0.243 -0.3422,0.6467 -0.3422,0.8971 0,0.2504 -0.1667,0.6673 -0.3705,0.9263 -0.2038,0.2592 -0.3706,0.739 -0.3706,1.0663 0,0.3292 -0.1655,0.7861 -0.3705,1.0223 -0.2038,0.235 -0.3706,0.6034 -0.3706,0.8186 0,0.2151 -0.1667,0.7024 -0.3705,1.0826 -0.2038,0.3803 -0.3706,0.8874 -0.3706,1.1269 0,0.2396 -0.1561,0.6156 -0.347,0.8357 -0.1909,0.2201 -0.3986,0.7223 -0.4616,1.1159 -0.063,0.3937 -0.2361,0.8168 -0.3849,0.9403 -0.1488,0.1235 -0.3253,0.5901 -0.3924,1.037 -0.067,0.447 -0.2313,0.9035 -0.3651,1.0146 -0.1338,0.1111 -0.3015,0.5467 -0.3727,0.968 -0.071,0.4211 -0.2444,0.8809 -0.385,1.0214 -0.1405,0.1406 -0.3076,0.5815 -0.3713,0.98 -0.064,0.3985 -0.2283,0.8178 -0.3658,0.9319 -0.1374,0.114 -0.3043,0.5117 -0.3709,0.8835 -0.066,0.3719 -0.2391,0.8117 -0.3834,0.9774 -0.1443,0.1658 -0.3132,0.6243 -0.3754,1.0191 -0.062,0.3947 -0.2671,0.9165 -0.4553,1.1596 -0.1882,0.243 -0.344,0.6599 -0.3463,0.9263 0,0.2665 -0.1671,0.693 -0.3664,0.9478 -0.1993,0.2547 -0.3642,0.6617 -0.3664,0.9044 0,0.2427 -0.1621,0.7013 -0.3551,1.019 -0.1931,0.3178 -0.4077,0.9255 -0.4771,1.3507 -0.069,0.4251 -0.2329,0.8139 -0.3635,0.864 -0.1307,0.05 -0.283,0.4296 -0.3385,0.8432 -0.056,0.4137 -0.2265,0.8778 -0.3801,1.0314 -0.1537,0.1536 -0.3352,0.6096 -0.4034,1.0134 -0.068,0.4038 -0.2338,0.8253 -0.3681,0.9367 -0.1342,0.1114 -0.2952,0.4751 -0.3577,0.8084 -0.063,0.3333 -0.2797,0.9316 -0.4826,1.3295 -0.2029,0.398 -0.3689,0.887 -0.3689,1.0867 0,0.1997 -0.1321,0.5091 -0.2936,0.6876 -0.1615,0.1784 -0.3409,0.677 -0.3987,1.108 -0.058,0.4311 -0.2592,0.9378 -0.4475,1.1261 -0.1883,0.1882 -0.3424,0.5823 -0.3424,0.8755 0,0.2933 -0.1228,0.6351 -0.273,0.7597 -0.1501,0.1246 -0.327,0.5309 -0.3931,0.9028 -0.066,0.3719 -0.2767,0.9361 -0.4681,1.2539 -0.1914,0.3177 -0.348,0.7631 -0.348,0.9898 0,0.2265 -0.1667,0.624 -0.3705,0.8831 -0.2038,0.2591 -0.3706,0.6793 -0.3706,0.9337 0,0.2545 -0.1566,0.7227 -0.348,1.0404 -0.1914,0.3177 -0.402,0.882 -0.4681,1.2539 -0.066,0.3719 -0.2429,0.7781 -0.3931,0.9027 -0.1501,0.1246 -0.273,0.4552 -0.273,0.7348 0,0.2795 -0.1561,0.7069 -0.3469,0.95 -0.1907,0.243 -0.4057,0.7913 -0.4776,1.2186 -0.072,0.4271 -0.2453,0.8718 -0.3852,0.9878 -0.1399,0.1162 -0.3092,0.5768 -0.3762,1.0237 -0.067,0.447 -0.2356,0.9071 -0.3747,1.0225 -0.1391,0.1155 -0.3073,0.5141 -0.3739,0.886 -0.066,0.3719 -0.2391,0.8118 -0.3834,0.9774 -0.1443,0.1657 -0.3132,0.6243 -0.3754,1.019 -0.062,0.3948 -0.2671,0.9167 -0.4553,1.1597 -0.1882,0.243 -0.3422,0.6468 -0.3422,0.8971 0,0.2504 -0.1667,0.6673 -0.3705,0.9264 -0.2038,0.2591 -0.3706,0.7177 -0.3706,1.0191 0,0.3013 -0.1667,0.7599 -0.3705,1.019 -0.2038,0.259 -0.3706,0.6971 -0.3706,0.9735 0,0.2765 -0.1667,0.6948 -0.3705,0.9297 -0.2038,0.2351 -0.3706,0.6587 -0.3706,0.9416 0,0.2828 -0.1369,0.6511 -0.3043,0.8185 -0.1673,0.1674 -0.3759,0.6881 -0.4636,1.1571 -0.088,0.4691 -0.2842,0.9907 -0.4368,1.1594 -0.1526,0.1686 -0.2775,0.5166 -0.2775,0.7732 0,0.2566 -0.1576,0.6483 -0.3502,0.8704 -0.1927,0.2222 -0.4052,0.77 -0.4723,1.2175 -0.067,0.4475 -0.2343,0.9068 -0.3715,1.0206 -0.1372,0.114 -0.3069,0.5168 -0.3771,0.8953 -0.07,0.3785 -0.2493,0.8238 -0.3979,0.9894 -0.1486,0.1657 -0.3195,0.6243 -0.3799,1.019 -0.06,0.3948 -0.2272,0.8534 -0.3706,1.019 -0.1434,0.1658 -0.3127,0.6244 -0.3762,1.0191 -0.063,0.3947 -0.2286,0.8014 -0.3669,0.9036 -0.1382,0.1017 -0.305,0.5192 -0.3705,0.9264 -0.065,0.4073 -0.2359,0.8268 -0.3786,0.9323 -0.1427,0.1061 -0.3083,0.5559 -0.368,1.0008 -0.06,0.4451 -0.2626,0.9632 -0.4509,1.1515 -0.1883,0.1884 -0.3429,0.5716 -0.3436,0.8519 -7e-4,0.2803 -0.1669,0.7596 -0.3693,1.0653 -0.2025,0.3057 -0.3687,0.7724 -0.3694,1.037 -6e-4,0.2647 -0.1679,0.6734 -0.3717,0.9085 -0.2038,0.235 -0.3706,0.6272 -0.3706,0.8717 0,0.2444 -0.1626,0.7527 -0.3614,1.1296 -0.1987,0.3769 -0.4045,0.8311 -0.4573,1.0094 -0.123,0.4151 -0.3425,0.4108 -0.7274,-0.014 z"
         id="path3" /><g
         id="g3"
         transform="matrix(0.87043985,0,0,0.87043985,-5726.7056,3065.35)"><path
           style="fill:#06038d;fill-opacity:1;stroke:none;stroke-width:0.358531;stroke-linecap:round;stroke-linejoin:round;paint-order:stroke fill markers"
           d="m -421.21872,3691.1831 c 0,-0.3705 0.1545,-0.8322 0.34332,-1.0258 0.33859,-0.3473 1.81738,-3.0603 4.43333,-8.1336 0.73561,-1.4267 1.46252,-2.6495 1.61538,-2.7175 0.15285,-0.067 0.27791,-0.4291 0.27791,-0.8028 0,-0.3736 0.12505,-0.7349 0.27791,-0.8029 0.15285,-0.067 0.67483,-0.8739 1.15995,-1.791 2.6536,-5.0166 3.9365,-7.4141 4.85786,-9.0785 2.29597,-4.1475 3.14795,-5.7167 4.92903,-9.0784 1.02576,-1.9362 2.37985,-4.5209 3.00909,-5.7437 0.62922,-1.2227 1.26911,-2.2789 1.42196,-2.3467 0.15286,-0.069 0.27791,-0.4293 0.27791,-0.803 0,-0.3735 0.12506,-0.7348 0.27792,-0.8028 0.15285,-0.068 0.63063,-0.7905 1.06172,-1.6057 4.73768,-8.9591 5.37071,-9.9073 9.19479,-13.7748 3.26639,-3.3034 8.18347,-6.8195 11.00594,-7.8701 0.6867,-0.2556 1.5381,-0.6176 1.892,-0.8043 0.35388,-0.1869 0.96934,-0.3397 1.36769,-0.3397 0.39835,0 0.82732,-0.1667 0.95328,-0.3705 0.12596,-0.2038 0.77791,-0.3706 1.44878,-0.3706 0.67087,0 1.70321,-0.168 2.29408,-0.3732 0.70467,-0.2448 16.86757,-0.3404 46.97487,-0.2779 l 45.90056,0.095 -1.43437,0.769 c -2.08112,1.1158 -3.26123,1.7989 -3.4724,2.0101 -0.1019,0.1017 -0.85227,0.5395 -1.66749,0.9725 -1.63912,0.8706 -10.00457,5.6641 -13.07825,7.494 -1.07893,0.6423 -2.12111,1.1678 -2.31594,1.1678 -0.19484,0 -0.35424,0.1356 -0.35424,0.3014 0,0.1658 -0.58362,0.5304 -1.29694,0.8102 -0.71331,0.28 -1.29693,0.6134 -1.29693,0.7412 0,0.1276 -0.58362,0.4612 -1.29693,0.741 -0.71331,0.28 -1.29692,0.6446 -1.29692,0.8104 0,0.1657 -11.74592,0.3013 -26.10202,0.3013 -17.00164,0 -26.18187,0.1292 -26.33104,0.3706 -0.12596,0.2038 -0.46739,0.3705 -0.75874,0.3705 -0.58169,0 -1.70607,0.8332 -2.89144,2.1426 -0.73357,0.8104 -2.66657,4.2768 -5.93392,10.6414 -0.837,1.6305 -1.60983,3.0478 -1.7174,3.1497 -0.10754,0.1017 -0.61022,1.019 -1.11697,2.0381 -0.50677,1.019 -1.04645,1.9083 -1.1993,1.9762 -0.15286,0.067 -0.27791,0.4293 -0.27791,0.803 0,0.3735 -0.12506,0.7348 -0.27791,0.8028 -0.15286,0.067 -1.01542,1.5408 -1.91682,3.2731 -0.9014,1.7324 -2.1158,3.9835 -2.69864,5.0025 -0.58286,1.0191 -1.59399,2.9025 -2.24695,4.1853 -1.01017,1.9847 -1.10507,2.3844 -0.63633,2.6808 0.32382,0.2047 7.91693,0.3507 18.42147,0.354 l 17.87057,0.011 0.62883,-0.9598 c 0.88488,-1.3504 1.78938,-2.975 2.97285,-5.3396 0.56102,-1.1209 1.15124,-2.0936 1.31159,-2.1616 0.16034,-0.067 0.29154,-0.443 0.29154,-0.8337 0,-0.3906 0.16674,-0.7102 0.37055,-0.7102 0.20379,0 0.37055,-0.4169 0.37055,-0.9264 v -0.9264 h -10.56072 c -6.43921,0 -10.56073,-0.1377 -10.56073,-0.3528 0,-0.3232 2.00879,-1.6067 6.27992,-4.0122 0.9064,-0.5106 2.49052,-1.428 3.52024,-2.0388 1.73748,-1.0307 2.80706,-1.6471 5.06378,-2.9178 0.48648,-0.2738 0.96788,-0.5814 1.06978,-0.6833 0.23308,-0.233 1.60362,-1.0157 3.52025,-2.01 0.8152,-0.423 1.56558,-0.8525 1.66748,-0.9544 0.1019,-0.1016 0.87497,-0.5604 1.71793,-1.019 l 1.53265,-0.8337 20.32989,0.011 c 11.18144,0 20.16314,0.1282 19.95934,0.278 -0.20381,0.1497 -0.89081,1.2727 -1.5267,2.4955 -2.24574,4.3187 -5.06841,9.6569 -6.07403,11.4871 -0.9343,1.7005 -2.01878,3.7274 -5.40758,10.107 -2.79979,5.2706 -6.24715,9.1036 -11.33796,12.6062 -0.94923,0.653 -1.83684,1.1874 -1.97246,1.1874 -0.13561,0 -0.6892,0.3096 -1.23017,0.688 -0.54096,0.3783 -2.40093,1.2537 -4.13326,1.9454 l -3.1497,1.2575 -47.15268,0.099 c -45.37413,0.096 -47.1527,0.074 -47.1527,-0.5744 z"
           id="path4" /><path
           style="fill:#06038d;fill-opacity:1;stroke:none;stroke-width:0.507038;stroke-linecap:round;stroke-linejoin:round;paint-order:stroke fill markers"
           d="m -303.78782,3691.4105 c 0,-0.1644 1.20758,-2.5815 2.6835,-5.3714 1.47593,-2.7898 3.42142,-6.4874 4.32333,-8.2167 0.90191,-1.7293 1.75774,-3.2622 1.90185,-3.4062 0.27833,-0.2784 3.88567,-7.0783 6.53305,-12.315 0.87425,-1.7293 1.72126,-3.2621 1.88223,-3.4062 0.16099,-0.1442 1.19901,-2.0307 2.30674,-4.1924 1.10773,-2.1617 2.71857,-5.2272 3.57965,-6.8124 4.56131,-8.3972 10.70436,-19.87 12.27612,-22.9268 l 1.41461,-2.7512 h 15.62355 15.62353 l -2.10769,3.9303 c -1.15923,2.1617 -3.08684,5.7579 -4.28357,7.9916 -1.19674,2.2337 -2.81255,5.2404 -3.59069,6.6815 -0.77815,1.4411 -2.54498,4.7426 -3.92631,7.3365 -2.99685,5.6278 -5.39466,10.097 -7.8022,14.5421 -0.97564,1.8015 -2.82738,5.2797 -4.11496,7.7296 -1.28759,2.4499 -3.11684,5.8693 -4.06501,7.5986 -0.94817,1.7293 -2.70979,5.0308 -3.91471,7.3365 -3.87626,7.4178 -1.35949,6.5505 -19.00992,6.5505 -8.4332,0 -15.3331,-0.1345 -15.3331,-0.2989 z"
           id="path5" /><path
           style="fill:#06038d;fill-opacity:1;stroke:none;stroke-width:0.507038;stroke-linecap:round;stroke-linejoin:round;paint-order:stroke fill markers"
           d="m -260.77446,3687.6482 c 1.21424,-2.2338 3.1164,-5.7711 4.22703,-7.8606 4.34062,-8.1669 6.12592,-11.5095 7.62717,-14.2801 0.85891,-1.5853 2.75466,-5.1225 4.21277,-7.8606 1.4581,-2.7381 3.21693,-6.0396 3.90851,-7.3365 6.4713,-12.1364 7.6482,-13.9878 11.1627,-17.5594 5.39329,-5.4809 10.37252,-8.1776 18.74192,-10.1503 1.7534,-0.4133 17.08188,-0.5885 51.48684,-0.5885 26.94458,0 48.99013,0.112 48.99013,0.2489 0,0.2407 -2.27714,4.5655 -5.2495,9.9699 -0.79259,1.4411 -2.67503,4.9783 -4.1832,7.8606 -1.50817,2.8821 -3.3906,6.4194 -4.1832,7.8605 -1.92617,3.5023 -4.96045,9.1358 -7.33857,13.6251 -1.95864,3.6973 -5.52101,10.3574 -8.12883,15.1971 -0.77651,1.4411 -2.71753,5.0963 -4.31337,8.1226 -1.59585,3.0263 -3.17645,5.8003 -3.51245,6.1643 -0.47439,0.5141 -4.67334,0.6312 -18.7885,0.5241 l -18.17757,-0.1379 0.6974,-1.3101 c 1.25266,-2.3532 4.63604,-8.5872 6.15815,-11.3466 1.26746,-2.2979 1.36773,-2.7468 0.67312,-3.0132 -0.44891,-0.1723 -8.46098,-0.3133 -17.80462,-0.3133 -9.78706,0 -16.9884,-0.201 -16.9884,-0.4742 0,-0.4804 1.93666,-1.7058 7.61203,-4.8165 1.72192,-0.9437 4.42777,-2.497 6.01299,-3.4516 l 2.88221,-1.7358 h 12.38177 c 9.28069,0 12.51044,-0.1654 12.89553,-0.6564 0.28258,-0.3603 1.88078,-3.2491 3.55154,-6.4194 1.67078,-3.1705 3.74073,-7.0615 4.59993,-8.6468 0.85919,-1.5852 2.37251,-4.3774 3.36294,-6.205 0.99043,-1.8276 1.67326,-3.6551 1.5174,-4.0613 -0.4477,-1.1666 -36.02581,-1.0781 -39.62355,0.098 -3.54251,1.1587 -5.83686,3.4283 -8.42441,8.3335 -2.07522,3.934 -2.90633,5.4799 -6.71672,12.4933 -0.83625,1.5392 -2.86286,5.3582 -4.50359,8.4868 -4.16582,7.9434 -6.1638,10.9223 -9.41959,14.0443 -4.41049,4.2292 -6.84905,5.7987 -12.37389,7.9638 -3.13366,1.2281 -3.84941,1.2931 -14.23968,1.2931 h -10.94017 z"
           id="path6" /><path
           style="fill:#06038d;fill-opacity:1;stroke:none;stroke-width:0.507038;stroke-linecap:round;stroke-linejoin:round;paint-order:stroke fill markers"
           d="m -135.23587,3688.1792 c 1.0455,-1.9493 2.54642,-4.7234 3.33536,-6.1646 0.78894,-1.441 2.56012,-4.7425 3.93595,-7.3365 1.37583,-2.594 3.32947,-6.2491 4.3414,-8.1225 1.01193,-1.8735 2.82693,-5.2928 4.03333,-7.5986 2.03364,-3.8869 4.3983,-8.3057 8.27276,-15.4592 0.85857,-1.5852 2.73668,-5.1225 4.17354,-7.8606 2.68234,-5.1114 5.13724,-9.6416 6.60236,-12.1839 l 0.830533,-1.4411 45.871451,0.019 c 48.424282,0.02 49.998092,0.091 53.12129702,2.4131 0.72094621,0.536 1.68387888,1.7489 2.13985598,2.6953 0.9118328,1.8928 1.1238275,7.4396 0.3400806,8.8981 -0.2689367,0.5004 -1.17526226,2.3248 -2.01406017,4.0542 -1.49700753,3.0863 -4.91896643,9.6368 -8.69182793,16.6382 -1.0483667,1.9455 -2.7641645,5.129 -3.8128825,7.0745 -1.048717,1.9456 -2.848875,5.3059 -4.000347,7.4676 -1.151471,2.1617 -3.164315,5.9347 -4.472988,8.3846 -1.308672,2.4499 -3.249336,6.1051 -4.312585,8.1226 l -1.933191,3.6683 -17.102963,0.1382 c -9.406618,0.076 -17.102953,-0.021 -17.102953,-0.2149 0,-0.1942 1.154578,-2.4966 2.56574,-5.1166 1.41115,-2.6199 4.033973,-7.5933 5.828494,-11.0519 1.7945,-3.4587 3.435686,-6.5243 3.647077,-6.8125 0.21138,-0.2883 1.984417,-3.5897 3.940076,-7.3366 1.955659,-3.7468 4.390102,-8.3453 5.409872,-10.2187 3.455419,-6.3481 3.762626,-7.0324 3.754593,-8.3644 -0.0105,-1.7406 -0.43271,-2.3173 -2.455138,-3.3534 -1.449828,-0.7427 -3.899869,-0.8581 -18.079352,-0.8511 -9.021236,0 -16.651855,0.1812 -16.956945,0.393 -0.30509,0.2118 -1.461028,2.1536 -2.568757,4.3152 -1.107729,2.1617 -2.653802,5.1095 -3.435719,6.5506 -5.801064,10.6915 -9.23886,17.1169 -16.121747,30.1322 -1.447998,2.7381 -3.458077,6.5113 -4.466844,8.3847 l -1.83411,3.4062 -17.34115,0.138 -17.34115,0.1382 z"
           id="path7" /><path
           style="fill:#06038d;fill-opacity:1;stroke:none;stroke-width:0.507038;stroke-linecap:round;stroke-linejoin:round;paint-order:stroke fill markers"
           d="m 8.5394866,3691.2902 c 0,-0.2306 0.2102087,-0.6433 0.4671308,-0.9171 0.2569221,-0.2738 1.8017826,-3.0596 3.4330226,-6.1905 1.631241,-3.131 3.278416,-6.1966 3.660389,-6.8126 0.381973,-0.6159 1.875851,-3.36 3.319728,-6.0981 1.443879,-2.7381 3.507419,-6.6291 4.585645,-8.6466 1.078226,-2.0176 2.841066,-5.319 3.917423,-7.3366 1.076356,-2.0175 2.785832,-5.2011 3.798837,-7.0746 3.666757,-6.7812 4.067858,-7.5934 4.067858,-8.2378 0,-0.5051 -3.419503,-0.6865 -14.962969,-0.7937 l -14.9629692,-0.1391 1.9285101,-3.6683 c 4.0043841,-7.6168 5.9033521,-11.1459 6.5846251,-12.2368 l 0.703351,-1.1262 57.387236,0.012 c 57.050556,0.011 57.379546,0.018 56.077136,1.0364 -0.72056,0.5637 -1.49972,1.0301 -1.73148,1.0365 -0.23176,0.011 -3.60822,1.8982 -7.50326,4.2039 -3.89505,2.3058 -7.19838,4.1924 -7.34076,4.1924 -0.14237,0 -2.83495,1.5291 -5.98349,3.398 l -5.72463,3.3981 -14.73671,0.1392 -14.736713,0.1392 -1.834001,3.4062 c -4.314854,8.0139 -5.931494,11.0355 -8.551537,15.9832 -1.526264,2.8822 -3.213475,6.0239 -3.749364,6.9816 -0.535888,0.9576 -2.417933,4.4949 -4.182322,7.8606 -1.764388,3.3657 -3.70429,6.9447 -4.310896,7.9536 -0.606605,1.0087 -2.031716,3.6617 -3.166912,5.8954 l -2.063997,4.0613 h -17.19444 c -9.456942,0 -17.1944414,-0.1887 -17.1944414,-0.4192 z"
           id="path8" /></g></g></g><style
     type="text/css"
     id="style1">
	.st0{fill:#ED1C24;}
</style></svg>
