<?xml version="1.0" encoding="UTF-8" standalone="no"?>
<!-- Created with Inkscape (http://www.inkscape.org/) -->

<svg
   width="146.76971mm"
   height="49.987907mm"
   viewBox="0 0 146.76971 49.987907"
   version="1.1"
   id="svg1"
   xml:space="preserve"
   inkscape:version="1.4 (86a8ad7, 2024-10-11)"
   sodipodi:docname="marcas.svg"
   xmlns:inkscape="http://www.inkscape.org/namespaces/inkscape"
   xmlns:sodipodi="http://sodipodi.sourceforge.net/DTD/sodipodi-0.dtd"
   xmlns="http://www.w3.org/2000/svg"
   xmlns:svg="http://www.w3.org/2000/svg"><sodipodi:namedview
     id="namedview1"
     pagecolor="#ffffff"
     bordercolor="#000000"
     borderopacity="0.25"
     inkscape:showpageshadow="2"
     inkscape:pageopacity="0.0"
     inkscape:pagecheckerboard="0"
     inkscape:deskcolor="#d1d1d1"
     inkscape:document-units="mm"
     inkscape:zoom="0.08"
     inkscape:cx="-2487.5"
     inkscape:cy="981.25"
     inkscape:window-width="1920"
     inkscape:window-height="1017"
     inkscape:window-x="-8"
     inkscape:window-y="-8"
     inkscape:window-maximized="1"
     inkscape:current-layer="layer1"
     showgrid="false"><inkscape:page
       x="0"
       y="0"
       width="146.76971"
       height="49.987907"
       id="page2"
       margin="0"
       bleed="0" /></sodipodi:namedview><defs
     id="defs1" /><g
     inkscape:label="Capa 1"
     inkscape:groupmode="layer"
     id="layer1"
     transform="translate(1295.7245,-617.61636)"><g
       id="g63"
       transform="matrix(0.21316319,0,0,0.21316319,-90.036289,-670.79658)"
       inkscape:export-filename="resources\icons\trademarks\merida-logo.svg"
       inkscape:export-xdpi="96"
       inkscape:export-ydpi="96"><g
         id="g58"
         transform="matrix(1.0412177,0,0,1.0412177,-58.337389,-285.42268)"><path
           d="m -4829.6362,6248.7113 c -1.2026,-2.706 -4.5099,-3.0066 -13.8305,-3.0066 h -83.2836 l -30.6676,58.0279 h 86.5909 c 12.9285,0 18.9418,-8.1179 22.5497,-15.3338 0,0 17.4385,-33.0729 17.4385,-33.6743 0.6013,-1.2026 1.2026,-3.0066 1.2026,-3.9086 0.3007,-0.3006 0.6013,-0.902 0,-2.1046 z m -47.2041,38.7855 c -0.9019,0.6013 -3.9086,0.902 -3.9086,0.902 h -40.8901 l 14.1311,-26.759 h 37.2822 c 5.1113,0 6.0133,0.3007 6.3139,1.2026 0,0.3007 0,0.902 -0.6013,2.4053 0,0 -7.2159,13.8305 -10.5232,19.8438 -0.6013,1.5033 -1.2026,2.1046 -1.804,2.4053 z m -227.6018,-25.857 8.4186,-15.9351 h -88.3949 c -15.6345,0 -17.7391,4.2092 -19.8437,7.8172 -7.5166,14.1311 -22.2491,41.7921 -22.2491,41.7921 -0.3006,0.902 -0.902,2.4053 -0.902,3.608 0,0.6013 0.3007,1.2026 0.6014,1.804 0.9019,1.2026 3.6079,3.0066 10.8238,3.0066 h 89.2969 l 8.1179,-15.3338 h -76.3684 l 3.0066,-5.4119 h 60.1326 l 8.4186,-16.2358 h -60.1326 l 2.706,-5.1113 z m 167.1686,-15.9351 h -31.5696 l -30.9683,58.3286 h 31.8703 z m 221.5885,3.0066 c -1.2026,-1.804 -3.9086,-2.706 -11.1245,-2.706 h -78.1723 c -12.0265,0 -13.8305,3.608 -16.2358,7.8173 l -26.759,50.5113 h 29.7656 l 11.1245,-21.0464 h 47.8054 l -11.1245,21.0464 h 28.2623 l 26.4583,-50.2107 c 0,0 0.6014,-1.2026 0.6014,-2.7059 0.3006,-1.2027 0,-2.1047 -0.6014,-2.706 z m -80.8783,15.0331 c 0,0 0.902,-2.1046 3.9087,-2.1046 h 41.1908 c 2.7059,0 2.7059,1.5033 2.4053,2.1046 -0.3007,0.3007 -3.3073,6.314 -3.3073,6.314 h -47.8054 z"
           id="path1-87"
           style="stroke-width:3.00663" /><path
           d="m -4983.8762,6248.4106 c -0.902,-1.2026 -3.3073,-2.7059 -10.5232,-2.7059 h -93.2055 l -30.6676,58.3286 h 28.5629 l 22.2491,-42.0928 h 49.3087 c 0,0 2.1046,0 1.5033,1.5033 -0.6013,0.902 -0.902,2.1046 -1.2026,2.4053 -0.3007,0.6013 -0.6014,1.2026 -2.4054,1.2026 h -34.2755 l -8.7192,16.5365 27.0596,20.4451 h 36.6809 l -26.759,-20.7458 h 13.5298 c 10.8239,-0.3006 13.8305,-2.1046 17.1378,-7.5166 0,0 12.0265,-22.8503 12.0265,-23.151 0.3007,-0.6013 0.6013,-1.2026 0.6013,-1.804 0,-0.902 -0.3006,-1.5033 -0.9019,-2.4053 z m -284.1265,-2.7059 -27.3603,27.6609 -7.8172,-27.6609 h -35.1776 c -6.0132,0 -8.1179,2.4053 -10.2225,6.3139 -0.3007,0.3006 -27.661,52.0147 -27.661,52.0147 h 29.1643 l 22.2491,-42.0928 h 6.0132 l 9.3206,30.3669 h 19.8437 l 33.3736,-30.3669 h 7.8172 l -22.5497,42.0928 h 29.1643 l 26.759,-50.5114 c 2.706,-6.3139 1.804,-7.5166 -6.3139,-7.5166 z"
           id="path2-4"
           style="stroke-width:3.00663" /></g><g
         clip-rule="evenodd"
         fill="#9ecb27"
         fill-rule="evenodd"
         id="g4"
         transform="matrix(2.8162053,0,0,2.8162053,-5624.5617,6044.3626)"><path
           d="m 137.3,47.7 c 2,0 2.3,-1 0.7,-2.2 L 122.1,32.6 c -1.6,-1.2 -3.7,-1.2 -5.5,0.1 l -4.2,2.7 c -2.1,1.4 -4.6,1.6 -6.1,0.7 -1.5,-0.9 -4.1,-0.8 -5.9,0.2 L 84,45.9 c -1.8,1 -1.5,1.9 0.5,1.9 h 52.8 z"
           id="path3-2" /><path
           d="m 148.8,38.4 c 3,3 -1.4,3.7 -3.7,2 L 121.4,22.1 c -1.7,-1.2 -4,-0.9 -5.8,0.4 l -4.4,3 c -1.7,1.2 -4.3,1.6 -6,0.6 L 105,26 c -1.8,-1 -4.6,-1 -6.3,0.1 l -23,14.7 c -1.9,1.2 -5,0.1 -2.6,-2.5 L 108.3,0.9 c 1.2,-1.2 4.2,-1.3 5.5,0 z"
           id="path4-7" /></g></g></g><style
     type="text/css"
     id="style1">
	.st0{fill:#ED1C24;}
</style></svg>
