<?xml version="1.0" encoding="UTF-8" standalone="no"?>
<!-- Created with Inkscape (http://www.inkscape.org/) -->

<svg
   width="159.69246mm"
   height="51.026924mm"
   viewBox="0 0 159.69246 51.026924"
   version="1.1"
   id="svg1"
   xml:space="preserve"
   inkscape:version="1.4 (86a8ad7, 2024-10-11)"
   sodipodi:docname="marcas.svg"
   xmlns:inkscape="http://www.inkscape.org/namespaces/inkscape"
   xmlns:sodipodi="http://sodipodi.sourceforge.net/DTD/sodipodi-0.dtd"
   xmlns="http://www.w3.org/2000/svg"
   xmlns:svg="http://www.w3.org/2000/svg"><sodipodi:namedview
     id="namedview1"
     pagecolor="#ffffff"
     bordercolor="#000000"
     borderopacity="0.25"
     inkscape:showpageshadow="2"
     inkscape:pageopacity="0.0"
     inkscape:pagecheckerboard="0"
     inkscape:deskcolor="#d1d1d1"
     inkscape:document-units="mm"
     inkscape:zoom="0.08"
     inkscape:cx="-2487.5"
     inkscape:cy="981.25"
     inkscape:window-width="1920"
     inkscape:window-height="1017"
     inkscape:window-x="-8"
     inkscape:window-y="-8"
     inkscape:window-maximized="1"
     inkscape:current-layer="layer1"
     showgrid="false"><inkscape:page
       x="7.4278176e-13"
       y="0"
       width="159.69244"
       height="51.026924"
       id="page2"
       margin="0"
       bleed="0" /></sodipodi:namedview><defs
     id="defs1" /><g
     inkscape:label="Capa 1"
     inkscape:groupmode="layer"
     id="layer1"
     transform="translate(935.18627,-617.09687)"><g
       id="g65"
       transform="matrix(0.21316319,0,0,0.21316319,109.26303,-670.27706)"
       inkscape:export-filename="resources\icons\trademarks\pinarello-logo.svg"
       inkscape:export-xdpi="96"
       inkscape:export-ydpi="96"><path
         d="m -4461.5586,6094.7068 -0.3184,0.1388 c -3.9036,1.759 -7.6134,2.982 -13.1097,5.0956 -8.6444,3.5196 -16.602,8.0295 -23.1364,14.622 a 67.586513,67.586513 0 0 0 -5.0717,6.3424 l -0.2774,0.3905 c -15.2968,21.8688 -19.3544,52.6854 -20.4815,71.0669 l -0.084,2.1787 c -0.056,3.4838 -0.1714,5.7857 -0.1714,6.2482 0,-1.6888 0.084,-3.8178 0.1714,-6.2482 0.2946,-16.5043 0.035,-59.0569 -22.2868,-58.0805 6.3734,-0.6698 15.004,-1.7436 15.1701,-4.7137 0.1679,-2.8466 -9.0691,-5.8423 -17.6126,-5.8423 -0.9831,0 -4.138,-0.092 -5.0698,-0.034 8.2315,-0.5446 20.0276,-2.0467 20.0054,-4.7514 -0.025,-2.7215 -8.0621,-6.4912 -18.243,-7.1029 -4.5029,-0.3117 -7.9078,-0.1216 -8.122,-0.1216 a 134.57355,134.57355 0 0 1 5.6265,-0.1557 c 0.8034,0.011 1.2999,-0.1033 2.672,-0.1285 9.7235,-0.6953 17.7479,-2.8638 18.4005,-6.5909 1.2177,-6.9436 -34.1751,-8.3325 -39.5055,-9.0075 2.3534,0 27.6375,-0.084 28.5847,-0.084 38.6181,0 69.9246,-10.573 69.9246,-24.0715 0,-13.4933 -51.5839,-36.2904 -123.5638,-22.732 17.6538,-11.2154 66.0193,-12.0395 71.9712,-11.6797 48.2474,2.9289 84.8686,17.2255 84.8686,34.4116 0,7.7777 -7.5004,14.9628 -20.1785,20.7727 z"
         fill="#ed1c24"
         id="path1-86"
         style="stroke-width:1.71278" /><path
         clip-rule="evenodd"
         d="m -4196.1813,6267.6371 c -8.5335,0 -26.7146,0.9448 -26.7146,-12.573 0,-25.1303 15.6022,-28.2829 34.5705,-28.2829 5.9627,0 15.7158,5.4384 15.7158,11.0006 0,16.6306 -5.6855,29.8553 -23.5717,29.8553 z m -343.5447,-38.891 c 6.9591,-0.015 41.5117,-2.3198 41.5117,4.7809 0,6.168 -4.775,9.6775 -11.2916,9.6775 l -32.205,0.01 z m 296.4031,20.0344 v 9.4244 c 0,16.1583 21.1663,20.431 37.7133,20.431 30.8517,0 55.0015,-8.699 55.0015,-39.2857 0,-21.9237 -28.1954,-23.5698 -47.1415,-23.5698 -20.6922,0 -45.5732,12.306 -45.5733,33.0001 z m -256.5016,4.1053 c 26.7602,-2.2261 29.6242,-35.4932 0,-35.4932 h -58.0767 l -10.9368,61.3688 20.6162,-0.066 3.8204,-24.0879 20.3773,-0.1096 c 4.5636,0 16.497,19.5242 17.7466,24.1975 h 22.5833 z m 141.8711,-35.5091 -20.8834,0.018 -7.1345,43.4368 c 0.2072,10.646 12.9338,17.8663 23.2688,17.8663 h 38.7177 l 1.6163,-9.6775 c -8.3303,0 -16.2122,0.6895 -23.1175,0.4842 -16.788,-0.4942 -21.3218,-4.9084 -18.5278,-19.8091 z m -260.0908,12.5751 9.9783,23.0018 -27.5077,-0.2511 z m -36.6511,48.7439 12.9059,-14.5182 h 38.7178 l 5.0718,14.4305 22.3521,0.087 -32.2647,-61.303 h -14.5201 l -53.2359,61.303 z m -215.9445,-49.9815 27.1948,-0.027 c 12.2442,-0.01 12.9079,3.083 12.9079,9.6774 0,5.0261 -7.9815,8.0672 -12.9079,8.0672 l -29.403,-0.046 z m 28.8091,29.0104 c 14.6376,0 33.8789,-6.8535 33.8789,-20.9712 v -3.2264 c 0,-15.9151 -22.3183,-16.1344 -38.7176,-16.1344 h -41.9442 l -11.1502,61.331 20.8296,-0.027 3.3181,-20.9572 z m 169.1137,-40.3837 -20.6979,0.052 -6.7301,41.8964 -2.9474,0.046 -30.6525,-41.9441 h -22.5852 l -11.6247,61.2392 21.304,0.062 6.9732,-45.079 34.9709,45.079 20.2797,-0.1316 z m -98.1473,0.052 h -20.9552 l -11.5527,61.2532 21.1684,0.037 z m 322.6593,25.8139 c 2.258,-22.9042 50.2425,-16.3117 56.7394,-16.8738 l 1.3392,-8.9381 h -37.1015 c -26.6667,0 -46.7868,13.9124 -46.7868,40.33 0,21.3656 31.5353,20.9711 46.3663,20.9711 h 27.8465 l 1.7517,-11.2637 -42.0836,-0.027 c -9.2867,0 -11.2916,-5.0559 -11.2916,-14.5182 h 54.551 l 1.9112,-9.6795 z m 162.2644,-25.8298 -20.8835,0.018 -7.1384,43.4368 c 0.2093,10.646 12.9337,17.8663 23.2728,17.8663 h 38.7177 l 1.6123,-9.6775 c -8.3263,0 -16.2122,0.6895 -23.1134,0.4842 -16.7921,-0.4942 -21.322,-4.9084 -18.5279,-19.8091 z"
         fill-rule="evenodd"
         id="path2-50"
         style="stroke-width:1.99289" /></g></g><style
     type="text/css"
     id="style1">
	.st0{fill:#ED1C24;}
</style></svg>
