<?xml version="1.0" encoding="UTF-8" standalone="no"?>
<!-- Created with Inkscape (http://www.inkscape.org/) -->

<svg
   width="116.79565mm"
   height="49.601433mm"
   viewBox="0 0 116.79565 49.601433"
   version="1.1"
   id="svg1"
   xml:space="preserve"
   inkscape:version="1.4 (86a8ad7, 2024-10-11)"
   sodipodi:docname="marcas.svg"
   xmlns:inkscape="http://www.inkscape.org/namespaces/inkscape"
   xmlns:sodipodi="http://sodipodi.sourceforge.net/DTD/sodipodi-0.dtd"
   xmlns="http://www.w3.org/2000/svg"
   xmlns:svg="http://www.w3.org/2000/svg"><sodipodi:namedview
     id="namedview1"
     pagecolor="#ffffff"
     bordercolor="#000000"
     borderopacity="0.25"
     inkscape:showpageshadow="2"
     inkscape:pageopacity="0.0"
     inkscape:pagecheckerboard="0"
     inkscape:deskcolor="#d1d1d1"
     inkscape:document-units="mm"
     inkscape:zoom="0.08"
     inkscape:cx="-2487.5"
     inkscape:cy="981.25"
     inkscape:window-width="1920"
     inkscape:window-height="1017"
     inkscape:window-x="-8"
     inkscape:window-y="-8"
     inkscape:window-maximized="1"
     inkscape:current-layer="layer1"
     showgrid="false"><inkscape:page
       x="0"
       y="0"
       width="116.79565"
       height="49.601433"
       id="page2"
       margin="0"
       bleed="0" /></sodipodi:namedview><defs
     id="defs1" /><g
     inkscape:label="Capa 1"
     inkscape:groupmode="layer"
     id="layer1"
     transform="translate(749.10613,-617.80958)"><g
       id="g59"
       transform="matrix(0.21316319,0,0,0.21316319,683.7585,-670.95271)"
       inkscape:export-filename="resources\icons\trademarks\scott-logo.svg"
       inkscape:export-xdpi="96"
       inkscape:export-ydpi="96"><path
         d="m -6662.2285,6237.7887 4.3219,-7.0524 h 66.5917 l 5.8638,-11.3989 h -89.281 c -8.4346,5e-4 -16.2168,4.5384 -20.3713,11.8789 l -5.7636,10.1824 c -3.564,6.2962 0.9831,14.0982 8.2146,14.0982 h 45.9787 c 2.8209,0 4.649,2.9755 3.3766,5.494 l -3.7564,7.4305 h -69.1085 l -5.752,10.1659 h 105.9765 l 10.886,-21.1555 c 3.2352,-6.288 -1.3283,-13.771 -8.3971,-13.771 h -45.566 c -2.9492,-0.01 -4.7558,-3.3536 -3.2155,-5.8705 z m 105.4522,30.922 c -3.4161,0 -5.5729,-3.6741 -3.9076,-6.6578 l 16.2287,-29.0875 c 0.7421,-1.3313 2.1467,-2.1566 3.6709,-2.1568 h 44.5435 l 6.6069,-11.4712 h -70.228 c -8.197,-3e-4 -15.7699,4.3776 -19.8602,11.4811 l -19.0825,33.1413 c -3.7448,6.505 0.9485,14.6259 8.453,14.6259 h 66.5999 l 5.6879,-9.8733 z m 167.6036,-49.3733 h -77.1818 c -7.0645,8e-4 -13.6169,3.6867 -17.2857,9.7238 l -21.2558,34.9824 c -3.8764,6.3784 0.7134,14.5421 8.1735,14.5421 h 81.451 c 5.9296,0 11.4285,-3.0922 14.5059,-8.1587 l 20.9418,-34.4631 c 4.4304,-7.2924 -0.817,-16.6265 -9.3489,-16.6265 z m -28.0781,17.1148 -16.998,28.7241 c -0.8554,1.4467 -2.4111,2.3342 -4.0917,2.3344 h -26.015 c -2.8209,0 -4.57,-3.0692 -3.1333,-5.4973 l 16.9965,-28.7241 c 0.8559,-1.4469 2.4122,-2.3344 4.0933,-2.3344 h 26.0133 c 2.8226,0 4.5717,3.0692 3.1333,5.4973 z m 146.6372,-17.1148 h -95.3438 l -6.0496,11.4712 h 32.1073 l -27.2068,47.7771 h 37.2511 l 27.2085,-47.7754 h 25.9853 z m 96.6161,0 h -87.9034 l -6.0496,11.4712 h 24.6702 l -27.2084,47.7771 h 37.2511 l 27.2084,-47.7754 h 25.9854 z"
         id="path1-5"
         style="stroke-width:1.64391"
         sodipodi:nodetypes="cccccssssccccccscsccccccccscscccscccssccscccsscsscccccccccccccccccccc" /><g
         id="g54"
         transform="translate(-3.910489,-3.775415)"><path
           style="fill:#000000;fill-opacity:1;stroke:none;stroke-width:0.242769;stroke-linecap:round;stroke-linejoin:round;paint-order:stroke fill markers"
           d="m -6484.7501,6184.0243 c 0,-0.051 3.2558,-5.5557 7.2351,-12.2316 l 7.2351,-12.1383 14.2862,-0.1254 14.2861,-0.1257 1.6789,-0.8266 c 0.9234,-0.4548 2.0018,-1.2186 2.3966,-1.6975 1.3058,-1.5841 13.0543,-22.2549 13.3692,-23.5223 0.397,-1.5978 0.1707,-3.8365 -0.5265,-5.2099 -0.3102,-0.6109 -2.7659,-5.0062 -5.457,-9.7671 -2.6911,-4.7612 -5.1228,-9.2774 -5.4037,-10.0364 -0.7113,-1.922 -0.7553,-6.5429 -0.081,-8.531 0.4427,-1.3052 13.4248,-24.3237 13.7239,-24.3335 0.1749,-0.01 21.7268,37.4013 22.832,39.6291 3.5978,7.2514 3.8396,15.9295 0.6597,23.6781 -0.7865,1.9166 -20.4969,37.2387 -22.0056,39.4353 -1.0892,1.5859 -3.291,3.5211 -4.9713,4.3693 -3.113,1.5714 -2.021,1.5193 -31.9712,1.5235 -15.0074,0 -27.2863,-0.038 -27.2863,-0.09 z"
           id="path23" /><path
           style="fill:#000000;fill-opacity:1;stroke:none;stroke-width:0.242769;stroke-linecap:round;stroke-linejoin:round;paint-order:stroke fill markers"
           d="m -6481.6682,6138.6385 c -6.2399,-10.9352 -11.6772,-20.6907 -12.0827,-21.6786 -2.9275,-7.1319 -2.8508,-15.3252 0.2099,-22.4163 1.0465,-2.4249 20.9271,-37.869 22.286,-39.7328 1.568,-2.1508 4.2422,-3.9531 7.0955,-4.7826 1.2265,-0.3566 4.3518,-0.3929 29.0306,-0.3357 l 27.656,0.064 -7.23,12.2947 -7.2301,12.2944 -14.2898,0.1254 -14.2897,0.1254 -1.679,0.8268 c -0.9234,0.4549 -1.9934,1.2097 -2.3779,1.6778 -1.1124,1.3546 -12.68,21.1997 -13.1653,22.5864 -0.5071,1.4491 -0.5709,3.0834 -0.1761,4.5164 0.1521,0.5519 2.5951,5.1041 5.429,10.1156 2.8339,5.0117 5.4359,9.8102 5.7824,10.6637 0.4658,1.1475 0.6605,2.1723 0.7474,3.9355 0.142,2.8807 -0.2826,4.7894 -1.6415,7.3779 -1.6164,3.0789 -12.4722,22.2186 -12.6039,22.2215 -0.069,0 -5.2309,-8.944 -11.4708,-19.8792 z"
           id="path24" /></g></g></g><style
     type="text/css"
     id="style1">
	.st0{fill:#ED1C24;}
</style></svg>
