<?xml version="1.0" encoding="UTF-8" standalone="no"?>
<!-- Created with Inkscape (http://www.inkscape.org/) -->

<svg
   width="160.99301mm"
   height="21.5669mm"
   viewBox="0 0 160.99301 21.5669"
   version="1.1"
   id="svg1"
   xml:space="preserve"
   inkscape:version="1.4 (86a8ad7, 2024-10-11)"
   sodipodi:docname="marcas.svg"
   xmlns:inkscape="http://www.inkscape.org/namespaces/inkscape"
   xmlns:sodipodi="http://sodipodi.sourceforge.net/DTD/sodipodi-0.dtd"
   xmlns="http://www.w3.org/2000/svg"
   xmlns:svg="http://www.w3.org/2000/svg"><sodipodi:namedview
     id="namedview1"
     pagecolor="#ffffff"
     bordercolor="#000000"
     borderopacity="0.25"
     inkscape:showpageshadow="2"
     inkscape:pageopacity="0.0"
     inkscape:pagecheckerboard="0"
     inkscape:deskcolor="#d1d1d1"
     inkscape:document-units="mm"
     inkscape:zoom="0.08"
     inkscape:cx="-2487.5"
     inkscape:cy="981.25"
     inkscape:window-width="1920"
     inkscape:window-height="1017"
     inkscape:window-x="-8"
     inkscape:window-y="-8"
     inkscape:window-maximized="1"
     inkscape:current-layer="layer1"
     showgrid="false"><inkscape:page
       x="0"
       y="0"
       width="160.99301"
       height="21.5669"
       id="page2"
       margin="0"
       bleed="0" /></sodipodi:namedview><defs
     id="defs1" /><g
     inkscape:label="Capa 1"
     inkscape:groupmode="layer"
     id="layer1"
     transform="translate(1122.567,-631.82699)"><path
       d="m -1014.8315,638.1347 v 6.66985 h -9.2509 v -6.73528 c 0,-1.84258 1.4122,-2.57238 1.962,-2.57238 h 4.8669 c 1.1633,0 2.422,1.04734 2.422,2.63781 z m 41.45383,-2.72691 h 3.36199 c 1.34209,-0.0143 2.43986,1.05111 2.43986,2.38944 v 9.72474 c -0.002,1.33172 -1.08426,2.40916 -2.41598,2.40655 h -3.362 c -1.33095,0.002 -2.41147,-1.07559 -2.41408,-2.40655 v -9.69059 c 0,-1.32537 1.06496,-2.40482 2.39021,-2.42359 z m -56.80783,2.33639 v 15.61073 h 5.868 v -4.62162 h 9.4118 v 4.6273 h 6.0349 v -15.50647 c -0.072,-3.9022 -2.3014,-6.0083 -5.3816,-6.0083 h -11.1388 c -3.184,0 -4.7943,2.75442 -4.7943,5.89836 z m 68.6113,10.57871 v -11.46493 c 0.003,-2.76774 -2.23968,-5.0131 -5.00741,-5.01307 h -10.13037 c -2.77347,0 -5.02256,2.24162 -5.02256,5.0055 v 11.50568 c 0,2.76386 2.24909,5.00452 5.02256,5.00452 l 0.0191,-0.0191 h 10.10953 c 2.76422,-0.0146 4.99999,-2.25449 5.00933,-5.01873 z m -156.3179,-3.50602 0.2662,0.002 h 8.0282 c 1.289,0 2.0948,1.0625 2.2796,2.11933 0.2455,1.41323 -0.5233,2.79517 -2.3478,2.79517 h -12.2573 v 3.61691 h 12.6327 l 2.8103,0.002 c 0.3801,0 1.2283,-0.20853 1.6917,-0.42751 1.9858,-0.94213 2.7945,-3.01597 2.8576,-4.95333 0.017,-0.61988 0.019,-1.14402 0.011,-1.76389 -0.053,-4.37235 -1.2852,-6.07561 -5.9986,-6.07561 h -6.9268 c -1.7385,-0.0398 -2.1676,-1.46342 -2.128,-2.64821 0.076,-2.28427 1.9385,-1.99235 3.8568,-1.99235 h 10.6264 v -3.633 h -15.5211 c -0.4018,-0.002 -1.1722,0.11752 -1.5324,0.24927 -2.0455,0.74971 -2.9297,3.09369 -3.0169,5.76847 -0.1062,3.27855 1.0831,6.80921 4.6678,6.94 z m 126.6507,-5.72963 v 14.27335 h 6.09647 v -15.59366 c 0,-3.68423 -2.10883,-5.93342 -5.86134,-5.93342 h -14.34313 v 21.52708 h 5.86776 v -17.88741 h 5.70893 c 2.10498,0 2.53131,1.92883 2.53131,3.61406 z m -51.2223,-3.73539 c 1.291,0.21325 2.7754,0.39901 2.7754,2.99228 v 15.01646 h 5.9238 v -14.74536 c -0.066,-3.13164 0.087,-6.53242 -4.9183,-6.77034 h -22.9613 v 21.5034 h 5.9733 v -17.95758 h 5.0596 v 17.96988 h 5.8138 v -18.00874 z m -30.2811,-3.51265 v 21.52139 h 6.2858 V 631.8392 Z m -19.5692,0.0152 h -5.9163 v 21.53941 h 5.9163 v -4.80926 h 8.8746 v 4.77608 h 5.9164 v -21.5337 h -5.9164 v 12.66203 h -8.8746 z"
       fill="#2566af"
       id="path2-8"
       style="clip-rule:evenodd;fill-rule:evenodd;stroke-width:0.947818"
       sodipodi:nodetypes="sccssssccsccccccscccccccsssccsssscccscccscscccccccscsscccccccsccssccccsscsccccccccccccccccccccccccccccccc"
       inkscape:export-filename="resources\icons\trademarks\shimano-logo.svg"
       inkscape:export-xdpi="96"
       inkscape:export-ydpi="96" /></g><style
     type="text/css"
     id="style1">
	.st0{fill:#ED1C24;}
</style></svg>
