<?xml version="1.0" encoding="UTF-8" standalone="no"?>
<!-- Created with Inkscape (http://www.inkscape.org/) -->

<svg
   width="96.21843mm"
   height="49.247059mm"
   viewBox="0 0 96.21843 49.247059"
   version="1.1"
   id="svg1"
   xml:space="preserve"
   inkscape:version="1.4 (86a8ad7, 2024-10-11)"
   sodipodi:docname="marcas.svg"
   xmlns:inkscape="http://www.inkscape.org/namespaces/inkscape"
   xmlns:sodipodi="http://sodipodi.sourceforge.net/DTD/sodipodi-0.dtd"
   xmlns="http://www.w3.org/2000/svg"
   xmlns:svg="http://www.w3.org/2000/svg"><sodipodi:namedview
     id="namedview1"
     pagecolor="#ffffff"
     bordercolor="#000000"
     borderopacity="0.25"
     inkscape:showpageshadow="2"
     inkscape:pageopacity="0.0"
     inkscape:pagecheckerboard="0"
     inkscape:deskcolor="#d1d1d1"
     inkscape:document-units="mm"
     inkscape:zoom="0.08"
     inkscape:cx="-2487.5"
     inkscape:cy="981.25"
     inkscape:window-width="1920"
     inkscape:window-height="1017"
     inkscape:window-x="-8"
     inkscape:window-y="-8"
     inkscape:window-maximized="1"
     inkscape:current-layer="layer1"
     showgrid="false"><inkscape:page
       x="0"
       y="0"
       width="96.21843"
       height="49.247059"
       id="page2"
       margin="0"
       bleed="0" /></sodipodi:namedview><defs
     id="defs1" /><g
     inkscape:label="Capa 1"
     inkscape:groupmode="layer"
     id="layer1"
     transform="translate(-120.65699,-617.98675)"><g
       id="g66"
       transform="matrix(0.21316319,0,0,0.21316319,1769.7647,-671.29004)"
       inkscape:export-filename="resources\icons\trademarks\specialized-logo.svg"
       inkscape:export-xdpi="96"
       inkscape:export-ydpi="96"><path
         d="m -7501.8657,6235.8473 -8.6607,14.5912 h 7.1545 z m -146.7606,-12.3321 h -6.9661 l -12.8028,29.9358 c 1.9769,-0.2824 7.9076,-1.2238 9.3197,-1.6004 1.7886,-0.5648 3.2007,-2.2592 5.2717,-6.6837 2.071,-4.3304 5.0834,-12.2379 6.7779,-16.2859 1.6003,-4.0478 0.095,-5.4599 -1.6004,-5.3658 m 271.493,-4.2362 c 3.7655,0 5.4599,3.2007 1.7886,6.8721 -3.5772,3.6714 -40.291,43.774 -41.6089,45.186 -1.2238,1.4121 -1.7885,2.8241 0.3766,2.8241 h 22.2165 l -1.9769,5.0836 h -34.4544 c -4.0479,0 -5.5542,-2.8243 -1.6946,-6.9663 l 42.5503,-45.845 c 1.4121,-1.6003 1.0356,-2.2593 -0.3765,-2.2593 h -20.1455 l 1.6945,-4.7069 z m -73.9922,0 -21.5575,50.9285 c -1.5062,3.2948 0.4707,3.8596 2.2592,3.8596 h 13.0851 l -1.9768,5.0835 h -23.8168 c -4.4245,0 -6.0248,-3.0124 -3.5772,-8.5666 l 22.1224,-51.305 z m -36.902,0 -4.9892,59.8716 h -13.2736 l 2.5419,-24.2875 h -10.8259 l -16.0975,24.2875 h -12.8027 l 37.9375,-56.0119 c 1.3179,-1.8828 4.0478,-3.8597 5.9306,-3.8597 z m -35.3015,0 -25.4173,59.8716 h -13.9323 l 25.9819,-59.8716 z m 108.4465,0 -25.4172,59.8716 h -13.9324 l 25.982,-59.8716 z m -129.0627,0.095 -1.9768,4.2361 h -17.698 c -4.4244,0 -4.8951,1.8828 -5.9306,4.048 -1.0355,2.0711 -17.4155,40.7616 -18.451,42.8326 -1.0355,2.071 -0.9414,3.6713 1.9768,3.6713 h 17.9804 l -1.6004,5.0836 h -28.6178 c -5.0835,0 -6.119,-3.2949 -4.2362,-7.7194 l 20.4279,-47.7277 c 1.412,-3.4831 5.1775,-4.4245 9.2254,-4.4245 z m -41.9855,0 -2.0709,4.0479 h -16.0034 c -4.4244,0 -5.9307,1.2238 -7.531,4.5186 -1.5063,3.2949 -8.0017,18.7334 -8.0017,18.7334 h 17.2272 l -2.2593,4.3303 h -16.6624 l -8.0017,18.3569 c -1.6003,3.6714 -1.2238,4.7068 1.5062,4.7068 h 17.9803 l -2.1652,5.0835 h -28.053 c -3.9537,0 -6.4954,-1.8828 -4.0479,-7.9075 l 19.5806,-45.8451 c 2.071,-4.7069 5.3659,-6.2131 10.1668,-6.2131 z m 256.9958,-0.1883 -2.071,4.0479 h -16.0034 c -4.4245,0 -5.9306,1.2238 -7.531,4.5187 -1.5062,3.2947 -8.0018,18.7334 -8.0018,18.7334 h 17.2273 l -2.2594,4.3303 h -16.6623 l -8.0018,18.3568 c -1.6002,3.6713 -1.2236,4.7069 1.5063,4.7069 h 13.9324 4.1421 l -2.1652,5.0834 h -28.053 c -3.8597,0 -6.4956,-1.8827 -4.0479,-7.9075 l 19.5805,-45.8451 c 2.0711,-4.7068 5.3659,-6.2131 10.1669,-6.2131 z m -308.6773,0.1883 c 4.8952,0 7.1545,3.7655 5.0835,9.1313 -1.9769,5.46 -4.3303,10.3552 -7.7193,17.9804 -3.389,7.7192 -5.7424,8.5665 -12.1438,9.4136 l -18.4509,2.5418 -9.1313,20.7103 h -13.0852 l 26.4527,-59.8716 z m -35.8664,0 -2.071,4.142 -19.2982,-0.095 c -2.5417,0 -3.9538,1.6003 -5.3659,3.8596 -1.4121,2.2593 -1.7886,4.0479 -3.1066,6.8721 -1.3178,2.824 -1.2237,5.7424 1.2239,7.7192 2.4475,1.8828 5.2717,4.6128 7.8134,6.7779 4.6128,4.048 5.9306,5.9308 2.1651,14.4973 -2.9182,6.6837 -1.4119,3.6713 -3.9537,9.3196 -2.5417,5.6483 -5.46,6.8721 -9.8845,6.8721 h -30.4064 l 2.6358,-5.0835 h 18.8275 c 3.389,0 4.3304,-1.7886 5.8366,-4.7069 1.5062,-3.0124 1.9768,-3.8597 3.7655,-8.19 1.8827,-4.3303 2.3535,-6.4954 -0.1883,-8.9431 -2.5417,-2.4476 -5.8365,-5.2716 -9.602,-8.5665 -3.7655,-3.2948 -3.5773,-4.2361 -1.6945,-8.9431 1.8827,-4.7068 2.6359,-6.3071 4.5187,-10.6374 1.8827,-4.3304 5.3658,-4.8011 8.9429,-4.8011 z m 346.6147,54.5998 h 3.389 c 3.389,0 4.3303,-1.7886 5.5541,-4.2362 1.2238,-2.4475 15.9092,-36.4312 17.6037,-40.5733 1.6945,-4.2362 0.4708,-5.2717 -2.071,-5.2717 h -8.7547 l -21.4635,50.0812 h 4.2363 z m -21.3692,4.9893 25.6996,-59.9657 h 32.6657 c 4.801,0 5.6483,4.8952 4.3303,8.3782 -1.412,3.4832 -17.133,39.7261 -18.9216,44.0565 -1.8828,4.3303 -4.5186,7.531 -9.1314,7.531 h -34.6426"
         id="path1"
         style="stroke-width:0.941375"
         sodipodi:nodetypes="ccccccccccccccsccsccscccccsccscccccccccccscccccccccccccscssccsccscccscccccssccsccccccscccccsscccsccccccccccccccccsscccssccsccsssscccsscsccccccsccsc" /><path
         class="st0"
         d="m -7523.3295,6156.3532 c 0.079,-0.1571 -0.079,-0.3928 -0.1571,-0.4715 -0.2357,-0.4713 -0.9429,-0.6285 -0.8643,-1.1785 0.079,-0.6286 0.7857,-1.65 0,-1.7286 -0.3928,0 -1.0214,0.079 -1.1,-0.3143 -0.079,-0.3142 0,-0.7857 0.2357,-1.0214 0.1571,-0.1571 0.55,-0.2357 0.55,-0.3929 0.079,-0.3142 0.3929,-0.3928 0.55,-0.7071 0.2357,-0.55 0.1571,-1.0214 0,-1.5714 -0.079,-0.3143 0,-0.6286 0.3143,-0.7857 0.3143,-0.1572 0.6286,-0.7072 0.7071,-1.0214 0.1572,-1.0215 0,-1.9643 0.6286,-2.9072 0.1571,-0.2357 -0.3142,-0.3143 -0.6286,-0.4714 -0.2357,-0.079 -0.079,-0.3144 0.1572,-0.55 -0.2357,0.2356 0.1572,0.2356 0.2357,0.3928 0.1571,-0.1572 0.3928,-0.3143 0.3928,-0.55 0,-0.3143 0.1572,-0.6286 0.2358,-0.8643 0.3143,-1.7285 0.8643,-4.0071 1.8857,-4.7143 h 0.079 c 0,0.2357 0.2357,0.4715 0.2357,0.7072 -0.2357,0 -0.3143,-0.079 -0.55,0.079 0.1571,0.1572 0,0.4715 0.1571,0.4715 0.2357,0 0.55,0.079 0.7857,0 0.2357,0 0.3929,0.2357 0.6286,0.3143 0.4714,0.1571 0.3929,-0.4715 0.55,-0.7858 -0.3143,-0.1571 -0.1571,-0.3928 -0.1571,-0.6285 0,-0.079 0,-0.3929 0,-0.4715 0.079,-0.55 -0.6286,-1.1 -0.4715,-1.65 0.079,-0.3142 0.2357,-0.6285 0.2357,-0.8643 -0.079,-0.8642 0.3143,-1.65 0.079,-2.4356 0.3143,0 0.7072,-0.1572 0.9428,-0.2358 0.4715,-0.2357 0.3144,-0.9429 0.7072,-1.2571 -0.1572,-0.1571 0.079,-0.3929 -0.2357,-0.6286 -0.2357,-0.1571 0.3143,-0.2357 0.079,-0.4714 0.079,0 0.3144,0 0.2358,-0.079 0,-0.3143 -0.1571,-0.6286 -0.2358,-0.8643 0,-0.1571 -0.1571,-0.55 0.1572,-0.55 0.2357,0 0.3143,-0.2357 0.4715,-0.3143 0.078,-0.079 0.2356,-0.079 0.2356,0.079 0,0.4714 0.3144,0.8643 0.3144,1.3357 0,0.1572 0.079,0.4715 0.3142,0.55 0.2358,0.079 0.4714,-0.079 0.4714,-0.3143 0,-0.3142 -0.079,-0.6285 -0.079,-0.8642 0,-0.1572 0.2357,-0.1572 0.3929,-0.1572 0.4714,-0.1571 0.7071,0.7857 1.1785,0.4714 0.3929,-0.2357 0.079,-1.2571 0.079,-1.4142 0,-0.1572 -0.1572,-0.2358 -0.3143,-0.3143 -0.3143,-0.079 -0.4714,-0.3929 -0.8643,-0.3929 -0.079,0 -0.1571,-0.3143 -0.1571,-0.3143 0.079,-0.8643 -0.3929,-1.2571 -1.0214,-1.65 0.079,-0.079 0.079,-0.1571 0.2356,-0.1571 0.3929,-0.079 0.7072,0.3143 1.1,0.2357 0.3929,-0.079 0.8643,-0.1572 0.9429,-0.55 0.079,-0.3143 0,-0.7072 -0.2357,-0.9428 -0.3143,-0.3144 -0.3929,-0.6286 -0.55,-1.0215 -0.1572,-0.3928 0.3143,-0.7857 0.2357,-1.2572 0.4714,-0.079 0.55,0.3929 0.7858,0.6287 0.078,0.079 0.078,0.2357 -0.079,0.3142 0.4715,0.2358 0.3143,1.0214 0.8643,1.1 0.3929,0.079 0.9429,0.1572 1.2572,0.3929 0.3143,0.1571 0.3143,0.7857 0.7071,1.0214 0.2357,0.1571 0.4715,0.3143 0.7857,0.2357 0.3143,-0.079 0,-0.3142 0,-0.4714 0,-0.4714 -0.4714,-0.9428 -0.4714,-1.4928 0,-1.1 -0.3143,-2.1215 -0.6286,-3.2215 -0.079,-0.2357 -0.3142,-0.3143 -0.4714,-0.4714 -0.079,-0.1572 -0.1571,-0.3143 -0.2357,-0.3929 -0.2357,-0.4714 0.1571,-1.1785 0.3143,-1.7286 0.3928,0.3929 0.3143,1.2572 0.8643,1.2572 0.6285,0 1.3357,-0.7071 1.4928,-1.1786 0.1572,-0.55 0.4715,-1.4143 -0.1571,-1.8857 -0.079,-0.079 -0.3143,-0.079 -0.3143,-0.2357 0,-0.1572 0.1571,-0.3143 0.2357,-0.4714 0.1572,-0.6286 -0.079,-1.1786 -0.2357,-1.8072 0.3143,0 0.4714,-0.1571 0.7072,-0.2357 0.1571,-0.079 0.4714,-0.079 0.6285,-0.3143 0.3929,0.2358 0.3929,0.7858 0.3143,1.2571 0,0.1572 0.2357,0.079 0.2357,0.079 0.2357,-0.4715 0.3929,-1.0215 0.55,-1.4929 0.079,-0.3143 -0.1571,-1.0214 -0.4714,-1.4929 0.1571,-0.079 0.1571,-0.3143 0.1571,-0.3928 -0.3928,-0.7857 0.8643,-3.4572 1.5714,-2.2786 -0.1571,-0.2357 -0.1571,-0.55 -0.1571,-0.7857 0,-0.3929 -0.079,-0.9429 0.1571,-1.3357 0.1572,-0.3143 0.7858,0.079 0.8644,-0.3929 0.079,-0.55 0.3928,-1.0214 0.3143,-1.5714 0.4713,0 0.55,-0.4715 0.8642,-0.7072 -0.1571,-0.1571 -0.4714,-0.3142 -0.3929,-0.4714 0.079,-0.2357 -0.1571,-0.4714 -0.2357,-0.55 0,0 0,0 0,0 0,0 0,0 0,0 -0.5499,0.3143 -0.9428,0.8643 -1.5714,1.0214 -0.3143,0.079 -0.7071,0.2357 -0.7857,0.3929 -0.1571,0.3928 -0.4714,0.6285 -0.7857,0.7857 -1.7286,0.8643 -3.2214,2.4357 -4.7929,3.4571 -0.7071,0.4715 -1.6499,0.9429 -2.4357,1.3358 -0.079,0.079 -0.1571,0.3143 0,0.4714 -0.079,0 -0.2357,-0.079 -0.2357,0.079 0,0.4714 -0.3143,0.7857 -0.6286,0.8643 -0.3928,0.1571 -0.7857,0.3142 -0.8642,0.6285 -0.1572,0.3929 -0.4715,0.6286 -0.7858,0.7857 -0.3142,0.2358 -0.7071,0.2358 -1.1,0.3143 -0.55,0.079 -0.4714,0.8643 -0.9428,1.2571 -1.4143,1.1001 -2.9072,1.7286 -4.1643,2.9072 -0.2357,0.2357 -0.2357,0.7071 -0.55,0.7857 -0.3929,0.1572 -0.6286,0.4715 -1.0215,0.6286 -0.7856,0.3929 -2.1214,1.8857 -2.9071,2.3571 -0.3928,0.1572 -0.8643,0.7072 -1.1786,0.9429 -0.3929,0.3143 -1.0214,0.3929 -1.4928,0.6285 -0.1572,0.079 -0.3929,0.079 -0.55,0 -0.2357,-0.079 -0.3143,-0.1571 -0.55,-0.2356 -0.2357,-0.079 -0.3929,-0.2357 -0.55,-0.3929 -0.3929,-0.3143 -0.7072,-0.6286 -1.0215,-0.9429 -0.7857,-0.7857 -1.4143,-1.65 -2.2785,-2.3571 -0.6286,-0.55 -1.2572,-1.1786 -1.8072,-1.8072 -0.7857,-0.9428 -1.65,-1.8071 -2.2785,-2.8285 -0.1572,-0.3143 -0.4715,-0.4714 -0.6286,-0.7858 -0.2357,-0.4714 -0.7072,-0.7856 -0.9429,-1.2571 -0.3143,-0.7071 -1.0214,-1.1785 -1.0214,-1.9643 0,-1.0214 0.3143,-1.9643 0.6286,-2.9071 0.079,-0.1572 0.3143,-0.3143 0.3928,-0.4714 0.4715,-0.9429 1.1786,-2.4358 1.65,-3.3786 0.1571,-0.3143 0.4715,-0.55 0.7858,-0.55 0.4713,0.079 0.6285,-0.3929 0.7856,-0.7071 0.079,-0.2358 -0.079,-0.55 -0.1571,-0.8643 -0.079,-0.2357 0.079,-0.4715 0,-0.7858 0.4715,-0.079 0.9429,-0.7071 1.2571,-0.3142 0.2358,0.3142 0.55,0.55 0.9429,0.55 0.3143,0 0.2357,-0.2358 0.4714,-0.3929 0.079,-0.079 0.2357,0 0.3929,0 0.3143,-0.079 0.3143,-0.6286 0,-0.7071 -0.55,-0.1572 -0.8643,-0.7072 -0.8643,-1.1786 0,-0.7072 0.3143,-1.8857 1.0214,-2.2786 0.1572,-0.079 0.55,-0.2357 0.6286,-0.1571 0.3929,0.3142 -0.079,1.1785 0.6286,1.2571 0.3928,0.079 1.0214,0 0.9428,-0.3928 -0.079,-0.3929 -0.7071,-0.6286 -0.7071,-1.1001 0,-0.7071 1.0214,-0.6285 1.2571,-1.1 0.55,-1.0214 0.6286,-2.3571 0.2358,-3.5357 -0.079,-0.3142 0.4714,-0.2357 0.7071,-0.3142 0.4714,-0.1572 0.3143,0.7856 0.8643,0.9428 0.079,-0.1572 0.3143,0 0.3929,-0.1572 l 0.079,-0.9428 c 0.079,-0.3928 0.079,-0.8643 0.2357,-1.2571 0.079,-0.1572 0.2358,-0.6286 0.4715,-0.6286 0.2357,0 0.6285,-0.3143 0.7071,-0.6286 0,-0.3143 -0.3928,-0.55 -0.3143,-0.9428 0.079,-0.7072 1.1,-0.3929 1.4143,-1.0215 0.079,0.079 0.1572,0.1572 0.1572,0.1572 0.4714,-0.2357 0.7071,-0.7072 1.2571,-0.8643 0.2357,-0.079 0.3928,0.1571 0.55,0.1571 0.079,0 0.3928,0 0.3143,-0.1571 0,-0.079 0,-0.2357 0,-0.3143 0,-0.1571 0,-0.3929 0,-0.55 0.079,-0.6286 -0.2357,-1.0214 -0.6286,-1.3357 0.079,-0.079 0.3929,-0.4715 0.6286,-0.4715 0.1571,-0.2357 0.4714,-1.5714 1.3357,-0.7071 0.1571,0.1571 0.3928,-0.079 0.6286,-0.1571 0.3142,-0.079 0.1571,-0.4714 0.1571,-0.7072 0,-0.2357 0,-0.55 0.079,-0.7857 0.078,-0.3143 0.3928,-0.4714 0.7071,-0.55 0,0 -0.079,-0.079 -0.079,-0.079 0.1572,0 0.2358,0 0.3929,0 0.55,-0.2358 0.3929,-0.7858 0.4714,-1.2572 0,0 0.079,0.079 0.079,0.079 0,0 0.079,-0.079 0.079,-0.079 0,0 0.079,0.079 0.079,0.079 0.079,-0.3928 0.4714,-0.7071 0.55,-1.1785 0.3142,0.079 0.1571,-0.3143 0.3928,-0.3929 0.079,0 0.2357,0 0.2357,-0.078 0,0 -0.079,-0.079 -0.079,-0.079 0.3928,0 0.55,-0.3143 0.7071,-0.6286 0.079,-0.1571 0.079,-0.4714 0.079,-0.7071 0,-0.6286 0.3143,-1.3357 0.6285,-1.8072 0.1572,-0.3143 0.7858,-0.7857 1.1786,-0.1571 0.3143,-0.3143 0,-0.9429 0.4715,-1.0214 0.1571,0 0.3142,0.3142 0.55,0.3928 0.4714,0.1572 -0.2358,0.8643 0.3142,0.9429 0.55,0.078 0.4714,-0.3143 0.6286,-0.7072 0.079,-0.2357 0.55,-0.079 0.7857,-0.1571 0.3143,-0.079 0,-0.55 -0.1571,-0.7072 l -0.079,0.079 c 0,-0.079 0.079,-0.2357 -0.079,-0.2357 -0.7857,-0.079 -0.2357,-0.8643 -0.1571,-1.2572 0,-0.078 -0.1571,-0.078 -0.1571,-0.1571 0,-0.079 0.3142,-0.079 0.079,-0.3142 0.3143,-0.079 0.7071,0 0.7857,-0.3144 0,-0.079 0,-0.3143 0.079,-0.4714 0.079,0 0.1571,-0.079 0.1571,-0.079 0.3929,0.1571 0.9429,0.7856 1.0215,0.2356 0.079,-0.3928 0.1571,-1.1 0.4714,-1.2571 0.079,-0.079 0.3929,-0.079 0.3929,-0.1571 0.079,-0.3929 -0.3143,-0.7072 -0.3929,-1.0214 0,-0.079 0.079,-0.3143 0.1571,-0.2358 0.3143,0.079 0.7858,0.1571 0.9429,0 0,0 0,0 0,0 0.1571,-0.4714 -0.7071,-0.55 -1.1,-0.6285 0,0 0.079,-0.079 0.079,-0.079 0,-0.079 -0.079,-0.1571 -0.1571,-0.079 0.079,-0.1571 0.079,-0.4714 0.3142,-0.55 0.079,0 0.1572,0 0.1572,0 0.3142,-0.2357 0.3928,-0.7071 0.079,-1.0214 -0.079,-0.1572 0.3929,-0.079 0.079,-0.3143 0.1571,0 0.3929,0.079 0.55,0 0.3929,-0.1571 0.7857,-0.3929 1.0214,-0.7071 0.1572,-0.3143 0.2357,-0.7072 0.55,-0.7858 0.3143,-0.078 0.7072,-0.078 0.9429,-0.3928 -0.1572,-0.079 -0.079,-0.2357 -0.079,-0.3929 0.1572,0 0.3143,-0.079 0.3929,0.079 0.3928,-0.3143 0.3143,-0.9429 0.7071,-1.1786 0.2357,-0.1571 0.7072,0 0.7857,-0.3143 0.1572,-0.7071 0.4715,-1.1785 0.9429,-1.5714 0.2357,-0.2357 0.7857,-0.2357 0.9429,-0.55 0.1571,-0.2357 0,-0.6285 0.078,-0.8643 0.2358,-0.4714 0.7858,-0.7071 1.0214,-1.1785 0.079,-0.1572 -0.079,-0.4715 0.1572,-0.6286 0.3143,-0.1572 0.6286,0 0.8643,0.2357 0.3143,-0.4714 0.078,-0.9429 0.3143,-1.4143 0.2357,-0.4714 0.4714,-1.1 0.8642,-1.3357 0.3929,-0.1572 0.7072,-0.3143 0.8643,-0.6286 0.1572,-0.3143 0.3929,-0.6286 0.3144,-1.0214 0.079,0 0.2356,0 0.3142,-0.079 0.2357,0.1572 0.2357,0.55 0.3143,0.4714 0.6286,-0.55 -0.079,-1.65 0.3143,-2.3571 0.1571,-0.3143 0.7071,0 0.9428,-0.1572 0.079,-0.079 0.3143,-0.079 0.2358,-0.3142 0,-0.2358 0.079,0.079 0.2357,0.079 -0.079,0.3144 0,0.55 0.3143,0.6286 0.2357,0.079 0.55,-0.079 0.6285,0.079 0.1572,0.2357 -0.079,0.6286 -0.079,0.7857 0.079,0.3929 0.3928,0.7071 0.55,1.1 0.078,0.2357 -0.2358,0.3929 -0.2358,0.6286 0.1572,0.7857 0.4715,1.5714 0.3143,2.3571 -0.078,0.3929 -0.4714,0.6286 -0.55,1.0215 -0.079,0.4714 0.4715,0.6285 0.4715,1.1785 0,0.3929 0.078,0.8643 -0.3929,1.0215 -0.1571,0.079 -0.3143,0 -0.4714,0.1571 -0.1572,0.1572 0.3143,0.3143 0.1571,0.55 0.3929,0.1572 0.7072,0.3928 0.7857,0.7072 0.3143,0.7856 -0.1571,2.1214 1.0215,2.2785 0.079,0.7857 0.6285,1.4929 0.55,2.2 -0.1572,1.1 -1.2572,2.8286 -2.1215,3.6143 -0.3928,-0.1571 -1.1785,0.9428 -1.4143,1.1786 0.079,0.079 0.1572,0.1571 0.1572,0.1571 -0.2357,0.1571 -0.1572,0.4715 -0.3143,0.6286 -0.1571,0.2357 -0.55,0.1571 -0.6286,0.4714 -0.078,0.6286 -0.6286,1.0214 -1.0214,1.4929 0.1571,0.1571 0,0.3143 -0.079,0.3928 -0.3929,0.7857 -1.2572,0.8643 -1.4929,1.8072 -0.079,0.2357 -0.7072,0.1571 -0.7072,0.4714 -0.079,0.6286 -0.6286,0.8643 -0.7857,1.4143 -0.079,0.3143 -0.4714,0.079 -0.6285,0.3143 -0.079,0.079 0,0.2357 0,0.3143 0.079,0.3928 -0.3143,0.55 -0.6287,0.6285 0,0 0.079,0.079 0.079,0.079 -0.3929,-0.079 -0.3929,0.3929 -0.6287,0.4714 0.1572,0.3143 -0.1571,0.7072 -0.3928,0.7072 -0.1571,0 -0.4714,-0.079 -0.55,-0.3143 0,0.1571 -0.2357,0 -0.2357,0.1571 0,0.3929 0.3929,0.7858 0.2357,1.1001 -0.1571,0.3142 -0.3928,0.6285 -0.6286,0.8642 -0.3142,0.3143 -0.9428,0.3143 -1.1,0.55 -0.1571,0.3143 -0.078,0.9429 -0.2357,1.3357 -0.1571,0.55 -1.0214,0.1572 -1.0214,0.55 0,0.2357 0.2357,0.7857 -0.079,0.9429 -0.3928,0.1571 -0.8643,0.3143 -0.9428,0.7071 -0.1572,0.3929 -0.7072,0.6286 -0.55,1.0215 0,0.078 0,0 0,0 0,0.2357 -0.1572,0.3928 -0.2358,0.55 -0.2357,0.7071 -0.9428,1.1 -1.4928,1.65 -0.079,0.079 0.079,0.3928 0,0.6286 -0.2357,0.3928 -0.8643,0.1571 -0.9428,0.55 -0.079,0.2357 -0.1572,0.6285 0,0.9428 0.2356,0.55 1.0213,0.55 1.4142,1.1 0.3143,-0.2357 0.1572,-0.8643 0.079,-1.1786 -0.079,-0.3142 0.4714,-0.4714 0.8643,-0.55 0.078,0 0.1571,-0.1571 0.1571,-0.1571 0.3929,0.2357 0.6286,0.7071 1.1,0.7857 0.4714,0.079 0.55,-0.3928 0.7072,-0.7071 0.1571,-0.1572 -0.2358,-0.3144 -0.2358,-0.55 0,-0.2357 0,-0.3929 0.1572,-0.4715 0.2357,-0.079 0.4714,-0.079 0.7857,0 0.3143,0.079 0.3143,0.6286 0.4714,0.55 0.6286,-0.1571 -0.1571,-0.9428 0.079,-1.4143 0.079,-0.1571 0.3929,-0.2357 0.4714,-0.079 0.1572,0.2357 0.1572,0.55 0.3929,0.6285 0.1571,0 0.3929,0 0.3929,-0.079 0.3142,-0.7072 0.9428,-0.7072 1.5714,-0.7857 0.6286,-0.1572 -0.4714,-1.2572 0.079,-1.2572 h 1.0214 c 0.079,0 0.1571,0.079 0.1571,0.079 0,-0.079 0.1571,-0.1572 0.2358,-0.1572 -0.079,-0.1571 0.2356,-0.4714 -0.079,-0.6285 0.1572,-0.2357 0.4715,-0.2357 0.7858,-0.2357 0.3929,0 0.4714,-0.7858 0.9428,-0.8643 0.2357,0 0.4715,0.3142 0.6286,0.2357 0.3143,-0.2357 0.7071,0 0.9429,-0.1572 0.1571,-0.1571 0.3928,-0.3928 0.4714,-0.6285 0.079,-0.3143 -0.2357,-0.8643 0.1571,-0.9429 0.3143,-0.079 0.6286,0.4714 0.9429,0.4714 0.2357,0 0,-0.3928 0,-0.6285 0.079,-0.4714 0.3143,-0.7858 0.55,-1.0214 0.1571,-0.1572 0.3929,0 0.55,0.1571 0.079,0.079 0.2357,0.079 0.3143,0 0.3143,-0.1571 0.3928,-0.55 0.4714,-0.8643 0,-0.2357 -0.1571,-0.55 0.1572,-0.6286 0.3142,-0.1571 0.7071,0 0.8643,0.2358 0.1571,0.1571 -0.3143,0.3928 -0.3143,0.6285 0,0.2357 0.3928,0.55 0.6285,0.6286 0.1571,0.079 0.2358,-0.2357 0.2358,-0.3929 0,-0.2357 -0.2358,-0.4714 -0.2358,-0.6285 0,-0.4715 0.2358,-1.0215 0.7071,-1.1 0.3144,0 0.5501,0.55 0.9429,0.4714 0.3929,-0.079 0.3929,-0.7072 0.7072,-0.7858 0.3142,-0.079 0.3928,-0.3142 0.4714,-0.4714 0.079,-0.2357 0.1572,-0.55 0.3143,-0.6285 0.2357,-0.079 0.55,-0.1572 0.7072,0 0.2356,0.1571 0.3142,0.55 0.6285,0.7071 0.1571,0.079 0.3143,0.079 0.4715,0.079 0.3142,0 0.6285,0 0.7071,-0.3929 0.079,-0.2357 0.1571,-0.3928 0.3143,-0.4714 0.1571,-0.079 0.2357,-0.079 0.3928,-0.2357 0.3143,0.3143 1.1786,0.079 1.3357,-0.1572 0.079,-0.1571 0.6286,-0.3142 0.6286,-0.4714 0,-0.3928 0.6286,-0.6286 1.0214,-0.7857 0.2358,-0.079 1.0215,0.079 1.3358,0.1571 0,0 -0.1572,0.1572 -0.079,0.1572 0,0.1571 0.2357,0.1571 0.3143,0.1571 -0.079,0.4715 0.3143,0.7072 0.55,1.0215 0.5499,0.8642 1.1786,1.8071 1.6499,2.6714 0.6287,1.0214 1.1787,2.2 1.8072,3.1428 0.3929,0.7072 1.0214,1.4929 1.3358,2.2786 0,0.079 0,-0.079 0,0 0.3928,1.1 0.9428,2.2786 0.6285,3.4572 -0.1572,0.8643 -1.1,1.4143 -1.65,2.1999 -0.2357,0.3929 -0.3928,0.7858 -0.55,1.1 -0.1572,0.3143 -0.3928,0.4715 -0.6286,0.7072 -0.3928,0.3143 -0.8642,0.7857 -0.8642,1.3357 0,0.3143 -0.2358,0.55 -0.3143,0.7072 -1.0215,1.4928 -2.9072,4.95 -4.0072,6.3643 -0.3143,0.4714 -1.8071,3.1428 -2.0429,3.6142 -0.2357,0.4715 -0.3928,0.9429 -0.8642,1.2572 0.2357,0.2357 -0.1572,0.4714 -0.1572,0.6286 -0.079,0.3142 -0.2357,0.7071 -0.6286,0.8642 0.2358,0.2358 -0.1571,0.3929 -0.1571,0.6286 -0.078,0.55 -0.55,0.9429 -0.8643,1.4929 -0.2357,0.4714 -0.6286,0.8643 -0.7857,1.3357 -0.2357,0.4714 -0.4714,1.0214 -0.7072,1.4929 l -0.079,0.1571 c -0.8643,1.5714 -1.8071,3.1428 -2.4358,4.95 -0.079,0.2357 -0.4713,0.4714 -0.5499,0.7071 -0.079,0.3143 -0.4715,0.4715 -0.3929,0.8643 0,0.3929 -0.4714,0.55 -0.55,0.8643 -0.079,0.3143 -0.1571,0.7072 -0.3928,1.0214 -0.079,0.079 -0.079,0.1572 -0.1572,0.2358 l -1.1,2.1214 c 0,0.1571 0.079,0.3929 0.079,0.4714 0,0.1571 -0.3143,0.4715 -0.3929,0.7071 -0.079,0.3144 -0.3928,0.7072 -0.55,0.8644 -0.1571,0.2356 -0.8643,1.4143 -1.0214,1.9642 -0.1572,0.55 -1.7286,3.5358 -1.9643,3.85 -0.1571,0.2358 -1.9643,3.9286 -2.0428,4.1643 -0.079,0.2358 0,0.4714 -0.079,0.9429 l -1.65,4.8714 c -0.079,0.2357 -0.2357,0.3143 -0.3143,0.4714 -0.079,0.1572 -0.6286,2.2001 -0.7857,2.4358 -0.1572,0.2356 -0.2357,0.2356 -0.3143,0.6285 0,0.3143 -0.3143,2.0429 -0.4714,2.1214 -0.1572,0.079 -0.4715,0.3144 -0.4715,0.4715 0,0.1572 -0.1571,0.55 -0.3143,0.7857 -0.079,0.2357 -0.7071,0.6286 -0.3928,1.65 0.2357,1.0214 -0.4714,0.9429 -0.55,1.4143 -0.079,0.4714 -0.55,0.4714 -0.2357,1.2571 0.3143,0.7858 -0.079,0.8643 -0.079,1.1 0,0.2358 -0.4714,3.2214 -0.55,3.6143 -0.1571,0.4714 0,1.1786 0,1.65 -0.079,0.7072 -0.2357,1.4929 -0.6286,2.1214 0.2357,0.079 -0.079,0.3143 0.079,0.4715 -0.3143,0.3143 -0.3143,0.7071 -0.3929,1.1 -0.079,0.3143 -0.1571,0.7857 -0.079,1.2571 0,0.2357 0.1571,0.7072 -0.1572,0.9429 0.2357,0.1571 0.079,0.4714 0.079,0.55 0,0.8642 0,1.65 -0.1571,2.5929 -0.2358,1.1785 -0.079,2.3571 -0.079,3.5357 0,0.1571 -0.079,0.4714 0.079,0.55 -0.2358,0.3928 0,0.8642 0,1.2571 0,0.7857 0.079,1.65 0.2357,2.4357 0.079,0.7072 0.3928,1.4929 0.55,2.2 0.078,0.3929 -0.1572,0.8643 -0.1572,1.2571 0.1572,1.4929 0.9429,2.8286 1.1,4.3215 0.079,0.7071 0.8643,0.9429 0.9429,1.4929 0.079,0.3142 -0.079,0.55 -0.2357,0.8642 -0.079,0.1572 0.1571,0.3929 0.2357,0.55 0.1571,0.3143 0.7857,0.1572 0.9429,0.5501 0.079,0.2357 -0.2358,0.3928 -0.3143,0.55 -0.079,0.3142 0.55,0.55 0.4714,0.9428 0,0.1572 0.079,0.3143 0.079,0.3929 0.1571,0.3928 0.8643,0.2357 0.9428,0.7071 0.1572,0.4714 0.4715,0.7857 0.6286,1.2572 0.1571,0.3928 0.3929,2.2785 -0.1571,2.1214 -1.1,-0.2357 -2.0429,-1.1786 -1.9643,-2.2 0.079,-0.6286 -0.6286,-1.1 -0.9429,-1.5714 -0.7071,-1.0215 -1.4143,-1.3358 -1.7286,-2.5143 -0.079,-0.1572 -0.3143,0 -0.3928,-0.1572 -0.079,0.079 -0.3929,0.079 -0.3143,0.1572 0.079,0.2357 -0.1572,0.2357 -0.1572,0.2357 -0.8643,0.3143 -1.4928,-0.8643 -1.8857,-1.5715 -0.2357,-0.3928 -0.3928,-0.7857 -0.7857,-0.9428 -0.7071,-0.3929 -0.7857,-1.1786 -1.4143,-1.65 -0.3929,-0.3143 -0.3929,-1.1 -0.3142,-1.8071 0.079,-0.55 -0.7858,-0.4715 -0.7858,-0.8644 0,-0.2356 -0.2357,-0.2356 -0.2357,-0.3928 -0.1571,0.2357 -0.3928,-0.1572 -0.55,0 -0.079,-0.1572 0,-0.3143 -0.079,-0.4715 -0.079,-0.1571 -0.3142,-0.3142 -0.4714,-0.4713 -0.9428,-1.2572 -1.3357,-2.5929 -2.0428,-3.9286 -0.079,-0.2357 0.2357,-0.6286 -0.079,-0.8643 -0.079,0.1571 -0.2357,0.1571 -0.2357,0.079 -0.2357,-0.3142 -0.7858,-0.1571 -0.7858,-0.4714 0,-0.3143 -0.2357,-0.7857 -0.3928,-0.7857 -0.3143,-0.079 -0.6286,-0.2357 -0.9429,-0.3143 -0.2357,-0.079 -0.2357,-0.7857 -0.6285,-0.7857 -0.3143,0 -0.55,-0.1571 -0.55,-0.4714 0.079,0 0.1571,0 0.1571,0 0.1571,-0.1571 0.3929,-0.3929 0.1571,-0.6286 -0.1571,-0.2357 -0.4714,-0.2357 -0.7071,-0.3143 -0.3143,-0.079 -0.079,-0.3929 -0.079,-0.6286 0,-0.3928 -0.3929,-0.5499 -0.3929,-0.8643 0,-0.2356 -0.3143,-0.4714 -0.079,-0.6285 0.2357,-0.2357 0.079,-0.55 0.1571,-0.7857 0.079,-0.55 -0.6285,-0.8643 -0.4714,-1.4143 0,-0.079 0.2358,-0.2358 0.55,-0.1571 0.1572,0.079 0.1572,-0.3143 0.1572,-0.3143 0,-0.7858 -0.3143,-1.4929 -0.4714,-2.2786 -0.079,-0.3929 0.1571,-0.8643 0.1571,-1.2572 0,-1.1 0.1571,-2.2785 -0.3929,-3.2999 -0.079,-0.1572 -0.2357,-0.3144 -0.3142,-0.4715 -0.079,-0.3929 0.3928,-0.3929 0.6285,-0.55 h 0.7071 c 0.079,0.079 0.079,0.2357 0.2358,0.3143 0.079,0.079 0.2357,0.079 0.3142,0.079 0.079,-0.2358 1.0215,-0.3143 1.1786,-0.6286"
         id="path2"
         style="stroke-width:0.785714" /></g></g><style
     type="text/css"
     id="style1">
	.st0{fill:#ED1C24;}
</style></svg>
