<?xml version="1.0" encoding="UTF-8" standalone="no"?>
<!-- Created with Inkscape (http://www.inkscape.org/) -->

<svg
   width="162.63197mm"
   height="21.229132mm"
   viewBox="0 0 162.63197 21.229132"
   version="1.1"
   id="svg1"
   xml:space="preserve"
   inkscape:version="1.4 (86a8ad7, 2024-10-11)"
   sodipodi:docname="marcas.svg"
   xmlns:inkscape="http://www.inkscape.org/namespaces/inkscape"
   xmlns:sodipodi="http://sodipodi.sourceforge.net/DTD/sodipodi-0.dtd"
   xmlns="http://www.w3.org/2000/svg"
   xmlns:svg="http://www.w3.org/2000/svg"><sodipodi:namedview
     id="namedview1"
     pagecolor="#ffffff"
     bordercolor="#000000"
     borderopacity="0.25"
     inkscape:showpageshadow="2"
     inkscape:pageopacity="0.0"
     inkscape:pagecheckerboard="0"
     inkscape:deskcolor="#d1d1d1"
     inkscape:document-units="mm"
     inkscape:zoom="0.08"
     inkscape:cx="-2487.5"
     inkscape:cy="981.25"
     inkscape:window-width="1920"
     inkscape:window-height="1017"
     inkscape:window-x="-8"
     inkscape:window-y="-8"
     inkscape:window-maximized="1"
     inkscape:current-layer="layer1"
     showgrid="false"><inkscape:page
       x="6.7788765e-13"
       y="0"
       width="162.63199"
       height="21.229132"
       id="page2"
       margin="0"
       bleed="0" /></sodipodi:namedview><defs
     id="defs1" /><g
     inkscape:label="Capa 1"
     inkscape:groupmode="layer"
     id="layer1"
     transform="translate(397.86564,-631.99562)"><path
       d="m -331.23836,632.1255 h -19.13465 c -6.71204,0.002 -7.69403,5.43512 -7.8694,6.00347 -0.22036,0.71272 -3.09227,11.57785 -3.99727,15.02324 3.8777,0 11.6205,0.0103 11.6205,0.0103 0,0 2.24019,-8.50136 2.26208,-8.47846 0.24628,0.25144 4.81676,5.84037 6.25485,7.41134 1.15424,1.26245 1.95449,1.06292 6.39932,1.07332 2.85523,-0.007 6.90644,-0.002 7.04254,-0.002 l -6.49183,-7.66589 h 7.18179 c 0.48623,-2.0541 1.15631,-4.48958 1.74222,-6.85026 0.89476,-3.60855 -2.04168,-6.43367 -5.01015,-6.52403 z m -7.43219,9.62446 h -8.90633 l 1.41413,-5.05274 h 8.85139 z m -23.91088,-5.08082 1.22411,-4.4439 -25.0811,-0.007 c -5.28565,0.26598 -6.80344,3.47033 -7.59218,6.61961 -0.28796,1.1398 -0.57989,2.21207 -0.81959,3.13057 -0.1947,0.76776 -0.40567,1.53126 -0.63291,2.29001 l 19.35601,-0.008 -1.17941,4.50726 h -19.355 l -1.20417,4.43039 h 24.12511 c 4.85116,0 7.27099,-2.03128 8.45034,-6.42948 0.81366,-3.10667 1.6802,-6.1697 1.6802,-6.1697 h -18.81681 l 1.03588,-3.91713 z m 49.17688,-4.49898 c -1.84316,0 -5.80397,-0.3325 -7.82988,5.8788 -0.92158,3.33738 -4.02721,15.1261 -4.02721,15.1261 l 5.66256,0.005 c 2.57671,0 5.28349,0.0935 6.14381,-1.59286 0.76268,-1.49202 1.72664,-5.51201 1.72664,-5.51201 h 9.28484 l -1.93144,7.14952 h 11.65475 c 5.36535,-20.102 5.21876,-19.60014 5.62298,-21.05375 z m 11.76503,9.64944 -8.87214,0.0126 1.36311,-5.14319 h 8.84612 z m 51.23108,11.35133 4.20081,-16.07371 h -6.98775 l -4.22858,16.09029 -11.27132,0.002 4.211,-16.09241 h -7.02988 l -4.24749,16.09656 h -11.64008 l 5.60324,-21.15974 c 0,0 37.62827,-0.0862 41.5818,0 2.44187,0.0519 5.95769,2.48224 4.73048,7.2773 -1.44934,5.65751 -2.42495,10.41622 -3.32574,13.85956 z"
       fill="#cc2131"
       id="path2-3"
       style="clip-rule:evenodd;fill-rule:evenodd;stroke-width:1.03902"
       sodipodi:nodetypes="ccccccccccccccccccccccccccccscccccscccccccccsccccccccccccccccccc"
       inkscape:export-filename="resources\icons\trademarks\sram-logo.svg"
       inkscape:export-xdpi="96"
       inkscape:export-ydpi="96" /></g><style
     type="text/css"
     id="style1">
	.st0{fill:#ED1C24;}
</style></svg>
