<?xml version="1.0" encoding="UTF-8" standalone="no"?>
<!-- Created with Inkscape (http://www.inkscape.org/) -->

<svg
   width="107.26464mm"
   height="49.956253mm"
   viewBox="0 0 107.26464 49.956253"
   version="1.1"
   id="svg1"
   xml:space="preserve"
   inkscape:version="1.4 (86a8ad7, 2024-10-11)"
   sodipodi:docname="marcas.svg"
   xmlns:inkscape="http://www.inkscape.org/namespaces/inkscape"
   xmlns:sodipodi="http://sodipodi.sourceforge.net/DTD/sodipodi-0.dtd"
   xmlns="http://www.w3.org/2000/svg"
   xmlns:svg="http://www.w3.org/2000/svg"><sodipodi:namedview
     id="namedview1"
     pagecolor="#ffffff"
     bordercolor="#000000"
     borderopacity="0.25"
     inkscape:showpageshadow="2"
     inkscape:pageopacity="0.0"
     inkscape:pagecheckerboard="0"
     inkscape:deskcolor="#d1d1d1"
     inkscape:document-units="mm"
     inkscape:zoom="0.08"
     inkscape:cx="-2487.5"
     inkscape:cy="981.25"
     inkscape:window-width="1920"
     inkscape:window-height="1017"
     inkscape:window-x="-8"
     inkscape:window-y="-8"
     inkscape:window-maximized="1"
     inkscape:current-layer="layer1"
     showgrid="false"><inkscape:page
       x="0"
       y="0"
       width="107.26464"
       height="49.956253"
       id="page2"
       margin="0"
       bleed="0" /></sodipodi:namedview><defs
     id="defs1"><clipPath
       clipPathUnits="userSpaceOnUse"
       id="clipPath5"><path
         id="path9"
         d="M -31.357501,4.8978988 H 41.184504 V -11.275085 h -72.542005 z"
         style="stroke-width:0.999999" /></clipPath><clipPath
       clipPathUnits="userSpaceOnUse"
       id="clipPath9"><path
         id="path10"
         d="M -43.772701,4.8978988 H 28.769304 V -11.275085 h -72.542005 z"
         style="stroke-width:0.999999" /></clipPath><clipPath
       clipPathUnits="userSpaceOnUse"
       id="clipPath10"><path
         id="path11"
         d="M -57.1796,6.1357977 H 15.362405 V -10.037186 H -57.1796 Z"
         style="stroke-width:0.999999" /></clipPath><clipPath
       clipPathUnits="userSpaceOnUse"
       id="clipPath11"><path
         id="path12"
         d="M -62.356301,7.9092925 H 10.185704 V -8.263691 h -72.542005 z"
         style="stroke-width:0.999999" /></clipPath><clipPath
       clipPathUnits="userSpaceOnUse"
       id="clipPath12"><path
         id="path13"
         d="M -63.187901,4.8978988 H 9.3541042 V -11.275085 H -63.187901 Z"
         style="stroke-width:0.999999" /></clipPath><clipPath
       clipPathUnits="userSpaceOnUse"
       id="clipPath13"><path
         id="path14"
         d="M -7.5558002,12.241992 H 64.986205 V -3.9309916 H -7.5558002 Z"
         style="stroke-width:0.999999" /></clipPath><clipPath
       clipPathUnits="userSpaceOnUse"
       id="clipPath14"><path
         id="path15"
         d="M -2.5642,11.168394 H 69.977805 V -5.0045901 H -2.5642 Z"
         style="stroke-width:0.999999" /></clipPath><clipPath
       clipPathUnits="userSpaceOnUse"
       id="clipPath15"><path
         id="path17"
         d="M -0.51440018,6.8279905 H 72.027605 V -9.3449931 H -0.51440018 Z"
         style="stroke-width:0.999999" /></clipPath><clipPath
       clipPathUnits="userSpaceOnUse"
       id="clipPath17"><path
         id="path18"
         d="M -10.817801,11.168394 H 61.724204 V -5.0045901 h -72.542005 z"
         style="stroke-width:0.999999" /></clipPath><clipPath
       clipPathUnits="userSpaceOnUse"
       id="clipPath18"><path
         id="path19"
         d="M -12.867601,6.8279905 H 59.674404 V -9.3449931 h -72.542005 z"
         style="stroke-width:0.999999" /></clipPath></defs><g
     inkscape:label="Capa 1"
     inkscape:groupmode="layer"
     id="layer1"
     transform="translate(1429.377,-617.63208)"><g
       id="g61"
       transform="matrix(0.21316319,0,0,0.21316319,115.48579,-670.84806)"
       inkscape:export-filename="resources\icons\trademarks\trek-logo.svg"
       inkscape:export-xdpi="96"
       inkscape:export-ydpi="96"><g
         id="g21"
         transform="translate(-7473.4593,2565.7238)"><g
           transform="matrix(8.4765401,0,0,-8.4765401,530.09472,3536.7255)"
           id="g20"
           clip-path="url(#clipPath18)"><path
             id="path22"
             style="fill:#ee2722;fill-opacity:1;fill-rule:nonzero;stroke:none"
             d="M 0,0 C 0.692,3.188 0.488,5.794 0.48,5.903 L 0.465,6.077 0.297,6.12 C 0.275,6.125 -1.493,6.576 -4.091,6.755 -3.779,2.689 -2.607,-0.346 -0.904,-2.974 -0.532,-2.051 -0.23,-1.058 0,0" /></g><g
           transform="matrix(8.4765401,0,0,-8.4765401,512.71951,3573.5171)"
           id="g24"
           clip-path="url(#clipPath17)"><path
             id="path26"
             style="fill:#ee2722;fill-opacity:1;fill-rule:nonzero;stroke:none"
             d="m 0,0 c -0.63,1.369 -1.147,2.794 -1.552,4.251 -0.407,1.455 -0.699,2.941 -0.895,4.434 -0.105,0.815 -0.18,1.63 -0.225,2.448 -0.174,0.008 -0.35,0.016 -0.529,0.021 0.137,-5.73 0.838,-10.178 1.893,-13.834 0.576,0.652 1.093,1.377 1.548,2.171 C 0.159,-0.34 0.079,-0.171 0,0" /></g><g
           transform="matrix(8.4765401,0,0,-8.4765401,425.38232,3536.7255)"
           id="g28"
           clip-path="url(#clipPath15)"><path
             id="path30"
             style="fill:#ee2722;fill-opacity:1;fill-rule:nonzero;stroke:none"
             d="m 0,0 c -0.693,3.188 -0.488,5.794 -0.48,5.903 l 0.015,0.174 0.168,0.043 C -0.275,6.125 1.493,6.576 4.09,6.755 3.779,2.689 2.607,-0.346 0.904,-2.974 0.532,-2.051 0.23,-1.058 0,0" /></g><g
           transform="matrix(8.4765401,0,0,-8.4765401,442.75753,3573.5171)"
           id="g32"
           clip-path="url(#clipPath14)"><path
             id="path34"
             style="fill:#ee2722;fill-opacity:1;fill-rule:nonzero;stroke:none"
             d="M 0,0 C 0.63,1.369 1.147,2.794 1.552,4.251 1.959,5.706 2.25,7.192 2.446,8.685 2.552,9.5 2.627,10.315 2.672,11.133 2.845,11.141 3.021,11.149 3.2,11.154 3.064,5.424 2.363,0.976 1.308,-2.68 0.731,-2.028 0.215,-1.303 -0.24,-0.509 -0.159,-0.34 -0.079,-0.171 0,0" /></g><g
           transform="matrix(8.4765401,0,0,-8.4765401,485.06903,3582.6175)"
           id="g36"
           clip-path="url(#clipPath13)"><path
             id="path38"
             style="fill:#ee2722;fill-opacity:1;fill-rule:nonzero;stroke:none"
             d="m 0,0 c -0.269,2.379 -0.411,4.769 -0.492,7.156 -0.056,1.697 -0.088,3.39 -0.102,5.085 -0.089,0.001 -0.178,0.001 -0.267,0.001 h -0.004 -0.004 c -0.09,0 -0.178,0 -0.267,-0.001 C -1.15,10.546 -1.182,8.853 -1.238,7.156 -1.319,4.769 -1.461,2.379 -1.73,0 c -0.114,-1.021 -0.257,-2.04 -0.421,-3.055 0.37,-0.29 0.757,-0.557 1.161,-0.8 l 0.124,-0.073 v -0.003 10e-4 h 0.001 0.001 v -10e-4 0.003 l 0.124,0.073 c 0.404,0.243 0.791,0.51 1.161,0.8 C 0.257,-2.04 0.114,-1.021 0,0" /></g></g><g
         id="g19"
         transform="matrix(1.0929339,0,0,1.0929339,-7876.3197,2371.4712)"><g
           transform="matrix(8.4765401,0,0,-8.4765401,956.63676,3520.365)"
           id="g40"
           clip-path="url(#clipPath12)"><path
             id="path42"
             style="fill:#231f20;fill-opacity:1;fill-rule:nonzero;stroke:none"
             d="m 0,0 h -4.56 l -2.341,-6.469 h 4.56 z" /></g><g
           transform="matrix(8.4765401,0,0,-8.4765401,949.58767,3545.8912)"
           id="g44"
           clip-path="url(#clipPath11)"><path
             id="path46"
             style="fill:#231f20;fill-opacity:1;fill-rule:nonzero;stroke:none"
             d="m 0,0 2.707,-3.457 h 5.264 l -3.027,3.421 5.242,3.047 H 4.843 Z" /></g><g
           transform="matrix(8.4765401,0,0,-8.4765401,905.70716,3530.8581)"
           id="g48"
           clip-path="url(#clipPath10)"><path
             id="path50"
             style="fill:#231f20;fill-opacity:1;fill-rule:nonzero;stroke:none"
             d="m 0,0 0.449,1.238 h -11.675 l -1.604,-4.443 c -0.102,-0.284 -0.121,-0.608 0.093,-0.851 0.072,-0.083 0.594,-0.672 0.7,-0.792 0.189,-0.211 0.414,-0.383 0.792,-0.383 h 9.352 l 0.446,1.233 -6.536,-10e-4 c -0.399,0 -0.589,0.301 -0.482,0.598 l 0.297,0.816 h 7.231 l 0.447,1.237 H -7.724 L -7.235,0 Z" /></g><g
           transform="matrix(8.4765401,0,0,-8.4765401,792.06304,3520.365)"
           id="g52"
           clip-path="url(#clipPath9)"><path
             id="path54"
             style="fill:#231f20;fill-opacity:1;fill-rule:nonzero;stroke:none"
             d="m 0,0 h -11.605 l -2.344,-6.469 h 4.443 l 1.881,5.231 h 3.315 c 0.355,0 0.496,-0.257 0.415,-0.518 -0.081,-0.267 -0.196,-0.583 -0.278,-0.783 -0.112,-0.27 -0.381,-0.474 -0.768,-0.474 -0.387,0 -3.106,-0.002 -3.106,-0.002 l 2.702,-3.454 h 5.115 l -2.299,2.589 c 0,0 0.915,-0.002 1.378,-0.002 0.65,0 1.015,0.345 1.184,0.771 0.192,0.485 0.618,1.684 0.758,2.079 C 1.019,-0.386 0.649,0 0,0" /></g><g
           transform="matrix(8.4765401,0,0,-8.4765401,686.8251,3520.365)"
           id="g56"
           clip-path="url(#clipPath5)"><path
             id="path58"
             style="fill:#231f20;fill-opacity:1;fill-rule:nonzero;stroke:none"
             d="m 0,0 h -12.683 l -0.449,-1.238 h 4.375 l -1.893,-5.231 h 4.306 l 1.894,5.231 h 4.001 z" /></g></g></g></g><style
     type="text/css"
     id="style1">
	.st0{fill:#ED1C24;}
</style></svg>
